  0
SECTION
  2
HEADER
  9
$ACADVER
  1
AC1009
  9
$EXTMIN
 10
0.0
 20
0.0
 30
0.0
  9
$EXTMAX
 10
1000.0
 20
1000.0
 30
0.0
  9
$FILLMODE
 70
 0
  9
$SPLFRAME
 70
 1
  0
ENDSEC
  0
SECTION
  2
TABLES
  0
TABLE
  2
LAYER
 70
1
  0
LAYER
  2
0
 70
     0
 62
     7
  6
CONTINUOUS
  0
ENDTAB
  0
ENDSEC
  0
SECTION
  2
ENTITIES
  0
LINE
  8
0
 62
     0
 10
0.0950846
 20
124.083
 30
0.0
 11
309.658
 21
124.083
 31
0.0
  0
LINE
  8
0
 62
     0
 10
309.658
 20
124.083
 30
0.0
 11
309.658
 21
0.257693
 31
0.0
  0
LINE
  8
0
 62
     0
 10
309.658
 20
0.257693
 30
0.0
 11
0.0950846
 21
0.257693
 31
0.0
  0
LINE
  8
0
 62
     0
 10
0.0950846
 20
0.257693
 30
0.0
 11
0.0950846
 21
124.083
 31
0.0
  0
LINE
  8
0
 62
     0
 10
293.132
 20
16.7831
 30
0.0
 11
293.132
 21
15.7827
 31
0.0
  0
LINE
  8
0
 62
     0
 10
293.132
 20
15.7827
 30
0.0
 11
292.331
 21
15.7827
 31
0.0
  0
LINE
  8
0
 62
     0
 10
292.331
 20
15.7827
 30
0.0
 11
292.331
 21
12.6848
 31
0.0
  0
LINE
  8
0
 62
     0
 10
292.331
 20
12.6848
 30
0.0
 11
293.132
 21
12.6848
 31
0.0
  0
LINE
  8
0
 62
     0
 10
293.132
 20
12.6848
 30
0.0
 11
293.132
 21
6.88329
 31
0.0
  0
LINE
  8
0
 62
     0
 10
293.132
 20
6.88329
 30
0.0
 11
292.331
 21
6.88329
 31
0.0
  0
LINE
  8
0
 62
     0
 10
292.331
 20
6.88329
 30
0.0
 11
292.331
 21
3.78273
 31
0.0
  0
LINE
  8
0
 62
     0
 10
292.331
 20
3.78273
 30
0.0
 11
293.132
 21
3.78273
 31
0.0
  0
LINE
  8
0
 62
     0
 10
293.132
 20
3.78273
 30
0.0
 11
293.132
 21
2.78364
 31
0.0
  0
LINE
  8
0
 62
     0
 10
293.132
 20
2.78364
 30
0.0
 11
307.132
 21
2.78364
 31
0.0
  0
LINE
  8
0
 62
     0
 10
307.132
 20
2.78364
 30
0.0
 11
307.132
 21
3.78273
 31
0.0
  0
LINE
  8
0
 62
     0
 10
307.132
 20
3.78273
 30
0.0
 11
307.931
 21
3.78273
 31
0.0
  0
LINE
  8
0
 62
     0
 10
307.931
 20
3.78273
 30
0.0
 11
307.931
 21
6.88329
 31
0.0
  0
LINE
  8
0
 62
     0
 10
307.931
 20
6.88329
 30
0.0
 11
307.132
 21
6.88329
 31
0.0
  0
LINE
  8
0
 62
     0
 10
307.132
 20
6.88329
 30
0.0
 11
307.132
 21
12.6848
 31
0.0
  0
LINE
  8
0
 62
     0
 10
307.132
 20
12.6848
 30
0.0
 11
307.931
 21
12.6848
 31
0.0
  0
LINE
  8
0
 62
     0
 10
307.931
 20
12.6848
 30
0.0
 11
307.931
 21
15.7827
 31
0.0
  0
LINE
  8
0
 62
     0
 10
307.931
 20
15.7827
 30
0.0
 11
307.132
 21
15.7827
 31
0.0
  0
LINE
  8
0
 62
     0
 10
307.132
 20
15.7827
 30
0.0
 11
307.132
 21
16.7831
 31
0.0
  0
LINE
  8
0
 62
     0
 10
307.132
 20
16.7831
 30
0.0
 11
293.132
 21
16.7831
 31
0.0
  0
LINE
  8
0
 62
     0
 10
274.082
 20
16.7831
 30
0.0
 11
274.082
 21
15.7827
 31
0.0
  0
LINE
  8
0
 62
     0
 10
274.082
 20
15.7827
 30
0.0
 11
273.281
 21
15.7827
 31
0.0
  0
LINE
  8
0
 62
     0
 10
273.281
 20
15.7827
 30
0.0
 11
273.281
 21
12.6848
 31
0.0
  0
LINE
  8
0
 62
     0
 10
273.281
 20
12.6848
 30
0.0
 11
274.082
 21
12.6848
 31
0.0
  0
LINE
  8
0
 62
     0
 10
274.082
 20
12.6848
 30
0.0
 11
274.082
 21
6.88329
 31
0.0
  0
LINE
  8
0
 62
     0
 10
274.082
 20
6.88329
 30
0.0
 11
273.281
 21
6.88329
 31
0.0
  0
LINE
  8
0
 62
     0
 10
273.281
 20
6.88329
 30
0.0
 11
273.281
 21
3.78273
 31
0.0
  0
LINE
  8
0
 62
     0
 10
273.281
 20
3.78273
 30
0.0
 11
274.082
 21
3.78273
 31
0.0
  0
LINE
  8
0
 62
     0
 10
274.082
 20
3.78273
 30
0.0
 11
274.082
 21
2.78364
 31
0.0
  0
LINE
  8
0
 62
     0
 10
274.082
 20
2.78364
 30
0.0
 11
288.082
 21
2.78364
 31
0.0
  0
LINE
  8
0
 62
     0
 10
288.082
 20
2.78364
 30
0.0
 11
288.082
 21
3.78273
 31
0.0
  0
LINE
  8
0
 62
     0
 10
288.082
 20
3.78273
 30
0.0
 11
288.881
 21
3.78273
 31
0.0
  0
LINE
  8
0
 62
     0
 10
288.881
 20
3.78273
 30
0.0
 11
288.881
 21
6.88329
 31
0.0
  0
LINE
  8
0
 62
     0
 10
288.881
 20
6.88329
 30
0.0
 11
288.082
 21
6.88329
 31
0.0
  0
LINE
  8
0
 62
     0
 10
288.082
 20
6.88329
 30
0.0
 11
288.082
 21
12.6848
 31
0.0
  0
LINE
  8
0
 62
     0
 10
288.082
 20
12.6848
 30
0.0
 11
288.881
 21
12.6848
 31
0.0
  0
LINE
  8
0
 62
     0
 10
288.881
 20
12.6848
 30
0.0
 11
288.881
 21
15.7827
 31
0.0
  0
LINE
  8
0
 62
     0
 10
288.881
 20
15.7827
 30
0.0
 11
288.082
 21
15.7827
 31
0.0
  0
LINE
  8
0
 62
     0
 10
288.082
 20
15.7827
 30
0.0
 11
288.082
 21
16.7831
 31
0.0
  0
LINE
  8
0
 62
     0
 10
288.082
 20
16.7831
 30
0.0
 11
274.082
 21
16.7831
 31
0.0
  0
LINE
  8
0
 62
     0
 10
255.032
 20
16.7831
 30
0.0
 11
255.032
 21
15.7827
 31
0.0
  0
LINE
  8
0
 62
     0
 10
255.032
 20
15.7827
 30
0.0
 11
254.231
 21
15.7827
 31
0.0
  0
LINE
  8
0
 62
     0
 10
254.231
 20
15.7827
 30
0.0
 11
254.231
 21
12.6848
 31
0.0
  0
LINE
  8
0
 62
     0
 10
254.231
 20
12.6848
 30
0.0
 11
255.032
 21
12.6848
 31
0.0
  0
LINE
  8
0
 62
     0
 10
255.032
 20
12.6848
 30
0.0
 11
255.032
 21
6.88329
 31
0.0
  0
LINE
  8
0
 62
     0
 10
255.032
 20
6.88329
 30
0.0
 11
254.231
 21
6.88329
 31
0.0
  0
LINE
  8
0
 62
     0
 10
254.231
 20
6.88329
 30
0.0
 11
254.231
 21
3.78273
 31
0.0
  0
LINE
  8
0
 62
     0
 10
254.231
 20
3.78273
 30
0.0
 11
255.032
 21
3.78273
 31
0.0
  0
LINE
  8
0
 62
     0
 10
255.032
 20
3.78273
 30
0.0
 11
255.032
 21
2.78364
 31
0.0
  0
LINE
  8
0
 62
     0
 10
255.032
 20
2.78364
 30
0.0
 11
269.032
 21
2.78364
 31
0.0
  0
LINE
  8
0
 62
     0
 10
269.032
 20
2.78364
 30
0.0
 11
269.032
 21
3.78273
 31
0.0
  0
LINE
  8
0
 62
     0
 10
269.032
 20
3.78273
 30
0.0
 11
269.831
 21
3.78273
 31
0.0
  0
LINE
  8
0
 62
     0
 10
269.831
 20
3.78273
 30
0.0
 11
269.831
 21
6.88329
 31
0.0
  0
LINE
  8
0
 62
     0
 10
269.831
 20
6.88329
 30
0.0
 11
269.032
 21
6.88329
 31
0.0
  0
LINE
  8
0
 62
     0
 10
269.032
 20
6.88329
 30
0.0
 11
269.032
 21
12.6848
 31
0.0
  0
LINE
  8
0
 62
     0
 10
269.032
 20
12.6848
 30
0.0
 11
269.831
 21
12.6848
 31
0.0
  0
LINE
  8
0
 62
     0
 10
269.831
 20
12.6848
 30
0.0
 11
269.831
 21
15.7827
 31
0.0
  0
LINE
  8
0
 62
     0
 10
269.831
 20
15.7827
 30
0.0
 11
269.032
 21
15.7827
 31
0.0
  0
LINE
  8
0
 62
     0
 10
269.032
 20
15.7827
 30
0.0
 11
269.032
 21
16.7831
 31
0.0
  0
LINE
  8
0
 62
     0
 10
269.032
 20
16.7831
 30
0.0
 11
255.032
 21
16.7831
 31
0.0
  0
LINE
  8
0
 62
     0
 10
124.062
 20
21.5456
 30
0.0
 11
124.062
 21
20.5466
 31
0.0
  0
LINE
  8
0
 62
     0
 10
124.062
 20
20.5466
 30
0.0
 11
123.263
 21
20.5466
 31
0.0
  0
LINE
  8
0
 62
     0
 10
123.263
 20
20.5466
 30
0.0
 11
123.263
 21
17.446
 31
0.0
  0
LINE
  8
0
 62
     0
 10
123.263
 20
17.446
 30
0.0
 11
124.062
 21
17.446
 31
0.0
  0
LINE
  8
0
 62
     0
 10
124.062
 20
17.446
 30
0.0
 11
124.062
 21
16.8465
 31
0.0
  0
LINE
  8
0
 62
     0
 10
124.062
 20
16.8465
 30
0.0
 11
84.4381
 21
16.8465
 31
0.0
  0
LINE
  8
0
 62
     0
 10
84.4381
 20
16.8465
 30
0.0
 11
84.4381
 21
20.0767
 31
0.0
  0
LINE
  8
0
 62
     0
 10
84.4381
 20
20.0767
 30
0.0
 11
77.687
 21
20.0767
 31
0.0
  0
LINE
  8
0
 62
     0
 10
77.687
 20
20.0767
 30
0.0
 11
77.687
 21
16.8465
 31
0.0
  0
LINE
  8
0
 62
     0
 10
77.687
 20
16.8465
 30
0.0
 11
76.8629
 21
16.8465
 31
0.0
  0
LINE
  8
0
 62
     0
 10
76.8629
 20
16.8465
 30
0.0
 11
76.8629
 21
14.0463
 31
0.0
  0
LINE
  8
0
 62
     0
 10
76.8629
 20
14.0463
 30
0.0
 11
77.687
 21
14.0463
 31
0.0
  0
LINE
  8
0
 62
     0
 10
77.687
 20
14.0463
 30
0.0
 11
77.687
 21
7.77628
 31
0.0
  0
LINE
  8
0
 62
     0
 10
77.687
 20
7.77628
 30
0.0
 11
79.412
 21
7.77628
 31
0.0
  0
LINE
  8
0
 62
     0
 10
79.412
 20
7.77628
 30
0.0
 11
79.412
 21
6.57599
 31
0.0
  0
LINE
  8
0
 62
     0
 10
79.412
 20
6.57599
 30
0.0
 11
82.7126
 21
6.57599
 31
0.0
  0
LINE
  8
0
 62
     0
 10
82.7126
 20
6.57599
 30
0.0
 11
82.7126
 21
7.77628
 31
0.0
  0
LINE
  8
0
 62
     0
 10
82.7126
 20
7.77628
 30
0.0
 11
84.4381
 21
7.77628
 31
0.0
  0
LINE
  8
0
 62
     0
 10
84.4381
 20
7.77628
 30
0.0
 11
84.4381
 21
12.2466
 31
0.0
  0
LINE
  8
0
 62
     0
 10
84.4381
 20
12.2466
 30
0.0
 11
124.062
 21
12.2466
 31
0.0
  0
LINE
  8
0
 62
     0
 10
124.062
 20
12.2466
 30
0.0
 11
124.062
 21
11.6458
 31
0.0
  0
LINE
  8
0
 62
     0
 10
124.062
 20
11.6458
 30
0.0
 11
123.263
 21
11.6458
 31
0.0
  0
LINE
  8
0
 62
     0
 10
123.263
 20
11.6458
 30
0.0
 11
123.263
 21
8.54661
 31
0.0
  0
LINE
  8
0
 62
     0
 10
123.263
 20
8.54661
 30
0.0
 11
124.062
 21
8.54661
 31
0.0
  0
LINE
  8
0
 62
     0
 10
124.062
 20
8.54661
 30
0.0
 11
124.062
 21
7.54613
 31
0.0
  0
LINE
  8
0
 62
     0
 10
124.062
 20
7.54613
 30
0.0
 11
138.063
 21
7.54613
 31
0.0
  0
LINE
  8
0
 62
     0
 10
138.063
 20
7.54613
 30
0.0
 11
138.063
 21
8.54661
 31
0.0
  0
LINE
  8
0
 62
     0
 10
138.063
 20
8.54661
 30
0.0
 11
138.862
 21
8.54661
 31
0.0
  0
LINE
  8
0
 62
     0
 10
138.862
 20
8.54661
 30
0.0
 11
138.862
 21
11.6458
 31
0.0
  0
LINE
  8
0
 62
     0
 10
138.862
 20
11.6458
 30
0.0
 11
138.063
 21
11.6458
 31
0.0
  0
LINE
  8
0
 62
     0
 10
138.063
 20
11.6458
 30
0.0
 11
138.063
 21
12.2466
 31
0.0
  0
LINE
  8
0
 62
     0
 10
138.063
 20
12.2466
 30
0.0
 11
177.687
 21
12.2466
 31
0.0
  0
LINE
  8
0
 62
     0
 10
177.687
 20
12.2466
 30
0.0
 11
177.687
 21
7.77628
 31
0.0
  0
LINE
  8
0
 62
     0
 10
177.687
 20
7.77628
 30
0.0
 11
179.412
 21
7.77628
 31
0.0
  0
LINE
  8
0
 62
     0
 10
179.412
 20
7.77628
 30
0.0
 11
179.412
 21
6.57599
 31
0.0
  0
LINE
  8
0
 62
     0
 10
179.412
 20
6.57599
 30
0.0
 11
182.713
 21
6.57599
 31
0.0
  0
LINE
  8
0
 62
     0
 10
182.713
 20
6.57599
 30
0.0
 11
182.713
 21
7.77628
 31
0.0
  0
LINE
  8
0
 62
     0
 10
182.713
 20
7.77628
 30
0.0
 11
184.438
 21
7.77628
 31
0.0
  0
LINE
  8
0
 62
     0
 10
184.438
 20
7.77628
 30
0.0
 11
184.438
 21
14.0463
 31
0.0
  0
LINE
  8
0
 62
     0
 10
184.438
 20
14.0463
 30
0.0
 11
185.262
 21
14.0463
 31
0.0
  0
LINE
  8
0
 62
     0
 10
185.262
 20
14.0463
 30
0.0
 11
185.262
 21
16.8465
 31
0.0
  0
LINE
  8
0
 62
     0
 10
185.262
 20
16.8465
 30
0.0
 11
184.438
 21
16.8465
 31
0.0
  0
LINE
  8
0
 62
     0
 10
184.438
 20
16.8465
 30
0.0
 11
184.438
 21
20.0767
 31
0.0
  0
LINE
  8
0
 62
     0
 10
184.438
 20
20.0767
 30
0.0
 11
177.687
 21
20.0767
 31
0.0
  0
LINE
  8
0
 62
     0
 10
177.687
 20
20.0767
 30
0.0
 11
177.687
 21
16.8465
 31
0.0
  0
LINE
  8
0
 62
     0
 10
177.687
 20
16.8465
 30
0.0
 11
138.063
 21
16.8465
 31
0.0
  0
LINE
  8
0
 62
     0
 10
138.063
 20
16.8465
 30
0.0
 11
138.063
 21
17.446
 31
0.0
  0
LINE
  8
0
 62
     0
 10
138.063
 20
17.446
 30
0.0
 11
138.862
 21
17.446
 31
0.0
  0
LINE
  8
0
 62
     0
 10
138.862
 20
17.446
 30
0.0
 11
138.862
 21
20.5466
 31
0.0
  0
LINE
  8
0
 62
     0
 10
138.862
 20
20.5466
 30
0.0
 11
138.063
 21
20.5466
 31
0.0
  0
LINE
  8
0
 62
     0
 10
138.063
 20
20.5466
 30
0.0
 11
138.063
 21
21.5456
 31
0.0
  0
LINE
  8
0
 62
     0
 10
138.063
 20
21.5456
 30
0.0
 11
124.062
 21
21.5456
 31
0.0
  0
LINE
  8
0
 62
     0
 10
231.22
 20
21.5456
 30
0.0
 11
231.22
 21
20.5466
 31
0.0
  0
LINE
  8
0
 62
     0
 10
231.22
 20
20.5466
 30
0.0
 11
230.419
 21
20.5466
 31
0.0
  0
LINE
  8
0
 62
     0
 10
230.419
 20
20.5466
 30
0.0
 11
230.419
 21
17.446
 31
0.0
  0
LINE
  8
0
 62
     0
 10
230.419
 20
17.446
 30
0.0
 11
231.22
 21
17.446
 31
0.0
  0
LINE
  8
0
 62
     0
 10
231.22
 20
17.446
 30
0.0
 11
231.22
 21
11.6458
 31
0.0
  0
LINE
  8
0
 62
     0
 10
231.22
 20
11.6458
 30
0.0
 11
230.419
 21
11.6458
 31
0.0
  0
LINE
  8
0
 62
     0
 10
230.419
 20
11.6458
 30
0.0
 11
230.419
 21
8.54661
 31
0.0
  0
LINE
  8
0
 62
     0
 10
230.419
 20
8.54661
 30
0.0
 11
231.22
 21
8.54661
 31
0.0
  0
LINE
  8
0
 62
     0
 10
231.22
 20
8.54661
 30
0.0
 11
231.22
 21
7.54613
 31
0.0
  0
LINE
  8
0
 62
     0
 10
231.22
 20
7.54613
 30
0.0
 11
245.219
 21
7.54613
 31
0.0
  0
LINE
  8
0
 62
     0
 10
245.219
 20
7.54613
 30
0.0
 11
245.219
 21
8.54661
 31
0.0
  0
LINE
  8
0
 62
     0
 10
245.219
 20
8.54661
 30
0.0
 11
246.02
 21
8.54661
 31
0.0
  0
LINE
  8
0
 62
     0
 10
246.02
 20
8.54661
 30
0.0
 11
246.02
 21
11.6458
 31
0.0
  0
LINE
  8
0
 62
     0
 10
246.02
 20
11.6458
 30
0.0
 11
245.219
 21
11.6458
 31
0.0
  0
LINE
  8
0
 62
     0
 10
245.219
 20
11.6458
 30
0.0
 11
245.219
 21
17.446
 31
0.0
  0
LINE
  8
0
 62
     0
 10
245.219
 20
17.446
 30
0.0
 11
246.02
 21
17.446
 31
0.0
  0
LINE
  8
0
 62
     0
 10
246.02
 20
17.446
 30
0.0
 11
246.02
 21
20.5466
 31
0.0
  0
LINE
  8
0
 62
     0
 10
246.02
 20
20.5466
 30
0.0
 11
245.219
 21
20.5466
 31
0.0
  0
LINE
  8
0
 62
     0
 10
245.219
 20
20.5466
 30
0.0
 11
245.219
 21
21.5456
 31
0.0
  0
LINE
  8
0
 62
     0
 10
245.219
 20
21.5456
 30
0.0
 11
231.22
 21
21.5456
 31
0.0
  0
LINE
  8
0
 62
     0
 10
212.17
 20
21.5456
 30
0.0
 11
212.17
 21
20.5466
 31
0.0
  0
LINE
  8
0
 62
     0
 10
212.17
 20
20.5466
 30
0.0
 11
211.369
 21
20.5466
 31
0.0
  0
LINE
  8
0
 62
     0
 10
211.369
 20
20.5466
 30
0.0
 11
211.369
 21
17.446
 31
0.0
  0
LINE
  8
0
 62
     0
 10
211.369
 20
17.446
 30
0.0
 11
212.17
 21
17.446
 31
0.0
  0
LINE
  8
0
 62
     0
 10
212.17
 20
17.446
 30
0.0
 11
212.17
 21
11.6458
 31
0.0
  0
LINE
  8
0
 62
     0
 10
212.17
 20
11.6458
 30
0.0
 11
211.369
 21
11.6458
 31
0.0
  0
LINE
  8
0
 62
     0
 10
211.369
 20
11.6458
 30
0.0
 11
211.369
 21
8.54661
 31
0.0
  0
LINE
  8
0
 62
     0
 10
211.369
 20
8.54661
 30
0.0
 11
212.17
 21
8.54661
 31
0.0
  0
LINE
  8
0
 62
     0
 10
212.17
 20
8.54661
 30
0.0
 11
212.17
 21
7.54613
 31
0.0
  0
LINE
  8
0
 62
     0
 10
212.17
 20
7.54613
 30
0.0
 11
226.169
 21
7.54613
 31
0.0
  0
LINE
  8
0
 62
     0
 10
226.169
 20
7.54613
 30
0.0
 11
226.169
 21
8.54661
 31
0.0
  0
LINE
  8
0
 62
     0
 10
226.169
 20
8.54661
 30
0.0
 11
226.97
 21
8.54661
 31
0.0
  0
LINE
  8
0
 62
     0
 10
226.97
 20
8.54661
 30
0.0
 11
226.97
 21
11.6458
 31
0.0
  0
LINE
  8
0
 62
     0
 10
226.97
 20
11.6458
 30
0.0
 11
226.169
 21
11.6458
 31
0.0
  0
LINE
  8
0
 62
     0
 10
226.169
 20
11.6458
 30
0.0
 11
226.169
 21
17.446
 31
0.0
  0
LINE
  8
0
 62
     0
 10
226.169
 20
17.446
 30
0.0
 11
226.97
 21
17.446
 31
0.0
  0
LINE
  8
0
 62
     0
 10
226.97
 20
17.446
 30
0.0
 11
226.97
 21
20.5466
 31
0.0
  0
LINE
  8
0
 62
     0
 10
226.97
 20
20.5466
 30
0.0
 11
226.169
 21
20.5466
 31
0.0
  0
LINE
  8
0
 62
     0
 10
226.169
 20
20.5466
 30
0.0
 11
226.169
 21
21.5456
 31
0.0
  0
LINE
  8
0
 62
     0
 10
226.169
 20
21.5456
 30
0.0
 11
212.17
 21
21.5456
 31
0.0
  0
LINE
  8
0
 62
     0
 10
193.12
 20
21.5456
 30
0.0
 11
193.12
 21
20.5466
 31
0.0
  0
LINE
  8
0
 62
     0
 10
193.12
 20
20.5466
 30
0.0
 11
192.319
 21
20.5466
 31
0.0
  0
LINE
  8
0
 62
     0
 10
192.319
 20
20.5466
 30
0.0
 11
192.319
 21
17.446
 31
0.0
  0
LINE
  8
0
 62
     0
 10
192.319
 20
17.446
 30
0.0
 11
193.12
 21
17.446
 31
0.0
  0
LINE
  8
0
 62
     0
 10
193.12
 20
17.446
 30
0.0
 11
193.12
 21
11.6458
 31
0.0
  0
LINE
  8
0
 62
     0
 10
193.12
 20
11.6458
 30
0.0
 11
192.319
 21
11.6458
 31
0.0
  0
LINE
  8
0
 62
     0
 10
192.319
 20
11.6458
 30
0.0
 11
192.319
 21
8.54661
 31
0.0
  0
LINE
  8
0
 62
     0
 10
192.319
 20
8.54661
 30
0.0
 11
193.12
 21
8.54661
 31
0.0
  0
LINE
  8
0
 62
     0
 10
193.12
 20
8.54661
 30
0.0
 11
193.12
 21
7.54613
 31
0.0
  0
LINE
  8
0
 62
     0
 10
193.12
 20
7.54613
 30
0.0
 11
207.119
 21
7.54613
 31
0.0
  0
LINE
  8
0
 62
     0
 10
207.119
 20
7.54613
 30
0.0
 11
207.119
 21
8.54661
 31
0.0
  0
LINE
  8
0
 62
     0
 10
207.119
 20
8.54661
 30
0.0
 11
207.92
 21
8.54661
 31
0.0
  0
LINE
  8
0
 62
     0
 10
207.92
 20
8.54661
 30
0.0
 11
207.92
 21
11.6458
 31
0.0
  0
LINE
  8
0
 62
     0
 10
207.92
 20
11.6458
 30
0.0
 11
207.119
 21
11.6458
 31
0.0
  0
LINE
  8
0
 62
     0
 10
207.119
 20
11.6458
 30
0.0
 11
207.119
 21
17.446
 31
0.0
  0
LINE
  8
0
 62
     0
 10
207.119
 20
17.446
 30
0.0
 11
207.92
 21
17.446
 31
0.0
  0
LINE
  8
0
 62
     0
 10
207.92
 20
17.446
 30
0.0
 11
207.92
 21
20.5466
 31
0.0
  0
LINE
  8
0
 62
     0
 10
207.92
 20
20.5466
 30
0.0
 11
207.119
 21
20.5466
 31
0.0
  0
LINE
  8
0
 62
     0
 10
207.119
 20
20.5466
 30
0.0
 11
207.119
 21
21.5456
 31
0.0
  0
LINE
  8
0
 62
     0
 10
207.119
 20
21.5456
 30
0.0
 11
193.12
 21
21.5456
 31
0.0
  0
LINE
  8
0
 62
     0
 10
52.626
 20
21.5456
 30
0.0
 11
52.626
 21
20.5466
 31
0.0
  0
LINE
  8
0
 62
     0
 10
52.626
 20
20.5466
 30
0.0
 11
51.8252
 21
20.5466
 31
0.0
  0
LINE
  8
0
 62
     0
 10
51.8252
 20
20.5466
 30
0.0
 11
51.8252
 21
17.446
 31
0.0
  0
LINE
  8
0
 62
     0
 10
51.8252
 20
17.446
 30
0.0
 11
52.626
 21
17.446
 31
0.0
  0
LINE
  8
0
 62
     0
 10
52.626
 20
17.446
 30
0.0
 11
52.626
 21
11.6458
 31
0.0
  0
LINE
  8
0
 62
     0
 10
52.626
 20
11.6458
 30
0.0
 11
51.8252
 21
11.6458
 31
0.0
  0
LINE
  8
0
 62
     0
 10
51.8252
 20
11.6458
 30
0.0
 11
51.8252
 21
8.54661
 31
0.0
  0
LINE
  8
0
 62
     0
 10
51.8252
 20
8.54661
 30
0.0
 11
52.626
 21
8.54661
 31
0.0
  0
LINE
  8
0
 62
     0
 10
52.626
 20
8.54661
 30
0.0
 11
52.626
 21
7.54613
 31
0.0
  0
LINE
  8
0
 62
     0
 10
52.626
 20
7.54613
 30
0.0
 11
66.6253
 21
7.54613
 31
0.0
  0
LINE
  8
0
 62
     0
 10
66.6253
 20
7.54613
 30
0.0
 11
66.6253
 21
8.54661
 31
0.0
  0
LINE
  8
0
 62
     0
 10
66.6253
 20
8.54661
 30
0.0
 11
67.4261
 21
8.54661
 31
0.0
  0
LINE
  8
0
 62
     0
 10
67.4261
 20
8.54661
 30
0.0
 11
67.4261
 21
11.6458
 31
0.0
  0
LINE
  8
0
 62
     0
 10
67.4261
 20
11.6458
 30
0.0
 11
66.6253
 21
11.6458
 31
0.0
  0
LINE
  8
0
 62
     0
 10
66.6253
 20
11.6458
 30
0.0
 11
66.6253
 21
17.446
 31
0.0
  0
LINE
  8
0
 62
     0
 10
66.6253
 20
17.446
 30
0.0
 11
67.4261
 21
17.446
 31
0.0
  0
LINE
  8
0
 62
     0
 10
67.4261
 20
17.446
 30
0.0
 11
67.4261
 21
20.5466
 31
0.0
  0
LINE
  8
0
 62
     0
 10
67.4261
 20
20.5466
 30
0.0
 11
66.6253
 21
20.5466
 31
0.0
  0
LINE
  8
0
 62
     0
 10
66.6253
 20
20.5466
 30
0.0
 11
66.6253
 21
21.5456
 31
0.0
  0
LINE
  8
0
 62
     0
 10
66.6253
 20
21.5456
 30
0.0
 11
52.626
 21
21.5456
 31
0.0
  0
LINE
  8
0
 62
     0
 10
28.812
 20
21.5456
 30
0.0
 11
28.812
 21
20.5466
 31
0.0
  0
LINE
  8
0
 62
     0
 10
28.812
 20
20.5466
 30
0.0
 11
28.0128
 21
20.5466
 31
0.0
  0
LINE
  8
0
 62
     0
 10
28.0128
 20
20.5466
 30
0.0
 11
28.0128
 21
17.446
 31
0.0
  0
LINE
  8
0
 62
     0
 10
28.0128
 20
17.446
 30
0.0
 11
28.812
 21
17.446
 31
0.0
  0
LINE
  8
0
 62
     0
 10
28.812
 20
17.446
 30
0.0
 11
28.812
 21
11.6458
 31
0.0
  0
LINE
  8
0
 62
     0
 10
28.812
 20
11.6458
 30
0.0
 11
28.0128
 21
11.6458
 31
0.0
  0
LINE
  8
0
 62
     0
 10
28.0128
 20
11.6458
 30
0.0
 11
28.0128
 21
8.54661
 31
0.0
  0
LINE
  8
0
 62
     0
 10
28.0128
 20
8.54661
 30
0.0
 11
28.812
 21
8.54661
 31
0.0
  0
LINE
  8
0
 62
     0
 10
28.812
 20
8.54661
 30
0.0
 11
28.812
 21
7.54613
 31
0.0
  0
LINE
  8
0
 62
     0
 10
28.812
 20
7.54613
 30
0.0
 11
42.8128
 21
7.54613
 31
0.0
  0
LINE
  8
0
 62
     0
 10
42.8128
 20
7.54613
 30
0.0
 11
42.8128
 21
8.54661
 31
0.0
  0
LINE
  8
0
 62
     0
 10
42.8128
 20
8.54661
 30
0.0
 11
43.6122
 21
8.54661
 31
0.0
  0
LINE
  8
0
 62
     0
 10
43.6122
 20
8.54661
 30
0.0
 11
43.6122
 21
11.6458
 31
0.0
  0
LINE
  8
0
 62
     0
 10
43.6122
 20
11.6458
 30
0.0
 11
42.8128
 21
11.6458
 31
0.0
  0
LINE
  8
0
 62
     0
 10
42.8128
 20
11.6458
 30
0.0
 11
42.8128
 21
17.446
 31
0.0
  0
LINE
  8
0
 62
     0
 10
42.8128
 20
17.446
 30
0.0
 11
43.6122
 21
17.446
 31
0.0
  0
LINE
  8
0
 62
     0
 10
43.6122
 20
17.446
 30
0.0
 11
43.6122
 21
20.5466
 31
0.0
  0
LINE
  8
0
 62
     0
 10
43.6122
 20
20.5466
 30
0.0
 11
42.8128
 21
20.5466
 31
0.0
  0
LINE
  8
0
 62
     0
 10
42.8128
 20
20.5466
 30
0.0
 11
42.8128
 21
21.5456
 31
0.0
  0
LINE
  8
0
 62
     0
 10
42.8128
 20
21.5456
 30
0.0
 11
28.812
 21
21.5456
 31
0.0
  0
LINE
  8
0
 62
     0
 10
5.00091
 20
21.5456
 30
0.0
 11
5.00091
 21
20.5466
 31
0.0
  0
LINE
  8
0
 62
     0
 10
5.00091
 20
20.5466
 30
0.0
 11
4.20028
 21
20.5466
 31
0.0
  0
LINE
  8
0
 62
     0
 10
4.20028
 20
20.5466
 30
0.0
 11
4.20028
 21
17.446
 31
0.0
  0
LINE
  8
0
 62
     0
 10
4.20028
 20
17.446
 30
0.0
 11
5.00091
 21
17.446
 31
0.0
  0
LINE
  8
0
 62
     0
 10
5.00091
 20
17.446
 30
0.0
 11
5.00091
 21
11.6458
 31
0.0
  0
LINE
  8
0
 62
     0
 10
5.00091
 20
11.6458
 30
0.0
 11
4.20028
 21
11.6458
 31
0.0
  0
LINE
  8
0
 62
     0
 10
4.20028
 20
11.6458
 30
0.0
 11
4.20028
 21
8.54661
 31
0.0
  0
LINE
  8
0
 62
     0
 10
4.20028
 20
8.54661
 30
0.0
 11
5.00091
 21
8.54661
 31
0.0
  0
LINE
  8
0
 62
     0
 10
5.00091
 20
8.54661
 30
0.0
 11
5.00091
 21
7.54613
 31
0.0
  0
LINE
  8
0
 62
     0
 10
5.00091
 20
7.54613
 30
0.0
 11
19.0004
 21
7.54613
 31
0.0
  0
LINE
  8
0
 62
     0
 10
19.0004
 20
7.54613
 30
0.0
 11
19.0004
 21
8.54661
 31
0.0
  0
LINE
  8
0
 62
     0
 10
19.0004
 20
8.54661
 30
0.0
 11
19.801
 21
8.54661
 31
0.0
  0
LINE
  8
0
 62
     0
 10
19.801
 20
8.54661
 30
0.0
 11
19.801
 21
11.6458
 31
0.0
  0
LINE
  8
0
 62
     0
 10
19.801
 20
11.6458
 30
0.0
 11
19.0004
 21
11.6458
 31
0.0
  0
LINE
  8
0
 62
     0
 10
19.0004
 20
11.6458
 30
0.0
 11
19.0004
 21
17.446
 31
0.0
  0
LINE
  8
0
 62
     0
 10
19.0004
 20
17.446
 30
0.0
 11
19.801
 21
17.446
 31
0.0
  0
LINE
  8
0
 62
     0
 10
19.801
 20
17.446
 30
0.0
 11
19.801
 21
20.5466
 31
0.0
  0
LINE
  8
0
 62
     0
 10
19.801
 20
20.5466
 30
0.0
 11
19.0004
 21
20.5466
 31
0.0
  0
LINE
  8
0
 62
     0
 10
19.0004
 20
20.5466
 30
0.0
 11
19.0004
 21
21.5456
 31
0.0
  0
LINE
  8
0
 62
     0
 10
19.0004
 20
21.5456
 30
0.0
 11
5.00091
 21
21.5456
 31
0.0
  0
LINE
  8
0
 62
     0
 10
274.082
 20
35.833
 30
0.0
 11
274.082
 21
34.8327
 31
0.0
  0
LINE
  8
0
 62
     0
 10
274.082
 20
34.8327
 30
0.0
 11
273.281
 21
34.8327
 31
0.0
  0
LINE
  8
0
 62
     0
 10
273.281
 20
34.8327
 30
0.0
 11
273.281
 21
31.7335
 31
0.0
  0
LINE
  8
0
 62
     0
 10
273.281
 20
31.7335
 30
0.0
 11
274.082
 21
31.7335
 31
0.0
  0
LINE
  8
0
 62
     0
 10
274.082
 20
31.7335
 30
0.0
 11
274.082
 21
25.9333
 31
0.0
  0
LINE
  8
0
 62
     0
 10
274.082
 20
25.9333
 30
0.0
 11
273.281
 21
25.9333
 31
0.0
  0
LINE
  8
0
 62
     0
 10
273.281
 20
25.9333
 30
0.0
 11
273.281
 21
22.8327
 31
0.0
  0
LINE
  8
0
 62
     0
 10
273.281
 20
22.8327
 30
0.0
 11
274.082
 21
22.8327
 31
0.0
  0
LINE
  8
0
 62
     0
 10
274.082
 20
22.8327
 30
0.0
 11
274.082
 21
21.8336
 31
0.0
  0
LINE
  8
0
 62
     0
 10
274.082
 20
21.8336
 30
0.0
 11
288.082
 21
21.8336
 31
0.0
  0
LINE
  8
0
 62
     0
 10
288.082
 20
21.8336
 30
0.0
 11
288.082
 21
22.8327
 31
0.0
  0
LINE
  8
0
 62
     0
 10
288.082
 20
22.8327
 30
0.0
 11
288.881
 21
22.8327
 31
0.0
  0
LINE
  8
0
 62
     0
 10
288.881
 20
22.8327
 30
0.0
 11
288.881
 21
25.9333
 31
0.0
  0
LINE
  8
0
 62
     0
 10
288.881
 20
25.9333
 30
0.0
 11
288.082
 21
25.9333
 31
0.0
  0
LINE
  8
0
 62
     0
 10
288.082
 20
25.9333
 30
0.0
 11
288.082
 21
31.7335
 31
0.0
  0
LINE
  8
0
 62
     0
 10
288.082
 20
31.7335
 30
0.0
 11
288.881
 21
31.7335
 31
0.0
  0
LINE
  8
0
 62
     0
 10
288.881
 20
31.7335
 30
0.0
 11
288.881
 21
34.8327
 31
0.0
  0
LINE
  8
0
 62
     0
 10
288.881
 20
34.8327
 30
0.0
 11
288.082
 21
34.8327
 31
0.0
  0
LINE
  8
0
 62
     0
 10
288.082
 20
34.8327
 30
0.0
 11
288.082
 21
35.833
 31
0.0
  0
LINE
  8
0
 62
     0
 10
288.082
 20
35.833
 30
0.0
 11
274.082
 21
35.833
 31
0.0
  0
LINE
  8
0
 62
     0
 10
14.5259
 20
40.5955
 30
0.0
 11
14.5259
 21
39.5965
 31
0.0
  0
LINE
  8
0
 62
     0
 10
14.5259
 20
39.5965
 30
0.0
 11
13.7253
 21
39.5965
 31
0.0
  0
LINE
  8
0
 62
     0
 10
13.7253
 20
39.5965
 30
0.0
 11
13.7253
 21
36.4959
 31
0.0
  0
LINE
  8
0
 62
     0
 10
13.7253
 20
36.4959
 30
0.0
 11
14.5259
 21
36.4959
 31
0.0
  0
LINE
  8
0
 62
     0
 10
14.5259
 20
36.4959
 30
0.0
 11
14.5259
 21
35.8965
 31
0.0
  0
LINE
  8
0
 62
     0
 10
14.5259
 20
35.8965
 30
0.0
 11
13.0004
 21
35.8965
 31
0.0
  0
LINE
  8
0
 62
     0
 10
13.0004
 20
35.8965
 30
0.0
 11
13.0004
 21
39.1266
 31
0.0
  0
LINE
  8
0
 62
     0
 10
13.0004
 20
39.1266
 30
0.0
 11
6.2508
 21
39.1266
 31
0.0
  0
LINE
  8
0
 62
     0
 10
6.2508
 20
39.1266
 30
0.0
 11
6.2508
 21
35.8965
 31
0.0
  0
LINE
  8
0
 62
     0
 10
6.2508
 20
35.8965
 30
0.0
 11
5.42533
 21
35.8965
 31
0.0
  0
LINE
  8
0
 62
     0
 10
5.42533
 20
35.8965
 30
0.0
 11
5.42533
 21
33.0963
 31
0.0
  0
LINE
  8
0
 62
     0
 10
5.42533
 20
33.0963
 30
0.0
 11
6.2508
 21
33.0963
 31
0.0
  0
LINE
  8
0
 62
     0
 10
6.2508
 20
33.0963
 30
0.0
 11
6.2508
 21
26.8263
 31
0.0
  0
LINE
  8
0
 62
     0
 10
6.2508
 20
26.8263
 30
0.0
 11
7.97609
 21
26.8263
 31
0.0
  0
LINE
  8
0
 62
     0
 10
7.97609
 20
26.8263
 30
0.0
 11
7.97609
 21
25.626
 31
0.0
  0
LINE
  8
0
 62
     0
 10
7.97609
 20
25.626
 30
0.0
 11
11.2751
 21
25.626
 31
0.0
  0
LINE
  8
0
 62
     0
 10
11.2751
 20
25.626
 30
0.0
 11
11.2751
 21
26.8263
 31
0.0
  0
LINE
  8
0
 62
     0
 10
11.2751
 20
26.8263
 30
0.0
 11
13.0004
 21
26.8263
 31
0.0
  0
LINE
  8
0
 62
     0
 10
13.0004
 20
26.8263
 30
0.0
 11
13.0004
 21
31.2966
 31
0.0
  0
LINE
  8
0
 62
     0
 10
13.0004
 20
31.2966
 30
0.0
 11
14.5259
 21
31.2966
 31
0.0
  0
LINE
  8
0
 62
     0
 10
14.5259
 20
31.2966
 30
0.0
 11
14.5259
 21
30.6958
 31
0.0
  0
LINE
  8
0
 62
     0
 10
14.5259
 20
30.6958
 30
0.0
 11
13.7253
 21
30.6958
 31
0.0
  0
LINE
  8
0
 62
     0
 10
13.7253
 20
30.6958
 30
0.0
 11
13.7253
 21
27.5966
 31
0.0
  0
LINE
  8
0
 62
     0
 10
13.7253
 20
27.5966
 30
0.0
 11
14.5259
 21
27.5966
 31
0.0
  0
LINE
  8
0
 62
     0
 10
14.5259
 20
27.5966
 30
0.0
 11
14.5259
 21
26.5961
 31
0.0
  0
LINE
  8
0
 62
     0
 10
14.5259
 20
26.5961
 30
0.0
 11
28.5254
 21
26.5961
 31
0.0
  0
LINE
  8
0
 62
     0
 10
28.5254
 20
26.5961
 30
0.0
 11
28.5254
 21
27.5966
 31
0.0
  0
LINE
  8
0
 62
     0
 10
28.5254
 20
27.5966
 30
0.0
 11
29.326
 21
27.5966
 31
0.0
  0
LINE
  8
0
 62
     0
 10
29.326
 20
27.5966
 30
0.0
 11
29.326
 21
30.6958
 31
0.0
  0
LINE
  8
0
 62
     0
 10
29.326
 20
30.6958
 30
0.0
 11
28.5254
 21
30.6958
 31
0.0
  0
LINE
  8
0
 62
     0
 10
28.5254
 20
30.6958
 30
0.0
 11
28.5254
 21
31.2966
 31
0.0
  0
LINE
  8
0
 62
     0
 10
28.5254
 20
31.2966
 30
0.0
 11
30.0509
 21
31.2966
 31
0.0
  0
LINE
  8
0
 62
     0
 10
30.0509
 20
31.2966
 30
0.0
 11
30.0509
 21
26.8263
 31
0.0
  0
LINE
  8
0
 62
     0
 10
30.0509
 20
26.8263
 30
0.0
 11
31.7748
 21
26.8263
 31
0.0
  0
LINE
  8
0
 62
     0
 10
31.7748
 20
26.8263
 30
0.0
 11
31.7748
 21
25.626
 31
0.0
  0
LINE
  8
0
 62
     0
 10
31.7748
 20
25.626
 30
0.0
 11
35.0752
 21
25.626
 31
0.0
  0
LINE
  8
0
 62
     0
 10
35.0752
 20
25.626
 30
0.0
 11
35.0752
 21
26.8263
 31
0.0
  0
LINE
  8
0
 62
     0
 10
35.0752
 20
26.8263
 30
0.0
 11
36.8004
 21
26.8263
 31
0.0
  0
LINE
  8
0
 62
     0
 10
36.8004
 20
26.8263
 30
0.0
 11
36.8004
 21
33.0963
 31
0.0
  0
LINE
  8
0
 62
     0
 10
36.8004
 20
33.0963
 30
0.0
 11
37.6259
 21
33.0963
 31
0.0
  0
LINE
  8
0
 62
     0
 10
37.6259
 20
33.0963
 30
0.0
 11
37.6259
 21
35.8965
 31
0.0
  0
LINE
  8
0
 62
     0
 10
37.6259
 20
35.8965
 30
0.0
 11
36.8004
 21
35.8965
 31
0.0
  0
LINE
  8
0
 62
     0
 10
36.8004
 20
35.8965
 30
0.0
 11
36.8004
 21
39.1266
 31
0.0
  0
LINE
  8
0
 62
     0
 10
36.8004
 20
39.1266
 30
0.0
 11
30.0509
 21
39.1266
 31
0.0
  0
LINE
  8
0
 62
     0
 10
30.0509
 20
39.1266
 30
0.0
 11
30.0509
 21
35.8965
 31
0.0
  0
LINE
  8
0
 62
     0
 10
30.0509
 20
35.8965
 30
0.0
 11
28.5254
 21
35.8965
 31
0.0
  0
LINE
  8
0
 62
     0
 10
28.5254
 20
35.8965
 30
0.0
 11
28.5254
 21
36.4959
 31
0.0
  0
LINE
  8
0
 62
     0
 10
28.5254
 20
36.4959
 30
0.0
 11
29.326
 21
36.4959
 31
0.0
  0
LINE
  8
0
 62
     0
 10
29.326
 20
36.4959
 30
0.0
 11
29.326
 21
39.5965
 31
0.0
  0
LINE
  8
0
 62
     0
 10
29.326
 20
39.5965
 30
0.0
 11
28.5254
 21
39.5965
 31
0.0
  0
LINE
  8
0
 62
     0
 10
28.5254
 20
39.5965
 30
0.0
 11
28.5254
 21
40.5955
 31
0.0
  0
LINE
  8
0
 62
     0
 10
28.5254
 20
40.5955
 30
0.0
 11
14.5259
 21
40.5955
 31
0.0
  0
LINE
  8
0
 62
     0
 10
243.126
 20
40.5955
 30
0.0
 11
243.126
 21
39.5965
 31
0.0
  0
LINE
  8
0
 62
     0
 10
243.126
 20
39.5965
 30
0.0
 11
242.325
 21
39.5965
 31
0.0
  0
LINE
  8
0
 62
     0
 10
242.325
 20
39.5965
 30
0.0
 11
242.325
 21
36.4959
 31
0.0
  0
LINE
  8
0
 62
     0
 10
242.325
 20
36.4959
 30
0.0
 11
243.126
 21
36.4959
 31
0.0
  0
LINE
  8
0
 62
     0
 10
243.126
 20
36.4959
 30
0.0
 11
243.126
 21
30.6958
 31
0.0
  0
LINE
  8
0
 62
     0
 10
243.126
 20
30.6958
 30
0.0
 11
242.325
 21
30.6958
 31
0.0
  0
LINE
  8
0
 62
     0
 10
242.325
 20
30.6958
 30
0.0
 11
242.325
 21
27.5966
 31
0.0
  0
LINE
  8
0
 62
     0
 10
242.325
 20
27.5966
 30
0.0
 11
243.126
 21
27.5966
 31
0.0
  0
LINE
  8
0
 62
     0
 10
243.126
 20
27.5966
 30
0.0
 11
243.126
 21
26.5961
 31
0.0
  0
LINE
  8
0
 62
     0
 10
243.126
 20
26.5961
 30
0.0
 11
257.125
 21
26.5961
 31
0.0
  0
LINE
  8
0
 62
     0
 10
257.125
 20
26.5961
 30
0.0
 11
257.125
 21
27.5966
 31
0.0
  0
LINE
  8
0
 62
     0
 10
257.125
 20
27.5966
 30
0.0
 11
257.926
 21
27.5966
 31
0.0
  0
LINE
  8
0
 62
     0
 10
257.926
 20
27.5966
 30
0.0
 11
257.926
 21
30.6958
 31
0.0
  0
LINE
  8
0
 62
     0
 10
257.926
 20
30.6958
 30
0.0
 11
257.125
 21
30.6958
 31
0.0
  0
LINE
  8
0
 62
     0
 10
257.125
 20
30.6958
 30
0.0
 11
257.125
 21
36.4959
 31
0.0
  0
LINE
  8
0
 62
     0
 10
257.125
 20
36.4959
 30
0.0
 11
257.926
 21
36.4959
 31
0.0
  0
LINE
  8
0
 62
     0
 10
257.926
 20
36.4959
 30
0.0
 11
257.926
 21
39.5965
 31
0.0
  0
LINE
  8
0
 62
     0
 10
257.926
 20
39.5965
 30
0.0
 11
257.125
 21
39.5965
 31
0.0
  0
LINE
  8
0
 62
     0
 10
257.125
 20
39.5965
 30
0.0
 11
257.125
 21
40.5955
 31
0.0
  0
LINE
  8
0
 62
     0
 10
257.125
 20
40.5955
 30
0.0
 11
243.126
 21
40.5955
 31
0.0
  0
LINE
  8
0
 62
     0
 10
216.932
 20
40.5955
 30
0.0
 11
216.932
 21
39.5965
 31
0.0
  0
LINE
  8
0
 62
     0
 10
216.932
 20
39.5965
 30
0.0
 11
216.131
 21
39.5965
 31
0.0
  0
LINE
  8
0
 62
     0
 10
216.131
 20
39.5965
 30
0.0
 11
216.131
 21
36.4959
 31
0.0
  0
LINE
  8
0
 62
     0
 10
216.131
 20
36.4959
 30
0.0
 11
216.932
 21
36.4959
 31
0.0
  0
LINE
  8
0
 62
     0
 10
216.932
 20
36.4959
 30
0.0
 11
216.932
 21
30.6958
 31
0.0
  0
LINE
  8
0
 62
     0
 10
216.932
 20
30.6958
 30
0.0
 11
216.131
 21
30.6958
 31
0.0
  0
LINE
  8
0
 62
     0
 10
216.131
 20
30.6958
 30
0.0
 11
216.131
 21
27.5966
 31
0.0
  0
LINE
  8
0
 62
     0
 10
216.131
 20
27.5966
 30
0.0
 11
216.932
 21
27.5966
 31
0.0
  0
LINE
  8
0
 62
     0
 10
216.932
 20
27.5966
 30
0.0
 11
216.932
 21
26.5961
 31
0.0
  0
LINE
  8
0
 62
     0
 10
216.932
 20
26.5961
 30
0.0
 11
230.932
 21
26.5961
 31
0.0
  0
LINE
  8
0
 62
     0
 10
230.932
 20
26.5961
 30
0.0
 11
230.932
 21
27.5966
 31
0.0
  0
LINE
  8
0
 62
     0
 10
230.932
 20
27.5966
 30
0.0
 11
231.731
 21
27.5966
 31
0.0
  0
LINE
  8
0
 62
     0
 10
231.731
 20
27.5966
 30
0.0
 11
231.731
 21
30.6958
 31
0.0
  0
LINE
  8
0
 62
     0
 10
231.731
 20
30.6958
 30
0.0
 11
230.932
 21
30.6958
 31
0.0
  0
LINE
  8
0
 62
     0
 10
230.932
 20
30.6958
 30
0.0
 11
230.932
 21
36.4959
 31
0.0
  0
LINE
  8
0
 62
     0
 10
230.932
 20
36.4959
 30
0.0
 11
231.731
 21
36.4959
 31
0.0
  0
LINE
  8
0
 62
     0
 10
231.731
 20
36.4959
 30
0.0
 11
231.731
 21
39.5965
 31
0.0
  0
LINE
  8
0
 62
     0
 10
231.731
 20
39.5965
 30
0.0
 11
230.932
 21
39.5965
 31
0.0
  0
LINE
  8
0
 62
     0
 10
230.932
 20
39.5965
 30
0.0
 11
230.932
 21
40.5955
 31
0.0
  0
LINE
  8
0
 62
     0
 10
230.932
 20
40.5955
 30
0.0
 11
216.932
 21
40.5955
 31
0.0
  0
LINE
  8
0
 62
     0
 10
197.882
 20
40.5955
 30
0.0
 11
197.882
 21
39.5965
 31
0.0
  0
LINE
  8
0
 62
     0
 10
197.882
 20
39.5965
 30
0.0
 11
197.081
 21
39.5965
 31
0.0
  0
LINE
  8
0
 62
     0
 10
197.081
 20
39.5965
 30
0.0
 11
197.081
 21
36.4959
 31
0.0
  0
LINE
  8
0
 62
     0
 10
197.081
 20
36.4959
 30
0.0
 11
197.882
 21
36.4959
 31
0.0
  0
LINE
  8
0
 62
     0
 10
197.882
 20
36.4959
 30
0.0
 11
197.882
 21
30.6958
 31
0.0
  0
LINE
  8
0
 62
     0
 10
197.882
 20
30.6958
 30
0.0
 11
197.081
 21
30.6958
 31
0.0
  0
LINE
  8
0
 62
     0
 10
197.081
 20
30.6958
 30
0.0
 11
197.081
 21
27.5966
 31
0.0
  0
LINE
  8
0
 62
     0
 10
197.081
 20
27.5966
 30
0.0
 11
197.882
 21
27.5966
 31
0.0
  0
LINE
  8
0
 62
     0
 10
197.882
 20
27.5966
 30
0.0
 11
197.882
 21
26.5961
 31
0.0
  0
LINE
  8
0
 62
     0
 10
197.882
 20
26.5961
 30
0.0
 11
211.882
 21
26.5961
 31
0.0
  0
LINE
  8
0
 62
     0
 10
211.882
 20
26.5961
 30
0.0
 11
211.882
 21
27.5966
 31
0.0
  0
LINE
  8
0
 62
     0
 10
211.882
 20
27.5966
 30
0.0
 11
212.681
 21
27.5966
 31
0.0
  0
LINE
  8
0
 62
     0
 10
212.681
 20
27.5966
 30
0.0
 11
212.681
 21
30.6958
 31
0.0
  0
LINE
  8
0
 62
     0
 10
212.681
 20
30.6958
 30
0.0
 11
211.882
 21
30.6958
 31
0.0
  0
LINE
  8
0
 62
     0
 10
211.882
 20
30.6958
 30
0.0
 11
211.882
 21
36.4959
 31
0.0
  0
LINE
  8
0
 62
     0
 10
211.882
 20
36.4959
 30
0.0
 11
212.681
 21
36.4959
 31
0.0
  0
LINE
  8
0
 62
     0
 10
212.681
 20
36.4959
 30
0.0
 11
212.681
 21
39.5965
 31
0.0
  0
LINE
  8
0
 62
     0
 10
212.681
 20
39.5965
 30
0.0
 11
211.882
 21
39.5965
 31
0.0
  0
LINE
  8
0
 62
     0
 10
211.882
 20
39.5965
 30
0.0
 11
211.882
 21
40.5955
 31
0.0
  0
LINE
  8
0
 62
     0
 10
211.882
 20
40.5955
 30
0.0
 11
197.882
 21
40.5955
 31
0.0
  0
LINE
  8
0
 62
     0
 10
178.832
 20
40.5955
 30
0.0
 11
178.832
 21
39.5965
 31
0.0
  0
LINE
  8
0
 62
     0
 10
178.832
 20
39.5965
 30
0.0
 11
178.031
 21
39.5965
 31
0.0
  0
LINE
  8
0
 62
     0
 10
178.031
 20
39.5965
 30
0.0
 11
178.031
 21
36.4959
 31
0.0
  0
LINE
  8
0
 62
     0
 10
178.031
 20
36.4959
 30
0.0
 11
178.832
 21
36.4959
 31
0.0
  0
LINE
  8
0
 62
     0
 10
178.832
 20
36.4959
 30
0.0
 11
178.832
 21
30.6958
 31
0.0
  0
LINE
  8
0
 62
     0
 10
178.832
 20
30.6958
 30
0.0
 11
178.031
 21
30.6958
 31
0.0
  0
LINE
  8
0
 62
     0
 10
178.031
 20
30.6958
 30
0.0
 11
178.031
 21
27.5966
 31
0.0
  0
LINE
  8
0
 62
     0
 10
178.031
 20
27.5966
 30
0.0
 11
178.832
 21
27.5966
 31
0.0
  0
LINE
  8
0
 62
     0
 10
178.832
 20
27.5966
 30
0.0
 11
178.832
 21
26.5961
 31
0.0
  0
LINE
  8
0
 62
     0
 10
178.832
 20
26.5961
 30
0.0
 11
192.832
 21
26.5961
 31
0.0
  0
LINE
  8
0
 62
     0
 10
192.832
 20
26.5961
 30
0.0
 11
192.832
 21
27.5966
 31
0.0
  0
LINE
  8
0
 62
     0
 10
192.832
 20
27.5966
 30
0.0
 11
193.631
 21
27.5966
 31
0.0
  0
LINE
  8
0
 62
     0
 10
193.631
 20
27.5966
 30
0.0
 11
193.631
 21
30.6958
 31
0.0
  0
LINE
  8
0
 62
     0
 10
193.631
 20
30.6958
 30
0.0
 11
192.832
 21
30.6958
 31
0.0
  0
LINE
  8
0
 62
     0
 10
192.832
 20
30.6958
 30
0.0
 11
192.832
 21
36.4959
 31
0.0
  0
LINE
  8
0
 62
     0
 10
192.832
 20
36.4959
 30
0.0
 11
193.631
 21
36.4959
 31
0.0
  0
LINE
  8
0
 62
     0
 10
193.631
 20
36.4959
 30
0.0
 11
193.631
 21
39.5965
 31
0.0
  0
LINE
  8
0
 62
     0
 10
193.631
 20
39.5965
 30
0.0
 11
192.832
 21
39.5965
 31
0.0
  0
LINE
  8
0
 62
     0
 10
192.832
 20
39.5965
 30
0.0
 11
192.832
 21
40.5955
 31
0.0
  0
LINE
  8
0
 62
     0
 10
192.832
 20
40.5955
 30
0.0
 11
178.832
 21
40.5955
 31
0.0
  0
LINE
  8
0
 62
     0
 10
159.782
 20
40.5955
 30
0.0
 11
159.782
 21
39.5965
 31
0.0
  0
LINE
  8
0
 62
     0
 10
159.782
 20
39.5965
 30
0.0
 11
158.981
 21
39.5965
 31
0.0
  0
LINE
  8
0
 62
     0
 10
158.981
 20
39.5965
 30
0.0
 11
158.981
 21
36.4959
 31
0.0
  0
LINE
  8
0
 62
     0
 10
158.981
 20
36.4959
 30
0.0
 11
159.782
 21
36.4959
 31
0.0
  0
LINE
  8
0
 62
     0
 10
159.782
 20
36.4959
 30
0.0
 11
159.782
 21
30.6958
 31
0.0
  0
LINE
  8
0
 62
     0
 10
159.782
 20
30.6958
 30
0.0
 11
158.981
 21
30.6958
 31
0.0
  0
LINE
  8
0
 62
     0
 10
158.981
 20
30.6958
 30
0.0
 11
158.981
 21
27.5966
 31
0.0
  0
LINE
  8
0
 62
     0
 10
158.981
 20
27.5966
 30
0.0
 11
159.782
 21
27.5966
 31
0.0
  0
LINE
  8
0
 62
     0
 10
159.782
 20
27.5966
 30
0.0
 11
159.782
 21
26.5961
 31
0.0
  0
LINE
  8
0
 62
     0
 10
159.782
 20
26.5961
 30
0.0
 11
173.782
 21
26.5961
 31
0.0
  0
LINE
  8
0
 62
     0
 10
173.782
 20
26.5961
 30
0.0
 11
173.782
 21
27.5966
 31
0.0
  0
LINE
  8
0
 62
     0
 10
173.782
 20
27.5966
 30
0.0
 11
174.581
 21
27.5966
 31
0.0
  0
LINE
  8
0
 62
     0
 10
174.581
 20
27.5966
 30
0.0
 11
174.581
 21
30.6958
 31
0.0
  0
LINE
  8
0
 62
     0
 10
174.581
 20
30.6958
 30
0.0
 11
173.782
 21
30.6958
 31
0.0
  0
LINE
  8
0
 62
     0
 10
173.782
 20
30.6958
 30
0.0
 11
173.782
 21
36.4959
 31
0.0
  0
LINE
  8
0
 62
     0
 10
173.782
 20
36.4959
 30
0.0
 11
174.581
 21
36.4959
 31
0.0
  0
LINE
  8
0
 62
     0
 10
174.581
 20
36.4959
 30
0.0
 11
174.581
 21
39.5965
 31
0.0
  0
LINE
  8
0
 62
     0
 10
174.581
 20
39.5965
 30
0.0
 11
173.782
 21
39.5965
 31
0.0
  0
LINE
  8
0
 62
     0
 10
173.782
 20
39.5965
 30
0.0
 11
173.782
 21
40.5955
 31
0.0
  0
LINE
  8
0
 62
     0
 10
173.782
 20
40.5955
 30
0.0
 11
159.782
 21
40.5955
 31
0.0
  0
LINE
  8
0
 62
     0
 10
140.732
 20
40.5955
 30
0.0
 11
140.732
 21
39.5965
 31
0.0
  0
LINE
  8
0
 62
     0
 10
140.732
 20
39.5965
 30
0.0
 11
139.931
 21
39.5965
 31
0.0
  0
LINE
  8
0
 62
     0
 10
139.931
 20
39.5965
 30
0.0
 11
139.931
 21
36.4959
 31
0.0
  0
LINE
  8
0
 62
     0
 10
139.931
 20
36.4959
 30
0.0
 11
140.732
 21
36.4959
 31
0.0
  0
LINE
  8
0
 62
     0
 10
140.732
 20
36.4959
 30
0.0
 11
140.732
 21
30.6958
 31
0.0
  0
LINE
  8
0
 62
     0
 10
140.732
 20
30.6958
 30
0.0
 11
139.931
 21
30.6958
 31
0.0
  0
LINE
  8
0
 62
     0
 10
139.931
 20
30.6958
 30
0.0
 11
139.931
 21
27.5966
 31
0.0
  0
LINE
  8
0
 62
     0
 10
139.931
 20
27.5966
 30
0.0
 11
140.732
 21
27.5966
 31
0.0
  0
LINE
  8
0
 62
     0
 10
140.732
 20
27.5966
 30
0.0
 11
140.732
 21
26.5961
 31
0.0
  0
LINE
  8
0
 62
     0
 10
140.732
 20
26.5961
 30
0.0
 11
154.732
 21
26.5961
 31
0.0
  0
LINE
  8
0
 62
     0
 10
154.732
 20
26.5961
 30
0.0
 11
154.732
 21
27.5966
 31
0.0
  0
LINE
  8
0
 62
     0
 10
154.732
 20
27.5966
 30
0.0
 11
155.531
 21
27.5966
 31
0.0
  0
LINE
  8
0
 62
     0
 10
155.531
 20
27.5966
 30
0.0
 11
155.531
 21
30.6958
 31
0.0
  0
LINE
  8
0
 62
     0
 10
155.531
 20
30.6958
 30
0.0
 11
154.732
 21
30.6958
 31
0.0
  0
LINE
  8
0
 62
     0
 10
154.732
 20
30.6958
 30
0.0
 11
154.732
 21
36.4959
 31
0.0
  0
LINE
  8
0
 62
     0
 10
154.732
 20
36.4959
 30
0.0
 11
155.531
 21
36.4959
 31
0.0
  0
LINE
  8
0
 62
     0
 10
155.531
 20
36.4959
 30
0.0
 11
155.531
 21
39.5965
 31
0.0
  0
LINE
  8
0
 62
     0
 10
155.531
 20
39.5965
 30
0.0
 11
154.732
 21
39.5965
 31
0.0
  0
LINE
  8
0
 62
     0
 10
154.732
 20
39.5965
 30
0.0
 11
154.732
 21
40.5955
 31
0.0
  0
LINE
  8
0
 62
     0
 10
154.732
 20
40.5955
 30
0.0
 11
140.732
 21
40.5955
 31
0.0
  0
LINE
  8
0
 62
     0
 10
121.682
 20
40.5955
 30
0.0
 11
121.682
 21
39.5965
 31
0.0
  0
LINE
  8
0
 62
     0
 10
121.682
 20
39.5965
 30
0.0
 11
120.881
 21
39.5965
 31
0.0
  0
LINE
  8
0
 62
     0
 10
120.881
 20
39.5965
 30
0.0
 11
120.881
 21
36.4959
 31
0.0
  0
LINE
  8
0
 62
     0
 10
120.881
 20
36.4959
 30
0.0
 11
121.682
 21
36.4959
 31
0.0
  0
LINE
  8
0
 62
     0
 10
121.682
 20
36.4959
 30
0.0
 11
121.682
 21
30.6958
 31
0.0
  0
LINE
  8
0
 62
     0
 10
121.682
 20
30.6958
 30
0.0
 11
120.881
 21
30.6958
 31
0.0
  0
LINE
  8
0
 62
     0
 10
120.881
 20
30.6958
 30
0.0
 11
120.881
 21
27.5966
 31
0.0
  0
LINE
  8
0
 62
     0
 10
120.881
 20
27.5966
 30
0.0
 11
121.682
 21
27.5966
 31
0.0
  0
LINE
  8
0
 62
     0
 10
121.682
 20
27.5966
 30
0.0
 11
121.682
 21
26.5961
 31
0.0
  0
LINE
  8
0
 62
     0
 10
121.682
 20
26.5961
 30
0.0
 11
135.682
 21
26.5961
 31
0.0
  0
LINE
  8
0
 62
     0
 10
135.682
 20
26.5961
 30
0.0
 11
135.682
 21
27.5966
 31
0.0
  0
LINE
  8
0
 62
     0
 10
135.682
 20
27.5966
 30
0.0
 11
136.481
 21
27.5966
 31
0.0
  0
LINE
  8
0
 62
     0
 10
136.481
 20
27.5966
 30
0.0
 11
136.481
 21
30.6958
 31
0.0
  0
LINE
  8
0
 62
     0
 10
136.481
 20
30.6958
 30
0.0
 11
135.682
 21
30.6958
 31
0.0
  0
LINE
  8
0
 62
     0
 10
135.682
 20
30.6958
 30
0.0
 11
135.682
 21
36.4959
 31
0.0
  0
LINE
  8
0
 62
     0
 10
135.682
 20
36.4959
 30
0.0
 11
136.481
 21
36.4959
 31
0.0
  0
LINE
  8
0
 62
     0
 10
136.481
 20
36.4959
 30
0.0
 11
136.481
 21
39.5965
 31
0.0
  0
LINE
  8
0
 62
     0
 10
136.481
 20
39.5965
 30
0.0
 11
135.682
 21
39.5965
 31
0.0
  0
LINE
  8
0
 62
     0
 10
135.682
 20
39.5965
 30
0.0
 11
135.682
 21
40.5955
 31
0.0
  0
LINE
  8
0
 62
     0
 10
135.682
 20
40.5955
 30
0.0
 11
121.682
 21
40.5955
 31
0.0
  0
LINE
  8
0
 62
     0
 10
102.632
 20
40.5955
 30
0.0
 11
102.632
 21
39.5965
 31
0.0
  0
LINE
  8
0
 62
     0
 10
102.632
 20
39.5965
 30
0.0
 11
101.831
 21
39.5965
 31
0.0
  0
LINE
  8
0
 62
     0
 10
101.831
 20
39.5965
 30
0.0
 11
101.831
 21
36.4959
 31
0.0
  0
LINE
  8
0
 62
     0
 10
101.831
 20
36.4959
 30
0.0
 11
102.632
 21
36.4959
 31
0.0
  0
LINE
  8
0
 62
     0
 10
102.632
 20
36.4959
 30
0.0
 11
102.632
 21
30.6958
 31
0.0
  0
LINE
  8
0
 62
     0
 10
102.632
 20
30.6958
 30
0.0
 11
101.831
 21
30.6958
 31
0.0
  0
LINE
  8
0
 62
     0
 10
101.831
 20
30.6958
 30
0.0
 11
101.831
 21
27.5966
 31
0.0
  0
LINE
  8
0
 62
     0
 10
101.831
 20
27.5966
 30
0.0
 11
102.632
 21
27.5966
 31
0.0
  0
LINE
  8
0
 62
     0
 10
102.632
 20
27.5966
 30
0.0
 11
102.632
 21
26.5961
 31
0.0
  0
LINE
  8
0
 62
     0
 10
102.632
 20
26.5961
 30
0.0
 11
116.632
 21
26.5961
 31
0.0
  0
LINE
  8
0
 62
     0
 10
116.632
 20
26.5961
 30
0.0
 11
116.632
 21
27.5966
 31
0.0
  0
LINE
  8
0
 62
     0
 10
116.632
 20
27.5966
 30
0.0
 11
117.431
 21
27.5966
 31
0.0
  0
LINE
  8
0
 62
     0
 10
117.431
 20
27.5966
 30
0.0
 11
117.431
 21
30.6958
 31
0.0
  0
LINE
  8
0
 62
     0
 10
117.431
 20
30.6958
 30
0.0
 11
116.632
 21
30.6958
 31
0.0
  0
LINE
  8
0
 62
     0
 10
116.632
 20
30.6958
 30
0.0
 11
116.632
 21
36.4959
 31
0.0
  0
LINE
  8
0
 62
     0
 10
116.632
 20
36.4959
 30
0.0
 11
117.431
 21
36.4959
 31
0.0
  0
LINE
  8
0
 62
     0
 10
117.431
 20
36.4959
 30
0.0
 11
117.431
 21
39.5965
 31
0.0
  0
LINE
  8
0
 62
     0
 10
117.431
 20
39.5965
 30
0.0
 11
116.632
 21
39.5965
 31
0.0
  0
LINE
  8
0
 62
     0
 10
116.632
 20
39.5965
 30
0.0
 11
116.632
 21
40.5955
 31
0.0
  0
LINE
  8
0
 62
     0
 10
116.632
 20
40.5955
 30
0.0
 11
102.632
 21
40.5955
 31
0.0
  0
LINE
  8
0
 62
     0
 10
83.5822
 20
40.5955
 30
0.0
 11
83.5822
 21
39.5965
 31
0.0
  0
LINE
  8
0
 62
     0
 10
83.5822
 20
39.5965
 30
0.0
 11
82.7814
 21
39.5965
 31
0.0
  0
LINE
  8
0
 62
     0
 10
82.7814
 20
39.5965
 30
0.0
 11
82.7814
 21
36.4959
 31
0.0
  0
LINE
  8
0
 62
     0
 10
82.7814
 20
36.4959
 30
0.0
 11
83.5822
 21
36.4959
 31
0.0
  0
LINE
  8
0
 62
     0
 10
83.5822
 20
36.4959
 30
0.0
 11
83.5822
 21
30.6958
 31
0.0
  0
LINE
  8
0
 62
     0
 10
83.5822
 20
30.6958
 30
0.0
 11
82.7814
 21
30.6958
 31
0.0
  0
LINE
  8
0
 62
     0
 10
82.7814
 20
30.6958
 30
0.0
 11
82.7814
 21
27.5966
 31
0.0
  0
LINE
  8
0
 62
     0
 10
82.7814
 20
27.5966
 30
0.0
 11
83.5822
 21
27.5966
 31
0.0
  0
LINE
  8
0
 62
     0
 10
83.5822
 20
27.5966
 30
0.0
 11
83.5822
 21
26.5961
 31
0.0
  0
LINE
  8
0
 62
     0
 10
83.5822
 20
26.5961
 30
0.0
 11
97.5815
 21
26.5961
 31
0.0
  0
LINE
  8
0
 62
     0
 10
97.5815
 20
26.5961
 30
0.0
 11
97.5815
 21
27.5966
 31
0.0
  0
LINE
  8
0
 62
     0
 10
97.5815
 20
27.5966
 30
0.0
 11
98.3809
 21
27.5966
 31
0.0
  0
LINE
  8
0
 62
     0
 10
98.3809
 20
27.5966
 30
0.0
 11
98.3809
 21
30.6958
 31
0.0
  0
LINE
  8
0
 62
     0
 10
98.3809
 20
30.6958
 30
0.0
 11
97.5815
 21
30.6958
 31
0.0
  0
LINE
  8
0
 62
     0
 10
97.5815
 20
30.6958
 30
0.0
 11
97.5815
 21
36.4959
 31
0.0
  0
LINE
  8
0
 62
     0
 10
97.5815
 20
36.4959
 30
0.0
 11
98.3809
 21
36.4959
 31
0.0
  0
LINE
  8
0
 62
     0
 10
98.3809
 20
36.4959
 30
0.0
 11
98.3809
 21
39.5965
 31
0.0
  0
LINE
  8
0
 62
     0
 10
98.3809
 20
39.5965
 30
0.0
 11
97.5815
 21
39.5965
 31
0.0
  0
LINE
  8
0
 62
     0
 10
97.5815
 20
39.5965
 30
0.0
 11
97.5815
 21
40.5955
 31
0.0
  0
LINE
  8
0
 62
     0
 10
97.5815
 20
40.5955
 30
0.0
 11
83.5822
 21
40.5955
 31
0.0
  0
LINE
  8
0
 62
     0
 10
64.5322
 20
40.5955
 30
0.0
 11
64.5322
 21
39.5965
 31
0.0
  0
LINE
  8
0
 62
     0
 10
64.5322
 20
39.5965
 30
0.0
 11
63.7314
 21
39.5965
 31
0.0
  0
LINE
  8
0
 62
     0
 10
63.7314
 20
39.5965
 30
0.0
 11
63.7314
 21
36.4959
 31
0.0
  0
LINE
  8
0
 62
     0
 10
63.7314
 20
36.4959
 30
0.0
 11
64.5322
 21
36.4959
 31
0.0
  0
LINE
  8
0
 62
     0
 10
64.5322
 20
36.4959
 30
0.0
 11
64.5322
 21
30.6958
 31
0.0
  0
LINE
  8
0
 62
     0
 10
64.5322
 20
30.6958
 30
0.0
 11
63.7314
 21
30.6958
 31
0.0
  0
LINE
  8
0
 62
     0
 10
63.7314
 20
30.6958
 30
0.0
 11
63.7314
 21
27.5966
 31
0.0
  0
LINE
  8
0
 62
     0
 10
63.7314
 20
27.5966
 30
0.0
 11
64.5322
 21
27.5966
 31
0.0
  0
LINE
  8
0
 62
     0
 10
64.5322
 20
27.5966
 30
0.0
 11
64.5322
 21
26.5961
 31
0.0
  0
LINE
  8
0
 62
     0
 10
64.5322
 20
26.5961
 30
0.0
 11
78.5315
 21
26.5961
 31
0.0
  0
LINE
  8
0
 62
     0
 10
78.5315
 20
26.5961
 30
0.0
 11
78.5315
 21
27.5966
 31
0.0
  0
LINE
  8
0
 62
     0
 10
78.5315
 20
27.5966
 30
0.0
 11
79.3309
 21
27.5966
 31
0.0
  0
LINE
  8
0
 62
     0
 10
79.3309
 20
27.5966
 30
0.0
 11
79.3309
 21
30.6958
 31
0.0
  0
LINE
  8
0
 62
     0
 10
79.3309
 20
30.6958
 30
0.0
 11
78.5315
 21
30.6958
 31
0.0
  0
LINE
  8
0
 62
     0
 10
78.5315
 20
30.6958
 30
0.0
 11
78.5315
 21
36.4959
 31
0.0
  0
LINE
  8
0
 62
     0
 10
78.5315
 20
36.4959
 30
0.0
 11
79.3309
 21
36.4959
 31
0.0
  0
LINE
  8
0
 62
     0
 10
79.3309
 20
36.4959
 30
0.0
 11
79.3309
 21
39.5965
 31
0.0
  0
LINE
  8
0
 62
     0
 10
79.3309
 20
39.5965
 30
0.0
 11
78.5315
 21
39.5965
 31
0.0
  0
LINE
  8
0
 62
     0
 10
78.5315
 20
39.5965
 30
0.0
 11
78.5315
 21
40.5955
 31
0.0
  0
LINE
  8
0
 62
     0
 10
78.5315
 20
40.5955
 30
0.0
 11
64.5322
 21
40.5955
 31
0.0
  0
LINE
  8
0
 62
     0
 10
45.4822
 20
40.5955
 30
0.0
 11
45.4822
 21
39.5965
 31
0.0
  0
LINE
  8
0
 62
     0
 10
45.4822
 20
39.5965
 30
0.0
 11
44.6814
 21
39.5965
 31
0.0
  0
LINE
  8
0
 62
     0
 10
44.6814
 20
39.5965
 30
0.0
 11
44.6814
 21
36.4959
 31
0.0
  0
LINE
  8
0
 62
     0
 10
44.6814
 20
36.4959
 30
0.0
 11
45.4822
 21
36.4959
 31
0.0
  0
LINE
  8
0
 62
     0
 10
45.4822
 20
36.4959
 30
0.0
 11
45.4822
 21
30.6958
 31
0.0
  0
LINE
  8
0
 62
     0
 10
45.4822
 20
30.6958
 30
0.0
 11
44.6814
 21
30.6958
 31
0.0
  0
LINE
  8
0
 62
     0
 10
44.6814
 20
30.6958
 30
0.0
 11
44.6814
 21
27.5966
 31
0.0
  0
LINE
  8
0
 62
     0
 10
44.6814
 20
27.5966
 30
0.0
 11
45.4822
 21
27.5966
 31
0.0
  0
LINE
  8
0
 62
     0
 10
45.4822
 20
27.5966
 30
0.0
 11
45.4822
 21
26.5961
 31
0.0
  0
LINE
  8
0
 62
     0
 10
45.4822
 20
26.5961
 30
0.0
 11
59.4815
 21
26.5961
 31
0.0
  0
LINE
  8
0
 62
     0
 10
59.4815
 20
26.5961
 30
0.0
 11
59.4815
 21
27.5966
 31
0.0
  0
LINE
  8
0
 62
     0
 10
59.4815
 20
27.5966
 30
0.0
 11
60.2809
 21
27.5966
 31
0.0
  0
LINE
  8
0
 62
     0
 10
60.2809
 20
27.5966
 30
0.0
 11
60.2809
 21
30.6958
 31
0.0
  0
LINE
  8
0
 62
     0
 10
60.2809
 20
30.6958
 30
0.0
 11
59.4815
 21
30.6958
 31
0.0
  0
LINE
  8
0
 62
     0
 10
59.4815
 20
30.6958
 30
0.0
 11
59.4815
 21
36.4959
 31
0.0
  0
LINE
  8
0
 62
     0
 10
59.4815
 20
36.4959
 30
0.0
 11
60.2809
 21
36.4959
 31
0.0
  0
LINE
  8
0
 62
     0
 10
60.2809
 20
36.4959
 30
0.0
 11
60.2809
 21
39.5965
 31
0.0
  0
LINE
  8
0
 62
     0
 10
60.2809
 20
39.5965
 30
0.0
 11
59.4815
 21
39.5965
 31
0.0
  0
LINE
  8
0
 62
     0
 10
59.4815
 20
39.5965
 30
0.0
 11
59.4815
 21
40.5955
 31
0.0
  0
LINE
  8
0
 62
     0
 10
59.4815
 20
40.5955
 30
0.0
 11
45.4822
 21
40.5955
 31
0.0
  0
LINE
  8
0
 62
     0
 10
257.412
 20
59.6456
 30
0.0
 11
257.412
 21
58.6465
 31
0.0
  0
LINE
  8
0
 62
     0
 10
257.412
 20
58.6465
 30
0.0
 11
256.611
 21
58.6465
 31
0.0
  0
LINE
  8
0
 62
     0
 10
256.611
 20
58.6465
 30
0.0
 11
256.611
 21
55.5459
 31
0.0
  0
LINE
  8
0
 62
     0
 10
256.611
 20
55.5459
 30
0.0
 11
257.412
 21
55.5459
 31
0.0
  0
LINE
  8
0
 62
     0
 10
257.412
 20
55.5459
 30
0.0
 11
257.412
 21
54.9465
 31
0.0
  0
LINE
  8
0
 62
     0
 10
257.412
 20
54.9465
 30
0.0
 11
255.888
 21
54.9465
 31
0.0
  0
LINE
  8
0
 62
     0
 10
255.888
 20
54.9465
 30
0.0
 11
255.888
 21
58.1766
 31
0.0
  0
LINE
  8
0
 62
     0
 10
255.888
 20
58.1766
 30
0.0
 11
249.137
 21
58.1766
 31
0.0
  0
LINE
  8
0
 62
     0
 10
249.137
 20
58.1766
 30
0.0
 11
249.137
 21
54.9465
 31
0.0
  0
LINE
  8
0
 62
     0
 10
249.137
 20
54.9465
 30
0.0
 11
248.313
 21
54.9465
 31
0.0
  0
LINE
  8
0
 62
     0
 10
248.313
 20
54.9465
 30
0.0
 11
248.313
 21
52.1462
 31
0.0
  0
LINE
  8
0
 62
     0
 10
248.313
 20
52.1462
 30
0.0
 11
249.137
 21
52.1462
 31
0.0
  0
LINE
  8
0
 62
     0
 10
249.137
 20
52.1462
 30
0.0
 11
249.137
 21
45.8763
 31
0.0
  0
LINE
  8
0
 62
     0
 10
249.137
 20
45.8763
 30
0.0
 11
250.862
 21
45.8763
 31
0.0
  0
LINE
  8
0
 62
     0
 10
250.862
 20
45.8763
 30
0.0
 11
250.862
 21
44.6761
 31
0.0
  0
LINE
  8
0
 62
     0
 10
250.862
 20
44.6761
 30
0.0
 11
254.161
 21
44.6761
 31
0.0
  0
LINE
  8
0
 62
     0
 10
254.161
 20
44.6761
 30
0.0
 11
254.161
 21
45.8763
 31
0.0
  0
LINE
  8
0
 62
     0
 10
254.161
 20
45.8763
 30
0.0
 11
255.888
 21
45.8763
 31
0.0
  0
LINE
  8
0
 62
     0
 10
255.888
 20
45.8763
 30
0.0
 11
255.888
 21
50.3467
 31
0.0
  0
LINE
  8
0
 62
     0
 10
255.888
 20
50.3467
 30
0.0
 11
257.412
 21
50.3467
 31
0.0
  0
LINE
  8
0
 62
     0
 10
257.412
 20
50.3467
 30
0.0
 11
257.412
 21
49.7459
 31
0.0
  0
LINE
  8
0
 62
     0
 10
257.412
 20
49.7459
 30
0.0
 11
256.611
 21
49.7459
 31
0.0
  0
LINE
  8
0
 62
     0
 10
256.611
 20
49.7459
 30
0.0
 11
256.611
 21
46.6467
 31
0.0
  0
LINE
  8
0
 62
     0
 10
256.611
 20
46.6467
 30
0.0
 11
257.412
 21
46.6467
 31
0.0
  0
LINE
  8
0
 62
     0
 10
257.412
 20
46.6467
 30
0.0
 11
257.412
 21
45.6463
 31
0.0
  0
LINE
  8
0
 62
     0
 10
257.412
 20
45.6463
 30
0.0
 11
271.413
 21
45.6463
 31
0.0
  0
LINE
  8
0
 62
     0
 10
271.413
 20
45.6463
 30
0.0
 11
271.413
 21
46.6467
 31
0.0
  0
LINE
  8
0
 62
     0
 10
271.413
 20
46.6467
 30
0.0
 11
272.212
 21
46.6467
 31
0.0
  0
LINE
  8
0
 62
     0
 10
272.212
 20
46.6467
 30
0.0
 11
272.212
 21
49.7459
 31
0.0
  0
LINE
  8
0
 62
     0
 10
272.212
 20
49.7459
 30
0.0
 11
271.413
 21
49.7459
 31
0.0
  0
LINE
  8
0
 62
     0
 10
271.413
 20
49.7459
 30
0.0
 11
271.413
 21
50.3467
 31
0.0
  0
LINE
  8
0
 62
     0
 10
271.413
 20
50.3467
 30
0.0
 11
272.937
 21
50.3467
 31
0.0
  0
LINE
  8
0
 62
     0
 10
272.937
 20
50.3467
 30
0.0
 11
272.937
 21
45.8763
 31
0.0
  0
LINE
  8
0
 62
     0
 10
272.937
 20
45.8763
 30
0.0
 11
274.662
 21
45.8763
 31
0.0
  0
LINE
  8
0
 62
     0
 10
274.662
 20
45.8763
 30
0.0
 11
274.662
 21
44.6761
 31
0.0
  0
LINE
  8
0
 62
     0
 10
274.662
 20
44.6761
 30
0.0
 11
277.963
 21
44.6761
 31
0.0
  0
LINE
  8
0
 62
     0
 10
277.963
 20
44.6761
 30
0.0
 11
277.963
 21
45.8763
 31
0.0
  0
LINE
  8
0
 62
     0
 10
277.963
 20
45.8763
 30
0.0
 11
279.688
 21
45.8763
 31
0.0
  0
LINE
  8
0
 62
     0
 10
279.688
 20
45.8763
 30
0.0
 11
279.688
 21
52.1462
 31
0.0
  0
LINE
  8
0
 62
     0
 10
279.688
 20
52.1462
 30
0.0
 11
280.512
 21
52.1462
 31
0.0
  0
LINE
  8
0
 62
     0
 10
280.512
 20
52.1462
 30
0.0
 11
280.512
 21
54.9465
 31
0.0
  0
LINE
  8
0
 62
     0
 10
280.512
 20
54.9465
 30
0.0
 11
279.688
 21
54.9465
 31
0.0
  0
LINE
  8
0
 62
     0
 10
279.688
 20
54.9465
 30
0.0
 11
279.688
 21
58.1766
 31
0.0
  0
LINE
  8
0
 62
     0
 10
279.688
 20
58.1766
 30
0.0
 11
272.937
 21
58.1766
 31
0.0
  0
LINE
  8
0
 62
     0
 10
272.937
 20
58.1766
 30
0.0
 11
272.937
 21
54.9465
 31
0.0
  0
LINE
  8
0
 62
     0
 10
272.937
 20
54.9465
 30
0.0
 11
271.413
 21
54.9465
 31
0.0
  0
LINE
  8
0
 62
     0
 10
271.413
 20
54.9465
 30
0.0
 11
271.413
 21
55.5459
 31
0.0
  0
LINE
  8
0
 62
     0
 10
271.413
 20
55.5459
 30
0.0
 11
272.212
 21
55.5459
 31
0.0
  0
LINE
  8
0
 62
     0
 10
272.212
 20
55.5459
 30
0.0
 11
272.212
 21
58.6465
 31
0.0
  0
LINE
  8
0
 62
     0
 10
272.212
 20
58.6465
 30
0.0
 11
271.413
 21
58.6465
 31
0.0
  0
LINE
  8
0
 62
     0
 10
271.413
 20
58.6465
 30
0.0
 11
271.413
 21
59.6456
 31
0.0
  0
LINE
  8
0
 62
     0
 10
271.413
 20
59.6456
 30
0.0
 11
257.412
 21
59.6456
 31
0.0
  0
LINE
  8
0
 62
     0
 10
293.132
 20
59.6456
 30
0.0
 11
293.132
 21
58.6465
 31
0.0
  0
LINE
  8
0
 62
     0
 10
293.132
 20
58.6465
 30
0.0
 11
292.331
 21
58.6465
 31
0.0
  0
LINE
  8
0
 62
     0
 10
292.331
 20
58.6465
 30
0.0
 11
292.331
 21
55.5459
 31
0.0
  0
LINE
  8
0
 62
     0
 10
292.331
 20
55.5459
 30
0.0
 11
293.132
 21
55.5459
 31
0.0
  0
LINE
  8
0
 62
     0
 10
293.132
 20
55.5459
 30
0.0
 11
293.132
 21
49.7459
 31
0.0
  0
LINE
  8
0
 62
     0
 10
293.132
 20
49.7459
 30
0.0
 11
292.331
 21
49.7459
 31
0.0
  0
LINE
  8
0
 62
     0
 10
292.331
 20
49.7459
 30
0.0
 11
292.331
 21
46.6467
 31
0.0
  0
LINE
  8
0
 62
     0
 10
292.331
 20
46.6467
 30
0.0
 11
293.132
 21
46.6467
 31
0.0
  0
LINE
  8
0
 62
     0
 10
293.132
 20
46.6467
 30
0.0
 11
293.132
 21
45.6463
 31
0.0
  0
LINE
  8
0
 62
     0
 10
293.132
 20
45.6463
 30
0.0
 11
307.132
 21
45.6463
 31
0.0
  0
LINE
  8
0
 62
     0
 10
307.132
 20
45.6463
 30
0.0
 11
307.132
 21
46.6467
 31
0.0
  0
LINE
  8
0
 62
     0
 10
307.132
 20
46.6467
 30
0.0
 11
307.931
 21
46.6467
 31
0.0
  0
LINE
  8
0
 62
     0
 10
307.931
 20
46.6467
 30
0.0
 11
307.931
 21
49.7459
 31
0.0
  0
LINE
  8
0
 62
     0
 10
307.931
 20
49.7459
 30
0.0
 11
307.132
 21
49.7459
 31
0.0
  0
LINE
  8
0
 62
     0
 10
307.132
 20
49.7459
 30
0.0
 11
307.132
 21
55.5459
 31
0.0
  0
LINE
  8
0
 62
     0
 10
307.132
 20
55.5459
 30
0.0
 11
307.931
 21
55.5459
 31
0.0
  0
LINE
  8
0
 62
     0
 10
307.931
 20
55.5459
 30
0.0
 11
307.931
 21
58.6465
 31
0.0
  0
LINE
  8
0
 62
     0
 10
307.931
 20
58.6465
 30
0.0
 11
307.132
 21
58.6465
 31
0.0
  0
LINE
  8
0
 62
     0
 10
307.132
 20
58.6465
 30
0.0
 11
307.132
 21
59.6456
 31
0.0
  0
LINE
  8
0
 62
     0
 10
307.132
 20
59.6456
 30
0.0
 11
293.132
 21
59.6456
 31
0.0
  0
LINE
  8
0
 62
     0
 10
226.457
 20
59.6456
 30
0.0
 11
226.457
 21
58.6465
 31
0.0
  0
LINE
  8
0
 62
     0
 10
226.457
 20
58.6465
 30
0.0
 11
225.656
 21
58.6465
 31
0.0
  0
LINE
  8
0
 62
     0
 10
225.656
 20
58.6465
 30
0.0
 11
225.656
 21
55.5459
 31
0.0
  0
LINE
  8
0
 62
     0
 10
225.656
 20
55.5459
 30
0.0
 11
226.457
 21
55.5459
 31
0.0
  0
LINE
  8
0
 62
     0
 10
226.457
 20
55.5459
 30
0.0
 11
226.457
 21
49.7459
 31
0.0
  0
LINE
  8
0
 62
     0
 10
226.457
 20
49.7459
 30
0.0
 11
225.656
 21
49.7459
 31
0.0
  0
LINE
  8
0
 62
     0
 10
225.656
 20
49.7459
 30
0.0
 11
225.656
 21
46.6467
 31
0.0
  0
LINE
  8
0
 62
     0
 10
225.656
 20
46.6467
 30
0.0
 11
226.457
 21
46.6467
 31
0.0
  0
LINE
  8
0
 62
     0
 10
226.457
 20
46.6467
 30
0.0
 11
226.457
 21
45.6463
 31
0.0
  0
LINE
  8
0
 62
     0
 10
226.457
 20
45.6463
 30
0.0
 11
240.457
 21
45.6463
 31
0.0
  0
LINE
  8
0
 62
     0
 10
240.457
 20
45.6463
 30
0.0
 11
240.457
 21
46.6467
 31
0.0
  0
LINE
  8
0
 62
     0
 10
240.457
 20
46.6467
 30
0.0
 11
241.256
 21
46.6467
 31
0.0
  0
LINE
  8
0
 62
     0
 10
241.256
 20
46.6467
 30
0.0
 11
241.256
 21
49.7459
 31
0.0
  0
LINE
  8
0
 62
     0
 10
241.256
 20
49.7459
 30
0.0
 11
240.457
 21
49.7459
 31
0.0
  0
LINE
  8
0
 62
     0
 10
240.457
 20
49.7459
 30
0.0
 11
240.457
 21
55.5459
 31
0.0
  0
LINE
  8
0
 62
     0
 10
240.457
 20
55.5459
 30
0.0
 11
241.256
 21
55.5459
 31
0.0
  0
LINE
  8
0
 62
     0
 10
241.256
 20
55.5459
 30
0.0
 11
241.256
 21
58.6465
 31
0.0
  0
LINE
  8
0
 62
     0
 10
241.256
 20
58.6465
 30
0.0
 11
240.457
 21
58.6465
 31
0.0
  0
LINE
  8
0
 62
     0
 10
240.457
 20
58.6465
 30
0.0
 11
240.457
 21
59.6456
 31
0.0
  0
LINE
  8
0
 62
     0
 10
240.457
 20
59.6456
 30
0.0
 11
226.457
 21
59.6456
 31
0.0
  0
LINE
  8
0
 62
     0
 10
207.407
 20
59.6456
 30
0.0
 11
207.407
 21
58.6465
 31
0.0
  0
LINE
  8
0
 62
     0
 10
207.407
 20
58.6465
 30
0.0
 11
206.606
 21
58.6465
 31
0.0
  0
LINE
  8
0
 62
     0
 10
206.606
 20
58.6465
 30
0.0
 11
206.606
 21
55.5459
 31
0.0
  0
LINE
  8
0
 62
     0
 10
206.606
 20
55.5459
 30
0.0
 11
207.407
 21
55.5459
 31
0.0
  0
LINE
  8
0
 62
     0
 10
207.407
 20
55.5459
 30
0.0
 11
207.407
 21
49.7459
 31
0.0
  0
LINE
  8
0
 62
     0
 10
207.407
 20
49.7459
 30
0.0
 11
206.606
 21
49.7459
 31
0.0
  0
LINE
  8
0
 62
     0
 10
206.606
 20
49.7459
 30
0.0
 11
206.606
 21
46.6467
 31
0.0
  0
LINE
  8
0
 62
     0
 10
206.606
 20
46.6467
 30
0.0
 11
207.407
 21
46.6467
 31
0.0
  0
LINE
  8
0
 62
     0
 10
207.407
 20
46.6467
 30
0.0
 11
207.407
 21
45.6463
 31
0.0
  0
LINE
  8
0
 62
     0
 10
207.407
 20
45.6463
 30
0.0
 11
221.407
 21
45.6463
 31
0.0
  0
LINE
  8
0
 62
     0
 10
221.407
 20
45.6463
 30
0.0
 11
221.407
 21
46.6467
 31
0.0
  0
LINE
  8
0
 62
     0
 10
221.407
 20
46.6467
 30
0.0
 11
222.206
 21
46.6467
 31
0.0
  0
LINE
  8
0
 62
     0
 10
222.206
 20
46.6467
 30
0.0
 11
222.206
 21
49.7459
 31
0.0
  0
LINE
  8
0
 62
     0
 10
222.206
 20
49.7459
 30
0.0
 11
221.407
 21
49.7459
 31
0.0
  0
LINE
  8
0
 62
     0
 10
221.407
 20
49.7459
 30
0.0
 11
221.407
 21
55.5459
 31
0.0
  0
LINE
  8
0
 62
     0
 10
221.407
 20
55.5459
 30
0.0
 11
222.206
 21
55.5459
 31
0.0
  0
LINE
  8
0
 62
     0
 10
222.206
 20
55.5459
 30
0.0
 11
222.206
 21
58.6465
 31
0.0
  0
LINE
  8
0
 62
     0
 10
222.206
 20
58.6465
 30
0.0
 11
221.407
 21
58.6465
 31
0.0
  0
LINE
  8
0
 62
     0
 10
221.407
 20
58.6465
 30
0.0
 11
221.407
 21
59.6456
 31
0.0
  0
LINE
  8
0
 62
     0
 10
221.407
 20
59.6456
 30
0.0
 11
207.407
 21
59.6456
 31
0.0
  0
LINE
  8
0
 62
     0
 10
188.357
 20
59.6456
 30
0.0
 11
188.357
 21
58.6465
 31
0.0
  0
LINE
  8
0
 62
     0
 10
188.357
 20
58.6465
 30
0.0
 11
187.556
 21
58.6465
 31
0.0
  0
LINE
  8
0
 62
     0
 10
187.556
 20
58.6465
 30
0.0
 11
187.556
 21
55.5459
 31
0.0
  0
LINE
  8
0
 62
     0
 10
187.556
 20
55.5459
 30
0.0
 11
188.357
 21
55.5459
 31
0.0
  0
LINE
  8
0
 62
     0
 10
188.357
 20
55.5459
 30
0.0
 11
188.357
 21
49.7459
 31
0.0
  0
LINE
  8
0
 62
     0
 10
188.357
 20
49.7459
 30
0.0
 11
187.556
 21
49.7459
 31
0.0
  0
LINE
  8
0
 62
     0
 10
187.556
 20
49.7459
 30
0.0
 11
187.556
 21
46.6467
 31
0.0
  0
LINE
  8
0
 62
     0
 10
187.556
 20
46.6467
 30
0.0
 11
188.357
 21
46.6467
 31
0.0
  0
LINE
  8
0
 62
     0
 10
188.357
 20
46.6467
 30
0.0
 11
188.357
 21
45.6463
 31
0.0
  0
LINE
  8
0
 62
     0
 10
188.357
 20
45.6463
 30
0.0
 11
202.357
 21
45.6463
 31
0.0
  0
LINE
  8
0
 62
     0
 10
202.357
 20
45.6463
 30
0.0
 11
202.357
 21
46.6467
 31
0.0
  0
LINE
  8
0
 62
     0
 10
202.357
 20
46.6467
 30
0.0
 11
203.156
 21
46.6467
 31
0.0
  0
LINE
  8
0
 62
     0
 10
203.156
 20
46.6467
 30
0.0
 11
203.156
 21
49.7459
 31
0.0
  0
LINE
  8
0
 62
     0
 10
203.156
 20
49.7459
 30
0.0
 11
202.357
 21
49.7459
 31
0.0
  0
LINE
  8
0
 62
     0
 10
202.357
 20
49.7459
 30
0.0
 11
202.357
 21
55.5459
 31
0.0
  0
LINE
  8
0
 62
     0
 10
202.357
 20
55.5459
 30
0.0
 11
203.156
 21
55.5459
 31
0.0
  0
LINE
  8
0
 62
     0
 10
203.156
 20
55.5459
 30
0.0
 11
203.156
 21
58.6465
 31
0.0
  0
LINE
  8
0
 62
     0
 10
203.156
 20
58.6465
 30
0.0
 11
202.357
 21
58.6465
 31
0.0
  0
LINE
  8
0
 62
     0
 10
202.357
 20
58.6465
 30
0.0
 11
202.357
 21
59.6456
 31
0.0
  0
LINE
  8
0
 62
     0
 10
202.357
 20
59.6456
 30
0.0
 11
188.357
 21
59.6456
 31
0.0
  0
LINE
  8
0
 62
     0
 10
169.307
 20
59.6456
 30
0.0
 11
169.307
 21
58.6465
 31
0.0
  0
LINE
  8
0
 62
     0
 10
169.307
 20
58.6465
 30
0.0
 11
168.506
 21
58.6465
 31
0.0
  0
LINE
  8
0
 62
     0
 10
168.506
 20
58.6465
 30
0.0
 11
168.506
 21
55.5459
 31
0.0
  0
LINE
  8
0
 62
     0
 10
168.506
 20
55.5459
 30
0.0
 11
169.307
 21
55.5459
 31
0.0
  0
LINE
  8
0
 62
     0
 10
169.307
 20
55.5459
 30
0.0
 11
169.307
 21
49.7459
 31
0.0
  0
LINE
  8
0
 62
     0
 10
169.307
 20
49.7459
 30
0.0
 11
168.506
 21
49.7459
 31
0.0
  0
LINE
  8
0
 62
     0
 10
168.506
 20
49.7459
 30
0.0
 11
168.506
 21
46.6467
 31
0.0
  0
LINE
  8
0
 62
     0
 10
168.506
 20
46.6467
 30
0.0
 11
169.307
 21
46.6467
 31
0.0
  0
LINE
  8
0
 62
     0
 10
169.307
 20
46.6467
 30
0.0
 11
169.307
 21
45.6463
 31
0.0
  0
LINE
  8
0
 62
     0
 10
169.307
 20
45.6463
 30
0.0
 11
183.307
 21
45.6463
 31
0.0
  0
LINE
  8
0
 62
     0
 10
183.307
 20
45.6463
 30
0.0
 11
183.307
 21
46.6467
 31
0.0
  0
LINE
  8
0
 62
     0
 10
183.307
 20
46.6467
 30
0.0
 11
184.106
 21
46.6467
 31
0.0
  0
LINE
  8
0
 62
     0
 10
184.106
 20
46.6467
 30
0.0
 11
184.106
 21
49.7459
 31
0.0
  0
LINE
  8
0
 62
     0
 10
184.106
 20
49.7459
 30
0.0
 11
183.307
 21
49.7459
 31
0.0
  0
LINE
  8
0
 62
     0
 10
183.307
 20
49.7459
 30
0.0
 11
183.307
 21
55.5459
 31
0.0
  0
LINE
  8
0
 62
     0
 10
183.307
 20
55.5459
 30
0.0
 11
184.106
 21
55.5459
 31
0.0
  0
LINE
  8
0
 62
     0
 10
184.106
 20
55.5459
 30
0.0
 11
184.106
 21
58.6465
 31
0.0
  0
LINE
  8
0
 62
     0
 10
184.106
 20
58.6465
 30
0.0
 11
183.307
 21
58.6465
 31
0.0
  0
LINE
  8
0
 62
     0
 10
183.307
 20
58.6465
 30
0.0
 11
183.307
 21
59.6456
 31
0.0
  0
LINE
  8
0
 62
     0
 10
183.307
 20
59.6456
 30
0.0
 11
169.307
 21
59.6456
 31
0.0
  0
LINE
  8
0
 62
     0
 10
150.257
 20
59.6456
 30
0.0
 11
150.257
 21
58.6465
 31
0.0
  0
LINE
  8
0
 62
     0
 10
150.257
 20
58.6465
 30
0.0
 11
149.456
 21
58.6465
 31
0.0
  0
LINE
  8
0
 62
     0
 10
149.456
 20
58.6465
 30
0.0
 11
149.456
 21
55.5459
 31
0.0
  0
LINE
  8
0
 62
     0
 10
149.456
 20
55.5459
 30
0.0
 11
150.257
 21
55.5459
 31
0.0
  0
LINE
  8
0
 62
     0
 10
150.257
 20
55.5459
 30
0.0
 11
150.257
 21
49.7459
 31
0.0
  0
LINE
  8
0
 62
     0
 10
150.257
 20
49.7459
 30
0.0
 11
149.456
 21
49.7459
 31
0.0
  0
LINE
  8
0
 62
     0
 10
149.456
 20
49.7459
 30
0.0
 11
149.456
 21
46.6467
 31
0.0
  0
LINE
  8
0
 62
     0
 10
149.456
 20
46.6467
 30
0.0
 11
150.257
 21
46.6467
 31
0.0
  0
LINE
  8
0
 62
     0
 10
150.257
 20
46.6467
 30
0.0
 11
150.257
 21
45.6463
 31
0.0
  0
LINE
  8
0
 62
     0
 10
150.257
 20
45.6463
 30
0.0
 11
164.257
 21
45.6463
 31
0.0
  0
LINE
  8
0
 62
     0
 10
164.257
 20
45.6463
 30
0.0
 11
164.257
 21
46.6467
 31
0.0
  0
LINE
  8
0
 62
     0
 10
164.257
 20
46.6467
 30
0.0
 11
165.056
 21
46.6467
 31
0.0
  0
LINE
  8
0
 62
     0
 10
165.056
 20
46.6467
 30
0.0
 11
165.056
 21
49.7459
 31
0.0
  0
LINE
  8
0
 62
     0
 10
165.056
 20
49.7459
 30
0.0
 11
164.257
 21
49.7459
 31
0.0
  0
LINE
  8
0
 62
     0
 10
164.257
 20
49.7459
 30
0.0
 11
164.257
 21
55.5459
 31
0.0
  0
LINE
  8
0
 62
     0
 10
164.257
 20
55.5459
 30
0.0
 11
165.056
 21
55.5459
 31
0.0
  0
LINE
  8
0
 62
     0
 10
165.056
 20
55.5459
 30
0.0
 11
165.056
 21
58.6465
 31
0.0
  0
LINE
  8
0
 62
     0
 10
165.056
 20
58.6465
 30
0.0
 11
164.257
 21
58.6465
 31
0.0
  0
LINE
  8
0
 62
     0
 10
164.257
 20
58.6465
 30
0.0
 11
164.257
 21
59.6456
 31
0.0
  0
LINE
  8
0
 62
     0
 10
164.257
 20
59.6456
 30
0.0
 11
150.257
 21
59.6456
 31
0.0
  0
LINE
  8
0
 62
     0
 10
131.207
 20
59.6456
 30
0.0
 11
131.207
 21
58.6465
 31
0.0
  0
LINE
  8
0
 62
     0
 10
131.207
 20
58.6465
 30
0.0
 11
130.406
 21
58.6465
 31
0.0
  0
LINE
  8
0
 62
     0
 10
130.406
 20
58.6465
 30
0.0
 11
130.406
 21
55.5459
 31
0.0
  0
LINE
  8
0
 62
     0
 10
130.406
 20
55.5459
 30
0.0
 11
131.207
 21
55.5459
 31
0.0
  0
LINE
  8
0
 62
     0
 10
131.207
 20
55.5459
 30
0.0
 11
131.207
 21
49.7459
 31
0.0
  0
LINE
  8
0
 62
     0
 10
131.207
 20
49.7459
 30
0.0
 11
130.406
 21
49.7459
 31
0.0
  0
LINE
  8
0
 62
     0
 10
130.406
 20
49.7459
 30
0.0
 11
130.406
 21
46.6467
 31
0.0
  0
LINE
  8
0
 62
     0
 10
130.406
 20
46.6467
 30
0.0
 11
131.207
 21
46.6467
 31
0.0
  0
LINE
  8
0
 62
     0
 10
131.207
 20
46.6467
 30
0.0
 11
131.207
 21
45.6463
 31
0.0
  0
LINE
  8
0
 62
     0
 10
131.207
 20
45.6463
 30
0.0
 11
145.207
 21
45.6463
 31
0.0
  0
LINE
  8
0
 62
     0
 10
145.207
 20
45.6463
 30
0.0
 11
145.207
 21
46.6467
 31
0.0
  0
LINE
  8
0
 62
     0
 10
145.207
 20
46.6467
 30
0.0
 11
146.006
 21
46.6467
 31
0.0
  0
LINE
  8
0
 62
     0
 10
146.006
 20
46.6467
 30
0.0
 11
146.006
 21
49.7459
 31
0.0
  0
LINE
  8
0
 62
     0
 10
146.006
 20
49.7459
 30
0.0
 11
145.207
 21
49.7459
 31
0.0
  0
LINE
  8
0
 62
     0
 10
145.207
 20
49.7459
 30
0.0
 11
145.207
 21
55.5459
 31
0.0
  0
LINE
  8
0
 62
     0
 10
145.207
 20
55.5459
 30
0.0
 11
146.006
 21
55.5459
 31
0.0
  0
LINE
  8
0
 62
     0
 10
146.006
 20
55.5459
 30
0.0
 11
146.006
 21
58.6465
 31
0.0
  0
LINE
  8
0
 62
     0
 10
146.006
 20
58.6465
 30
0.0
 11
145.207
 21
58.6465
 31
0.0
  0
LINE
  8
0
 62
     0
 10
145.207
 20
58.6465
 30
0.0
 11
145.207
 21
59.6456
 31
0.0
  0
LINE
  8
0
 62
     0
 10
145.207
 20
59.6456
 30
0.0
 11
131.207
 21
59.6456
 31
0.0
  0
LINE
  8
0
 62
     0
 10
112.157
 20
59.6456
 30
0.0
 11
112.157
 21
58.6465
 31
0.0
  0
LINE
  8
0
 62
     0
 10
112.157
 20
58.6465
 30
0.0
 11
111.356
 21
58.6465
 31
0.0
  0
LINE
  8
0
 62
     0
 10
111.356
 20
58.6465
 30
0.0
 11
111.356
 21
55.5459
 31
0.0
  0
LINE
  8
0
 62
     0
 10
111.356
 20
55.5459
 30
0.0
 11
112.157
 21
55.5459
 31
0.0
  0
LINE
  8
0
 62
     0
 10
112.157
 20
55.5459
 30
0.0
 11
112.157
 21
49.7459
 31
0.0
  0
LINE
  8
0
 62
     0
 10
112.157
 20
49.7459
 30
0.0
 11
111.356
 21
49.7459
 31
0.0
  0
LINE
  8
0
 62
     0
 10
111.356
 20
49.7459
 30
0.0
 11
111.356
 21
46.6467
 31
0.0
  0
LINE
  8
0
 62
     0
 10
111.356
 20
46.6467
 30
0.0
 11
112.157
 21
46.6467
 31
0.0
  0
LINE
  8
0
 62
     0
 10
112.157
 20
46.6467
 30
0.0
 11
112.157
 21
45.6463
 31
0.0
  0
LINE
  8
0
 62
     0
 10
112.157
 20
45.6463
 30
0.0
 11
126.157
 21
45.6463
 31
0.0
  0
LINE
  8
0
 62
     0
 10
126.157
 20
45.6463
 30
0.0
 11
126.157
 21
46.6467
 31
0.0
  0
LINE
  8
0
 62
     0
 10
126.157
 20
46.6467
 30
0.0
 11
126.956
 21
46.6467
 31
0.0
  0
LINE
  8
0
 62
     0
 10
126.956
 20
46.6467
 30
0.0
 11
126.956
 21
49.7459
 31
0.0
  0
LINE
  8
0
 62
     0
 10
126.956
 20
49.7459
 30
0.0
 11
126.157
 21
49.7459
 31
0.0
  0
LINE
  8
0
 62
     0
 10
126.157
 20
49.7459
 30
0.0
 11
126.157
 21
55.5459
 31
0.0
  0
LINE
  8
0
 62
     0
 10
126.157
 20
55.5459
 30
0.0
 11
126.956
 21
55.5459
 31
0.0
  0
LINE
  8
0
 62
     0
 10
126.956
 20
55.5459
 30
0.0
 11
126.956
 21
58.6465
 31
0.0
  0
LINE
  8
0
 62
     0
 10
126.956
 20
58.6465
 30
0.0
 11
126.157
 21
58.6465
 31
0.0
  0
LINE
  8
0
 62
     0
 10
126.157
 20
58.6465
 30
0.0
 11
126.157
 21
59.6456
 31
0.0
  0
LINE
  8
0
 62
     0
 10
126.157
 20
59.6456
 30
0.0
 11
112.157
 21
59.6456
 31
0.0
  0
LINE
  8
0
 62
     0
 10
93.1072
 20
59.6456
 30
0.0
 11
93.1072
 21
58.6465
 31
0.0
  0
LINE
  8
0
 62
     0
 10
93.1072
 20
58.6465
 30
0.0
 11
92.3064
 21
58.6465
 31
0.0
  0
LINE
  8
0
 62
     0
 10
92.3064
 20
58.6465
 30
0.0
 11
92.3064
 21
55.5459
 31
0.0
  0
LINE
  8
0
 62
     0
 10
92.3064
 20
55.5459
 30
0.0
 11
93.1072
 21
55.5459
 31
0.0
  0
LINE
  8
0
 62
     0
 10
93.1072
 20
55.5459
 30
0.0
 11
93.1072
 21
49.7459
 31
0.0
  0
LINE
  8
0
 62
     0
 10
93.1072
 20
49.7459
 30
0.0
 11
92.3064
 21
49.7459
 31
0.0
  0
LINE
  8
0
 62
     0
 10
92.3064
 20
49.7459
 30
0.0
 11
92.3064
 21
46.6467
 31
0.0
  0
LINE
  8
0
 62
     0
 10
92.3064
 20
46.6467
 30
0.0
 11
93.1072
 21
46.6467
 31
0.0
  0
LINE
  8
0
 62
     0
 10
93.1072
 20
46.6467
 30
0.0
 11
93.1072
 21
45.6463
 31
0.0
  0
LINE
  8
0
 62
     0
 10
93.1072
 20
45.6463
 30
0.0
 11
107.107
 21
45.6463
 31
0.0
  0
LINE
  8
0
 62
     0
 10
107.107
 20
45.6463
 30
0.0
 11
107.107
 21
46.6467
 31
0.0
  0
LINE
  8
0
 62
     0
 10
107.107
 20
46.6467
 30
0.0
 11
107.906
 21
46.6467
 31
0.0
  0
LINE
  8
0
 62
     0
 10
107.906
 20
46.6467
 30
0.0
 11
107.906
 21
49.7459
 31
0.0
  0
LINE
  8
0
 62
     0
 10
107.906
 20
49.7459
 30
0.0
 11
107.107
 21
49.7459
 31
0.0
  0
LINE
  8
0
 62
     0
 10
107.107
 20
49.7459
 30
0.0
 11
107.107
 21
55.5459
 31
0.0
  0
LINE
  8
0
 62
     0
 10
107.107
 20
55.5459
 30
0.0
 11
107.906
 21
55.5459
 31
0.0
  0
LINE
  8
0
 62
     0
 10
107.906
 20
55.5459
 30
0.0
 11
107.906
 21
58.6465
 31
0.0
  0
LINE
  8
0
 62
     0
 10
107.906
 20
58.6465
 30
0.0
 11
107.107
 21
58.6465
 31
0.0
  0
LINE
  8
0
 62
     0
 10
107.107
 20
58.6465
 30
0.0
 11
107.107
 21
59.6456
 31
0.0
  0
LINE
  8
0
 62
     0
 10
107.107
 20
59.6456
 30
0.0
 11
93.1072
 21
59.6456
 31
0.0
  0
LINE
  8
0
 62
     0
 10
74.0572
 20
59.6456
 30
0.0
 11
74.0572
 21
58.6465
 31
0.0
  0
LINE
  8
0
 62
     0
 10
74.0572
 20
58.6465
 30
0.0
 11
73.2564
 21
58.6465
 31
0.0
  0
LINE
  8
0
 62
     0
 10
73.2564
 20
58.6465
 30
0.0
 11
73.2564
 21
55.5459
 31
0.0
  0
LINE
  8
0
 62
     0
 10
73.2564
 20
55.5459
 30
0.0
 11
74.0572
 21
55.5459
 31
0.0
  0
LINE
  8
0
 62
     0
 10
74.0572
 20
55.5459
 30
0.0
 11
74.0572
 21
49.7459
 31
0.0
  0
LINE
  8
0
 62
     0
 10
74.0572
 20
49.7459
 30
0.0
 11
73.2564
 21
49.7459
 31
0.0
  0
LINE
  8
0
 62
     0
 10
73.2564
 20
49.7459
 30
0.0
 11
73.2564
 21
46.6467
 31
0.0
  0
LINE
  8
0
 62
     0
 10
73.2564
 20
46.6467
 30
0.0
 11
74.0572
 21
46.6467
 31
0.0
  0
LINE
  8
0
 62
     0
 10
74.0572
 20
46.6467
 30
0.0
 11
74.0572
 21
45.6463
 31
0.0
  0
LINE
  8
0
 62
     0
 10
74.0572
 20
45.6463
 30
0.0
 11
88.0565
 21
45.6463
 31
0.0
  0
LINE
  8
0
 62
     0
 10
88.0565
 20
45.6463
 30
0.0
 11
88.0565
 21
46.6467
 31
0.0
  0
LINE
  8
0
 62
     0
 10
88.0565
 20
46.6467
 30
0.0
 11
88.8559
 21
46.6467
 31
0.0
  0
LINE
  8
0
 62
     0
 10
88.8559
 20
46.6467
 30
0.0
 11
88.8559
 21
49.7459
 31
0.0
  0
LINE
  8
0
 62
     0
 10
88.8559
 20
49.7459
 30
0.0
 11
88.0565
 21
49.7459
 31
0.0
  0
LINE
  8
0
 62
     0
 10
88.0565
 20
49.7459
 30
0.0
 11
88.0565
 21
55.5459
 31
0.0
  0
LINE
  8
0
 62
     0
 10
88.0565
 20
55.5459
 30
0.0
 11
88.8559
 21
55.5459
 31
0.0
  0
LINE
  8
0
 62
     0
 10
88.8559
 20
55.5459
 30
0.0
 11
88.8559
 21
58.6465
 31
0.0
  0
LINE
  8
0
 62
     0
 10
88.8559
 20
58.6465
 30
0.0
 11
88.0565
 21
58.6465
 31
0.0
  0
LINE
  8
0
 62
     0
 10
88.0565
 20
58.6465
 30
0.0
 11
88.0565
 21
59.6456
 31
0.0
  0
LINE
  8
0
 62
     0
 10
88.0565
 20
59.6456
 30
0.0
 11
74.0572
 21
59.6456
 31
0.0
  0
LINE
  8
0
 62
     0
 10
55.0072
 20
59.6456
 30
0.0
 11
55.0072
 21
58.6465
 31
0.0
  0
LINE
  8
0
 62
     0
 10
55.0072
 20
58.6465
 30
0.0
 11
54.2064
 21
58.6465
 31
0.0
  0
LINE
  8
0
 62
     0
 10
54.2064
 20
58.6465
 30
0.0
 11
54.2064
 21
55.5459
 31
0.0
  0
LINE
  8
0
 62
     0
 10
54.2064
 20
55.5459
 30
0.0
 11
55.0072
 21
55.5459
 31
0.0
  0
LINE
  8
0
 62
     0
 10
55.0072
 20
55.5459
 30
0.0
 11
55.0072
 21
49.7459
 31
0.0
  0
LINE
  8
0
 62
     0
 10
55.0072
 20
49.7459
 30
0.0
 11
54.2064
 21
49.7459
 31
0.0
  0
LINE
  8
0
 62
     0
 10
54.2064
 20
49.7459
 30
0.0
 11
54.2064
 21
46.6467
 31
0.0
  0
LINE
  8
0
 62
     0
 10
54.2064
 20
46.6467
 30
0.0
 11
55.0072
 21
46.6467
 31
0.0
  0
LINE
  8
0
 62
     0
 10
55.0072
 20
46.6467
 30
0.0
 11
55.0072
 21
45.6463
 31
0.0
  0
LINE
  8
0
 62
     0
 10
55.0072
 20
45.6463
 30
0.0
 11
69.0065
 21
45.6463
 31
0.0
  0
LINE
  8
0
 62
     0
 10
69.0065
 20
45.6463
 30
0.0
 11
69.0065
 21
46.6467
 31
0.0
  0
LINE
  8
0
 62
     0
 10
69.0065
 20
46.6467
 30
0.0
 11
69.8059
 21
46.6467
 31
0.0
  0
LINE
  8
0
 62
     0
 10
69.8059
 20
46.6467
 30
0.0
 11
69.8059
 21
49.7459
 31
0.0
  0
LINE
  8
0
 62
     0
 10
69.8059
 20
49.7459
 30
0.0
 11
69.0065
 21
49.7459
 31
0.0
  0
LINE
  8
0
 62
     0
 10
69.0065
 20
49.7459
 30
0.0
 11
69.0065
 21
55.5459
 31
0.0
  0
LINE
  8
0
 62
     0
 10
69.0065
 20
55.5459
 30
0.0
 11
69.8059
 21
55.5459
 31
0.0
  0
LINE
  8
0
 62
     0
 10
69.8059
 20
55.5459
 30
0.0
 11
69.8059
 21
58.6465
 31
0.0
  0
LINE
  8
0
 62
     0
 10
69.8059
 20
58.6465
 30
0.0
 11
69.0065
 21
58.6465
 31
0.0
  0
LINE
  8
0
 62
     0
 10
69.0065
 20
58.6465
 30
0.0
 11
69.0065
 21
59.6456
 31
0.0
  0
LINE
  8
0
 62
     0
 10
69.0065
 20
59.6456
 30
0.0
 11
55.0072
 21
59.6456
 31
0.0
  0
LINE
  8
0
 62
     0
 10
35.9572
 20
59.6456
 30
0.0
 11
35.9572
 21
58.6465
 31
0.0
  0
LINE
  8
0
 62
     0
 10
35.9572
 20
58.6465
 30
0.0
 11
35.1565
 21
58.6465
 31
0.0
  0
LINE
  8
0
 62
     0
 10
35.1565
 20
58.6465
 30
0.0
 11
35.1565
 21
55.5459
 31
0.0
  0
LINE
  8
0
 62
     0
 10
35.1565
 20
55.5459
 30
0.0
 11
35.9572
 21
55.5459
 31
0.0
  0
LINE
  8
0
 62
     0
 10
35.9572
 20
55.5459
 30
0.0
 11
35.9572
 21
49.7459
 31
0.0
  0
LINE
  8
0
 62
     0
 10
35.9572
 20
49.7459
 30
0.0
 11
35.1565
 21
49.7459
 31
0.0
  0
LINE
  8
0
 62
     0
 10
35.1565
 20
49.7459
 30
0.0
 11
35.1565
 21
46.6467
 31
0.0
  0
LINE
  8
0
 62
     0
 10
35.1565
 20
46.6467
 30
0.0
 11
35.9572
 21
46.6467
 31
0.0
  0
LINE
  8
0
 62
     0
 10
35.9572
 20
46.6467
 30
0.0
 11
35.9572
 21
45.6463
 31
0.0
  0
LINE
  8
0
 62
     0
 10
35.9572
 20
45.6463
 30
0.0
 11
49.9565
 21
45.6463
 31
0.0
  0
LINE
  8
0
 62
     0
 10
49.9565
 20
45.6463
 30
0.0
 11
49.9565
 21
46.6467
 31
0.0
  0
LINE
  8
0
 62
     0
 10
49.9565
 20
46.6467
 30
0.0
 11
50.7559
 21
46.6467
 31
0.0
  0
LINE
  8
0
 62
     0
 10
50.7559
 20
46.6467
 30
0.0
 11
50.7559
 21
49.7459
 31
0.0
  0
LINE
  8
0
 62
     0
 10
50.7559
 20
49.7459
 30
0.0
 11
49.9565
 21
49.7459
 31
0.0
  0
LINE
  8
0
 62
     0
 10
49.9565
 20
49.7459
 30
0.0
 11
49.9565
 21
55.5459
 31
0.0
  0
LINE
  8
0
 62
     0
 10
49.9565
 20
55.5459
 30
0.0
 11
50.7559
 21
55.5459
 31
0.0
  0
LINE
  8
0
 62
     0
 10
50.7559
 20
55.5459
 30
0.0
 11
50.7559
 21
58.6465
 31
0.0
  0
LINE
  8
0
 62
     0
 10
50.7559
 20
58.6465
 30
0.0
 11
49.9565
 21
58.6465
 31
0.0
  0
LINE
  8
0
 62
     0
 10
49.9565
 20
58.6465
 30
0.0
 11
49.9565
 21
59.6456
 31
0.0
  0
LINE
  8
0
 62
     0
 10
49.9565
 20
59.6456
 30
0.0
 11
35.9572
 21
59.6456
 31
0.0
  0
LINE
  8
0
 62
     0
 10
9.76203
 20
59.6456
 30
0.0
 11
9.76203
 21
58.6465
 31
0.0
  0
LINE
  8
0
 62
     0
 10
9.76203
 20
58.6465
 30
0.0
 11
8.96278
 21
58.6465
 31
0.0
  0
LINE
  8
0
 62
     0
 10
8.96278
 20
58.6465
 30
0.0
 11
8.96278
 21
55.5459
 31
0.0
  0
LINE
  8
0
 62
     0
 10
8.96278
 20
55.5459
 30
0.0
 11
9.76203
 21
55.5459
 31
0.0
  0
LINE
  8
0
 62
     0
 10
9.76203
 20
55.5459
 30
0.0
 11
9.76203
 21
49.7459
 31
0.0
  0
LINE
  8
0
 62
     0
 10
9.76203
 20
49.7459
 30
0.0
 11
8.96278
 21
49.7459
 31
0.0
  0
LINE
  8
0
 62
     0
 10
8.96278
 20
49.7459
 30
0.0
 11
8.96278
 21
46.6467
 31
0.0
  0
LINE
  8
0
 62
     0
 10
8.96278
 20
46.6467
 30
0.0
 11
9.76203
 21
46.6467
 31
0.0
  0
LINE
  8
0
 62
     0
 10
9.76203
 20
46.6467
 30
0.0
 11
9.76203
 21
45.6463
 31
0.0
  0
LINE
  8
0
 62
     0
 10
9.76203
 20
45.6463
 30
0.0
 11
23.7629
 21
45.6463
 31
0.0
  0
LINE
  8
0
 62
     0
 10
23.7629
 20
45.6463
 30
0.0
 11
23.7629
 21
46.6467
 31
0.0
  0
LINE
  8
0
 62
     0
 10
23.7629
 20
46.6467
 30
0.0
 11
24.5622
 21
46.6467
 31
0.0
  0
LINE
  8
0
 62
     0
 10
24.5622
 20
46.6467
 30
0.0
 11
24.5622
 21
49.7459
 31
0.0
  0
LINE
  8
0
 62
     0
 10
24.5622
 20
49.7459
 30
0.0
 11
23.7629
 21
49.7459
 31
0.0
  0
LINE
  8
0
 62
     0
 10
23.7629
 20
49.7459
 30
0.0
 11
23.7629
 21
55.5459
 31
0.0
  0
LINE
  8
0
 62
     0
 10
23.7629
 20
55.5459
 30
0.0
 11
24.5622
 21
55.5459
 31
0.0
  0
LINE
  8
0
 62
     0
 10
24.5622
 20
55.5459
 30
0.0
 11
24.5622
 21
58.6465
 31
0.0
  0
LINE
  8
0
 62
     0
 10
24.5622
 20
58.6465
 30
0.0
 11
23.7629
 21
58.6465
 31
0.0
  0
LINE
  8
0
 62
     0
 10
23.7629
 20
58.6465
 30
0.0
 11
23.7629
 21
59.6456
 31
0.0
  0
LINE
  8
0
 62
     0
 10
23.7629
 20
59.6456
 30
0.0
 11
9.76203
 21
59.6456
 31
0.0
  0
LINE
  8
0
 62
     0
 10
293.132
 20
78.6956
 30
0.0
 11
293.132
 21
77.6965
 31
0.0
  0
LINE
  8
0
 62
     0
 10
293.132
 20
77.6965
 30
0.0
 11
292.331
 21
77.6965
 31
0.0
  0
LINE
  8
0
 62
     0
 10
292.331
 20
77.6965
 30
0.0
 11
292.331
 21
74.5959
 31
0.0
  0
LINE
  8
0
 62
     0
 10
292.331
 20
74.5959
 30
0.0
 11
293.132
 21
74.5959
 31
0.0
  0
LINE
  8
0
 62
     0
 10
293.132
 20
74.5959
 30
0.0
 11
293.132
 21
68.7959
 31
0.0
  0
LINE
  8
0
 62
     0
 10
293.132
 20
68.7959
 30
0.0
 11
292.331
 21
68.7959
 31
0.0
  0
LINE
  8
0
 62
     0
 10
292.331
 20
68.7959
 30
0.0
 11
292.331
 21
65.6967
 31
0.0
  0
LINE
  8
0
 62
     0
 10
292.331
 20
65.6967
 30
0.0
 11
293.132
 21
65.6967
 31
0.0
  0
LINE
  8
0
 62
     0
 10
293.132
 20
65.6967
 30
0.0
 11
293.132
 21
64.6963
 31
0.0
  0
LINE
  8
0
 62
     0
 10
293.132
 20
64.6963
 30
0.0
 11
307.132
 21
64.6963
 31
0.0
  0
LINE
  8
0
 62
     0
 10
307.132
 20
64.6963
 30
0.0
 11
307.132
 21
65.6967
 31
0.0
  0
LINE
  8
0
 62
     0
 10
307.132
 20
65.6967
 30
0.0
 11
307.931
 21
65.6967
 31
0.0
  0
LINE
  8
0
 62
     0
 10
307.931
 20
65.6967
 30
0.0
 11
307.931
 21
68.7959
 31
0.0
  0
LINE
  8
0
 62
     0
 10
307.931
 20
68.7959
 30
0.0
 11
307.132
 21
68.7959
 31
0.0
  0
LINE
  8
0
 62
     0
 10
307.132
 20
68.7959
 30
0.0
 11
307.132
 21
74.5959
 31
0.0
  0
LINE
  8
0
 62
     0
 10
307.132
 20
74.5959
 30
0.0
 11
307.931
 21
74.5959
 31
0.0
  0
LINE
  8
0
 62
     0
 10
307.931
 20
74.5959
 30
0.0
 11
307.931
 21
77.6965
 31
0.0
  0
LINE
  8
0
 62
     0
 10
307.931
 20
77.6965
 30
0.0
 11
307.132
 21
77.6965
 31
0.0
  0
LINE
  8
0
 62
     0
 10
307.132
 20
77.6965
 30
0.0
 11
307.132
 21
78.6956
 31
0.0
  0
LINE
  8
0
 62
     0
 10
307.132
 20
78.6956
 30
0.0
 11
293.132
 21
78.6956
 31
0.0
  0
LINE
  8
0
 62
     0
 10
264.557
 20
78.6956
 30
0.0
 11
264.557
 21
77.6965
 31
0.0
  0
LINE
  8
0
 62
     0
 10
264.557
 20
77.6965
 30
0.0
 11
263.756
 21
77.6965
 31
0.0
  0
LINE
  8
0
 62
     0
 10
263.756
 20
77.6965
 30
0.0
 11
263.756
 21
74.5959
 31
0.0
  0
LINE
  8
0
 62
     0
 10
263.756
 20
74.5959
 30
0.0
 11
264.557
 21
74.5959
 31
0.0
  0
LINE
  8
0
 62
     0
 10
264.557
 20
74.5959
 30
0.0
 11
264.557
 21
68.7959
 31
0.0
  0
LINE
  8
0
 62
     0
 10
264.557
 20
68.7959
 30
0.0
 11
263.756
 21
68.7959
 31
0.0
  0
LINE
  8
0
 62
     0
 10
263.756
 20
68.7959
 30
0.0
 11
263.756
 21
65.6967
 31
0.0
  0
LINE
  8
0
 62
     0
 10
263.756
 20
65.6967
 30
0.0
 11
264.557
 21
65.6967
 31
0.0
  0
LINE
  8
0
 62
     0
 10
264.557
 20
65.6967
 30
0.0
 11
264.557
 21
64.6963
 31
0.0
  0
LINE
  8
0
 62
     0
 10
264.557
 20
64.6963
 30
0.0
 11
278.557
 21
64.6963
 31
0.0
  0
LINE
  8
0
 62
     0
 10
278.557
 20
64.6963
 30
0.0
 11
278.557
 21
65.6967
 31
0.0
  0
LINE
  8
0
 62
     0
 10
278.557
 20
65.6967
 30
0.0
 11
279.356
 21
65.6967
 31
0.0
  0
LINE
  8
0
 62
     0
 10
279.356
 20
65.6967
 30
0.0
 11
279.356
 21
68.7959
 31
0.0
  0
LINE
  8
0
 62
     0
 10
279.356
 20
68.7959
 30
0.0
 11
278.557
 21
68.7959
 31
0.0
  0
LINE
  8
0
 62
     0
 10
278.557
 20
68.7959
 30
0.0
 11
278.557
 21
74.5959
 31
0.0
  0
LINE
  8
0
 62
     0
 10
278.557
 20
74.5959
 30
0.0
 11
279.356
 21
74.5959
 31
0.0
  0
LINE
  8
0
 62
     0
 10
279.356
 20
74.5959
 30
0.0
 11
279.356
 21
77.6965
 31
0.0
  0
LINE
  8
0
 62
     0
 10
279.356
 20
77.6965
 30
0.0
 11
278.557
 21
77.6965
 31
0.0
  0
LINE
  8
0
 62
     0
 10
278.557
 20
77.6965
 30
0.0
 11
278.557
 21
78.6956
 31
0.0
  0
LINE
  8
0
 62
     0
 10
278.557
 20
78.6956
 30
0.0
 11
264.557
 21
78.6956
 31
0.0
  0
LINE
  8
0
 62
     0
 10
240.745
 20
78.6956
 30
0.0
 11
240.745
 21
77.6965
 31
0.0
  0
LINE
  8
0
 62
     0
 10
240.745
 20
77.6965
 30
0.0
 11
239.944
 21
77.6965
 31
0.0
  0
LINE
  8
0
 62
     0
 10
239.944
 20
77.6965
 30
0.0
 11
239.944
 21
74.5959
 31
0.0
  0
LINE
  8
0
 62
     0
 10
239.944
 20
74.5959
 30
0.0
 11
240.745
 21
74.5959
 31
0.0
  0
LINE
  8
0
 62
     0
 10
240.745
 20
74.5959
 30
0.0
 11
240.745
 21
68.7959
 31
0.0
  0
LINE
  8
0
 62
     0
 10
240.745
 20
68.7959
 30
0.0
 11
239.944
 21
68.7959
 31
0.0
  0
LINE
  8
0
 62
     0
 10
239.944
 20
68.7959
 30
0.0
 11
239.944
 21
65.6967
 31
0.0
  0
LINE
  8
0
 62
     0
 10
239.944
 20
65.6967
 30
0.0
 11
240.745
 21
65.6967
 31
0.0
  0
LINE
  8
0
 62
     0
 10
240.745
 20
65.6967
 30
0.0
 11
240.745
 21
64.6963
 31
0.0
  0
LINE
  8
0
 62
     0
 10
240.745
 20
64.6963
 30
0.0
 11
254.744
 21
64.6963
 31
0.0
  0
LINE
  8
0
 62
     0
 10
254.744
 20
64.6963
 30
0.0
 11
254.744
 21
65.6967
 31
0.0
  0
LINE
  8
0
 62
     0
 10
254.744
 20
65.6967
 30
0.0
 11
255.545
 21
65.6967
 31
0.0
  0
LINE
  8
0
 62
     0
 10
255.545
 20
65.6967
 30
0.0
 11
255.545
 21
68.7959
 31
0.0
  0
LINE
  8
0
 62
     0
 10
255.545
 20
68.7959
 30
0.0
 11
254.744
 21
68.7959
 31
0.0
  0
LINE
  8
0
 62
     0
 10
254.744
 20
68.7959
 30
0.0
 11
254.744
 21
74.5959
 31
0.0
  0
LINE
  8
0
 62
     0
 10
254.744
 20
74.5959
 30
0.0
 11
255.545
 21
74.5959
 31
0.0
  0
LINE
  8
0
 62
     0
 10
255.545
 20
74.5959
 30
0.0
 11
255.545
 21
77.6965
 31
0.0
  0
LINE
  8
0
 62
     0
 10
255.545
 20
77.6965
 30
0.0
 11
254.744
 21
77.6965
 31
0.0
  0
LINE
  8
0
 62
     0
 10
254.744
 20
77.6965
 30
0.0
 11
254.744
 21
78.6956
 31
0.0
  0
LINE
  8
0
 62
     0
 10
254.744
 20
78.6956
 30
0.0
 11
240.745
 21
78.6956
 31
0.0
  0
LINE
  8
0
 62
     0
 10
221.695
 20
78.6956
 30
0.0
 11
221.695
 21
77.6965
 31
0.0
  0
LINE
  8
0
 62
     0
 10
221.695
 20
77.6965
 30
0.0
 11
220.894
 21
77.6965
 31
0.0
  0
LINE
  8
0
 62
     0
 10
220.894
 20
77.6965
 30
0.0
 11
220.894
 21
74.5959
 31
0.0
  0
LINE
  8
0
 62
     0
 10
220.894
 20
74.5959
 30
0.0
 11
221.695
 21
74.5959
 31
0.0
  0
LINE
  8
0
 62
     0
 10
221.695
 20
74.5959
 30
0.0
 11
221.695
 21
68.7959
 31
0.0
  0
LINE
  8
0
 62
     0
 10
221.695
 20
68.7959
 30
0.0
 11
220.894
 21
68.7959
 31
0.0
  0
LINE
  8
0
 62
     0
 10
220.894
 20
68.7959
 30
0.0
 11
220.894
 21
65.6967
 31
0.0
  0
LINE
  8
0
 62
     0
 10
220.894
 20
65.6967
 30
0.0
 11
221.695
 21
65.6967
 31
0.0
  0
LINE
  8
0
 62
     0
 10
221.695
 20
65.6967
 30
0.0
 11
221.695
 21
64.6963
 31
0.0
  0
LINE
  8
0
 62
     0
 10
221.695
 20
64.6963
 30
0.0
 11
235.694
 21
64.6963
 31
0.0
  0
LINE
  8
0
 62
     0
 10
235.694
 20
64.6963
 30
0.0
 11
235.694
 21
65.6967
 31
0.0
  0
LINE
  8
0
 62
     0
 10
235.694
 20
65.6967
 30
0.0
 11
236.495
 21
65.6967
 31
0.0
  0
LINE
  8
0
 62
     0
 10
236.495
 20
65.6967
 30
0.0
 11
236.495
 21
68.7959
 31
0.0
  0
LINE
  8
0
 62
     0
 10
236.495
 20
68.7959
 30
0.0
 11
235.694
 21
68.7959
 31
0.0
  0
LINE
  8
0
 62
     0
 10
235.694
 20
68.7959
 30
0.0
 11
235.694
 21
74.5959
 31
0.0
  0
LINE
  8
0
 62
     0
 10
235.694
 20
74.5959
 30
0.0
 11
236.495
 21
74.5959
 31
0.0
  0
LINE
  8
0
 62
     0
 10
236.495
 20
74.5959
 30
0.0
 11
236.495
 21
77.6965
 31
0.0
  0
LINE
  8
0
 62
     0
 10
236.495
 20
77.6965
 30
0.0
 11
235.694
 21
77.6965
 31
0.0
  0
LINE
  8
0
 62
     0
 10
235.694
 20
77.6965
 30
0.0
 11
235.694
 21
78.6956
 31
0.0
  0
LINE
  8
0
 62
     0
 10
235.694
 20
78.6956
 30
0.0
 11
221.695
 21
78.6956
 31
0.0
  0
LINE
  8
0
 62
     0
 10
202.645
 20
78.6956
 30
0.0
 11
202.645
 21
77.6965
 31
0.0
  0
LINE
  8
0
 62
     0
 10
202.645
 20
77.6965
 30
0.0
 11
201.844
 21
77.6965
 31
0.0
  0
LINE
  8
0
 62
     0
 10
201.844
 20
77.6965
 30
0.0
 11
201.844
 21
74.5959
 31
0.0
  0
LINE
  8
0
 62
     0
 10
201.844
 20
74.5959
 30
0.0
 11
202.645
 21
74.5959
 31
0.0
  0
LINE
  8
0
 62
     0
 10
202.645
 20
74.5959
 30
0.0
 11
202.645
 21
68.7959
 31
0.0
  0
LINE
  8
0
 62
     0
 10
202.645
 20
68.7959
 30
0.0
 11
201.844
 21
68.7959
 31
0.0
  0
LINE
  8
0
 62
     0
 10
201.844
 20
68.7959
 30
0.0
 11
201.844
 21
65.6967
 31
0.0
  0
LINE
  8
0
 62
     0
 10
201.844
 20
65.6967
 30
0.0
 11
202.645
 21
65.6967
 31
0.0
  0
LINE
  8
0
 62
     0
 10
202.645
 20
65.6967
 30
0.0
 11
202.645
 21
64.6963
 31
0.0
  0
LINE
  8
0
 62
     0
 10
202.645
 20
64.6963
 30
0.0
 11
216.644
 21
64.6963
 31
0.0
  0
LINE
  8
0
 62
     0
 10
216.644
 20
64.6963
 30
0.0
 11
216.644
 21
65.6967
 31
0.0
  0
LINE
  8
0
 62
     0
 10
216.644
 20
65.6967
 30
0.0
 11
217.445
 21
65.6967
 31
0.0
  0
LINE
  8
0
 62
     0
 10
217.445
 20
65.6967
 30
0.0
 11
217.445
 21
68.7959
 31
0.0
  0
LINE
  8
0
 62
     0
 10
217.445
 20
68.7959
 30
0.0
 11
216.644
 21
68.7959
 31
0.0
  0
LINE
  8
0
 62
     0
 10
216.644
 20
68.7959
 30
0.0
 11
216.644
 21
74.5959
 31
0.0
  0
LINE
  8
0
 62
     0
 10
216.644
 20
74.5959
 30
0.0
 11
217.445
 21
74.5959
 31
0.0
  0
LINE
  8
0
 62
     0
 10
217.445
 20
74.5959
 30
0.0
 11
217.445
 21
77.6965
 31
0.0
  0
LINE
  8
0
 62
     0
 10
217.445
 20
77.6965
 30
0.0
 11
216.644
 21
77.6965
 31
0.0
  0
LINE
  8
0
 62
     0
 10
216.644
 20
77.6965
 30
0.0
 11
216.644
 21
78.6956
 31
0.0
  0
LINE
  8
0
 62
     0
 10
216.644
 20
78.6956
 30
0.0
 11
202.645
 21
78.6956
 31
0.0
  0
LINE
  8
0
 62
     0
 10
183.595
 20
78.6956
 30
0.0
 11
183.595
 21
77.6965
 31
0.0
  0
LINE
  8
0
 62
     0
 10
183.595
 20
77.6965
 30
0.0
 11
182.794
 21
77.6965
 31
0.0
  0
LINE
  8
0
 62
     0
 10
182.794
 20
77.6965
 30
0.0
 11
182.794
 21
74.5959
 31
0.0
  0
LINE
  8
0
 62
     0
 10
182.794
 20
74.5959
 30
0.0
 11
183.595
 21
74.5959
 31
0.0
  0
LINE
  8
0
 62
     0
 10
183.595
 20
74.5959
 30
0.0
 11
183.595
 21
68.7959
 31
0.0
  0
LINE
  8
0
 62
     0
 10
183.595
 20
68.7959
 30
0.0
 11
182.794
 21
68.7959
 31
0.0
  0
LINE
  8
0
 62
     0
 10
182.794
 20
68.7959
 30
0.0
 11
182.794
 21
65.6967
 31
0.0
  0
LINE
  8
0
 62
     0
 10
182.794
 20
65.6967
 30
0.0
 11
183.595
 21
65.6967
 31
0.0
  0
LINE
  8
0
 62
     0
 10
183.595
 20
65.6967
 30
0.0
 11
183.595
 21
64.6963
 31
0.0
  0
LINE
  8
0
 62
     0
 10
183.595
 20
64.6963
 30
0.0
 11
197.594
 21
64.6963
 31
0.0
  0
LINE
  8
0
 62
     0
 10
197.594
 20
64.6963
 30
0.0
 11
197.594
 21
65.6967
 31
0.0
  0
LINE
  8
0
 62
     0
 10
197.594
 20
65.6967
 30
0.0
 11
198.395
 21
65.6967
 31
0.0
  0
LINE
  8
0
 62
     0
 10
198.395
 20
65.6967
 30
0.0
 11
198.395
 21
68.7959
 31
0.0
  0
LINE
  8
0
 62
     0
 10
198.395
 20
68.7959
 30
0.0
 11
197.594
 21
68.7959
 31
0.0
  0
LINE
  8
0
 62
     0
 10
197.594
 20
68.7959
 30
0.0
 11
197.594
 21
74.5959
 31
0.0
  0
LINE
  8
0
 62
     0
 10
197.594
 20
74.5959
 30
0.0
 11
198.395
 21
74.5959
 31
0.0
  0
LINE
  8
0
 62
     0
 10
198.395
 20
74.5959
 30
0.0
 11
198.395
 21
77.6965
 31
0.0
  0
LINE
  8
0
 62
     0
 10
198.395
 20
77.6965
 30
0.0
 11
197.594
 21
77.6965
 31
0.0
  0
LINE
  8
0
 62
     0
 10
197.594
 20
77.6965
 30
0.0
 11
197.594
 21
78.6956
 31
0.0
  0
LINE
  8
0
 62
     0
 10
197.594
 20
78.6956
 30
0.0
 11
183.595
 21
78.6956
 31
0.0
  0
LINE
  8
0
 62
     0
 10
164.545
 20
78.6956
 30
0.0
 11
164.545
 21
77.6965
 31
0.0
  0
LINE
  8
0
 62
     0
 10
164.545
 20
77.6965
 30
0.0
 11
163.744
 21
77.6965
 31
0.0
  0
LINE
  8
0
 62
     0
 10
163.744
 20
77.6965
 30
0.0
 11
163.744
 21
74.5959
 31
0.0
  0
LINE
  8
0
 62
     0
 10
163.744
 20
74.5959
 30
0.0
 11
164.545
 21
74.5959
 31
0.0
  0
LINE
  8
0
 62
     0
 10
164.545
 20
74.5959
 30
0.0
 11
164.545
 21
68.7959
 31
0.0
  0
LINE
  8
0
 62
     0
 10
164.545
 20
68.7959
 30
0.0
 11
163.744
 21
68.7959
 31
0.0
  0
LINE
  8
0
 62
     0
 10
163.744
 20
68.7959
 30
0.0
 11
163.744
 21
65.6967
 31
0.0
  0
LINE
  8
0
 62
     0
 10
163.744
 20
65.6967
 30
0.0
 11
164.545
 21
65.6967
 31
0.0
  0
LINE
  8
0
 62
     0
 10
164.545
 20
65.6967
 30
0.0
 11
164.545
 21
64.6963
 31
0.0
  0
LINE
  8
0
 62
     0
 10
164.545
 20
64.6963
 30
0.0
 11
178.544
 21
64.6963
 31
0.0
  0
LINE
  8
0
 62
     0
 10
178.544
 20
64.6963
 30
0.0
 11
178.544
 21
65.6967
 31
0.0
  0
LINE
  8
0
 62
     0
 10
178.544
 20
65.6967
 30
0.0
 11
179.345
 21
65.6967
 31
0.0
  0
LINE
  8
0
 62
     0
 10
179.345
 20
65.6967
 30
0.0
 11
179.345
 21
68.7959
 31
0.0
  0
LINE
  8
0
 62
     0
 10
179.345
 20
68.7959
 30
0.0
 11
178.544
 21
68.7959
 31
0.0
  0
LINE
  8
0
 62
     0
 10
178.544
 20
68.7959
 30
0.0
 11
178.544
 21
74.5959
 31
0.0
  0
LINE
  8
0
 62
     0
 10
178.544
 20
74.5959
 30
0.0
 11
179.345
 21
74.5959
 31
0.0
  0
LINE
  8
0
 62
     0
 10
179.345
 20
74.5959
 30
0.0
 11
179.345
 21
77.6965
 31
0.0
  0
LINE
  8
0
 62
     0
 10
179.345
 20
77.6965
 30
0.0
 11
178.544
 21
77.6965
 31
0.0
  0
LINE
  8
0
 62
     0
 10
178.544
 20
77.6965
 30
0.0
 11
178.544
 21
78.6956
 31
0.0
  0
LINE
  8
0
 62
     0
 10
178.544
 20
78.6956
 30
0.0
 11
164.545
 21
78.6956
 31
0.0
  0
LINE
  8
0
 62
     0
 10
145.495
 20
78.6956
 30
0.0
 11
145.495
 21
77.6965
 31
0.0
  0
LINE
  8
0
 62
     0
 10
145.495
 20
77.6965
 30
0.0
 11
144.694
 21
77.6965
 31
0.0
  0
LINE
  8
0
 62
     0
 10
144.694
 20
77.6965
 30
0.0
 11
144.694
 21
74.5959
 31
0.0
  0
LINE
  8
0
 62
     0
 10
144.694
 20
74.5959
 30
0.0
 11
145.495
 21
74.5959
 31
0.0
  0
LINE
  8
0
 62
     0
 10
145.495
 20
74.5959
 30
0.0
 11
145.495
 21
68.7959
 31
0.0
  0
LINE
  8
0
 62
     0
 10
145.495
 20
68.7959
 30
0.0
 11
144.694
 21
68.7959
 31
0.0
  0
LINE
  8
0
 62
     0
 10
144.694
 20
68.7959
 30
0.0
 11
144.694
 21
65.6967
 31
0.0
  0
LINE
  8
0
 62
     0
 10
144.694
 20
65.6967
 30
0.0
 11
145.495
 21
65.6967
 31
0.0
  0
LINE
  8
0
 62
     0
 10
145.495
 20
65.6967
 30
0.0
 11
145.495
 21
64.6963
 31
0.0
  0
LINE
  8
0
 62
     0
 10
145.495
 20
64.6963
 30
0.0
 11
159.494
 21
64.6963
 31
0.0
  0
LINE
  8
0
 62
     0
 10
159.494
 20
64.6963
 30
0.0
 11
159.494
 21
65.6967
 31
0.0
  0
LINE
  8
0
 62
     0
 10
159.494
 20
65.6967
 30
0.0
 11
160.295
 21
65.6967
 31
0.0
  0
LINE
  8
0
 62
     0
 10
160.295
 20
65.6967
 30
0.0
 11
160.295
 21
68.7959
 31
0.0
  0
LINE
  8
0
 62
     0
 10
160.295
 20
68.7959
 30
0.0
 11
159.494
 21
68.7959
 31
0.0
  0
LINE
  8
0
 62
     0
 10
159.494
 20
68.7959
 30
0.0
 11
159.494
 21
74.5959
 31
0.0
  0
LINE
  8
0
 62
     0
 10
159.494
 20
74.5959
 30
0.0
 11
160.295
 21
74.5959
 31
0.0
  0
LINE
  8
0
 62
     0
 10
160.295
 20
74.5959
 30
0.0
 11
160.295
 21
77.6965
 31
0.0
  0
LINE
  8
0
 62
     0
 10
160.295
 20
77.6965
 30
0.0
 11
159.494
 21
77.6965
 31
0.0
  0
LINE
  8
0
 62
     0
 10
159.494
 20
77.6965
 30
0.0
 11
159.494
 21
78.6956
 31
0.0
  0
LINE
  8
0
 62
     0
 10
159.494
 20
78.6956
 30
0.0
 11
145.495
 21
78.6956
 31
0.0
  0
LINE
  8
0
 62
     0
 10
126.445
 20
78.6956
 30
0.0
 11
126.445
 21
77.6965
 31
0.0
  0
LINE
  8
0
 62
     0
 10
126.445
 20
77.6965
 30
0.0
 11
125.644
 21
77.6965
 31
0.0
  0
LINE
  8
0
 62
     0
 10
125.644
 20
77.6965
 30
0.0
 11
125.644
 21
74.5959
 31
0.0
  0
LINE
  8
0
 62
     0
 10
125.644
 20
74.5959
 30
0.0
 11
126.445
 21
74.5959
 31
0.0
  0
LINE
  8
0
 62
     0
 10
126.445
 20
74.5959
 30
0.0
 11
126.445
 21
68.7959
 31
0.0
  0
LINE
  8
0
 62
     0
 10
126.445
 20
68.7959
 30
0.0
 11
125.644
 21
68.7959
 31
0.0
  0
LINE
  8
0
 62
     0
 10
125.644
 20
68.7959
 30
0.0
 11
125.644
 21
65.6967
 31
0.0
  0
LINE
  8
0
 62
     0
 10
125.644
 20
65.6967
 30
0.0
 11
126.445
 21
65.6967
 31
0.0
  0
LINE
  8
0
 62
     0
 10
126.445
 20
65.6967
 30
0.0
 11
126.445
 21
64.6963
 31
0.0
  0
LINE
  8
0
 62
     0
 10
126.445
 20
64.6963
 30
0.0
 11
140.444
 21
64.6963
 31
0.0
  0
LINE
  8
0
 62
     0
 10
140.444
 20
64.6963
 30
0.0
 11
140.444
 21
65.6967
 31
0.0
  0
LINE
  8
0
 62
     0
 10
140.444
 20
65.6967
 30
0.0
 11
141.245
 21
65.6967
 31
0.0
  0
LINE
  8
0
 62
     0
 10
141.245
 20
65.6967
 30
0.0
 11
141.245
 21
68.7959
 31
0.0
  0
LINE
  8
0
 62
     0
 10
141.245
 20
68.7959
 30
0.0
 11
140.444
 21
68.7959
 31
0.0
  0
LINE
  8
0
 62
     0
 10
140.444
 20
68.7959
 30
0.0
 11
140.444
 21
74.5959
 31
0.0
  0
LINE
  8
0
 62
     0
 10
140.444
 20
74.5959
 30
0.0
 11
141.245
 21
74.5959
 31
0.0
  0
LINE
  8
0
 62
     0
 10
141.245
 20
74.5959
 30
0.0
 11
141.245
 21
77.6965
 31
0.0
  0
LINE
  8
0
 62
     0
 10
141.245
 20
77.6965
 30
0.0
 11
140.444
 21
77.6965
 31
0.0
  0
LINE
  8
0
 62
     0
 10
140.444
 20
77.6965
 30
0.0
 11
140.444
 21
78.6956
 31
0.0
  0
LINE
  8
0
 62
     0
 10
140.444
 20
78.6956
 30
0.0
 11
126.445
 21
78.6956
 31
0.0
  0
LINE
  8
0
 62
     0
 10
107.395
 20
78.6956
 30
0.0
 11
107.395
 21
77.6965
 31
0.0
  0
LINE
  8
0
 62
     0
 10
107.395
 20
77.6965
 30
0.0
 11
106.594
 21
77.6965
 31
0.0
  0
LINE
  8
0
 62
     0
 10
106.594
 20
77.6965
 30
0.0
 11
106.594
 21
74.5959
 31
0.0
  0
LINE
  8
0
 62
     0
 10
106.594
 20
74.5959
 30
0.0
 11
107.395
 21
74.5959
 31
0.0
  0
LINE
  8
0
 62
     0
 10
107.395
 20
74.5959
 30
0.0
 11
107.395
 21
68.7959
 31
0.0
  0
LINE
  8
0
 62
     0
 10
107.395
 20
68.7959
 30
0.0
 11
106.594
 21
68.7959
 31
0.0
  0
LINE
  8
0
 62
     0
 10
106.594
 20
68.7959
 30
0.0
 11
106.594
 21
65.6967
 31
0.0
  0
LINE
  8
0
 62
     0
 10
106.594
 20
65.6967
 30
0.0
 11
107.395
 21
65.6967
 31
0.0
  0
LINE
  8
0
 62
     0
 10
107.395
 20
65.6967
 30
0.0
 11
107.395
 21
64.6963
 31
0.0
  0
LINE
  8
0
 62
     0
 10
107.395
 20
64.6963
 30
0.0
 11
121.394
 21
64.6963
 31
0.0
  0
LINE
  8
0
 62
     0
 10
121.394
 20
64.6963
 30
0.0
 11
121.394
 21
65.6967
 31
0.0
  0
LINE
  8
0
 62
     0
 10
121.394
 20
65.6967
 30
0.0
 11
122.195
 21
65.6967
 31
0.0
  0
LINE
  8
0
 62
     0
 10
122.195
 20
65.6967
 30
0.0
 11
122.195
 21
68.7959
 31
0.0
  0
LINE
  8
0
 62
     0
 10
122.195
 20
68.7959
 30
0.0
 11
121.394
 21
68.7959
 31
0.0
  0
LINE
  8
0
 62
     0
 10
121.394
 20
68.7959
 30
0.0
 11
121.394
 21
74.5959
 31
0.0
  0
LINE
  8
0
 62
     0
 10
121.394
 20
74.5959
 30
0.0
 11
122.195
 21
74.5959
 31
0.0
  0
LINE
  8
0
 62
     0
 10
122.195
 20
74.5959
 30
0.0
 11
122.195
 21
77.6965
 31
0.0
  0
LINE
  8
0
 62
     0
 10
122.195
 20
77.6965
 30
0.0
 11
121.394
 21
77.6965
 31
0.0
  0
LINE
  8
0
 62
     0
 10
121.394
 20
77.6965
 30
0.0
 11
121.394
 21
78.6956
 31
0.0
  0
LINE
  8
0
 62
     0
 10
121.394
 20
78.6956
 30
0.0
 11
107.395
 21
78.6956
 31
0.0
  0
LINE
  8
0
 62
     0
 10
88.3447
 20
78.6956
 30
0.0
 11
88.3447
 21
77.6965
 31
0.0
  0
LINE
  8
0
 62
     0
 10
88.3447
 20
77.6965
 30
0.0
 11
87.5439
 21
77.6965
 31
0.0
  0
LINE
  8
0
 62
     0
 10
87.5439
 20
77.6965
 30
0.0
 11
87.5439
 21
74.5959
 31
0.0
  0
LINE
  8
0
 62
     0
 10
87.5439
 20
74.5959
 30
0.0
 11
88.3447
 21
74.5959
 31
0.0
  0
LINE
  8
0
 62
     0
 10
88.3447
 20
74.5959
 30
0.0
 11
88.3447
 21
68.7959
 31
0.0
  0
LINE
  8
0
 62
     0
 10
88.3447
 20
68.7959
 30
0.0
 11
87.5439
 21
68.7959
 31
0.0
  0
LINE
  8
0
 62
     0
 10
87.5439
 20
68.7959
 30
0.0
 11
87.5439
 21
65.6967
 31
0.0
  0
LINE
  8
0
 62
     0
 10
87.5439
 20
65.6967
 30
0.0
 11
88.3447
 21
65.6967
 31
0.0
  0
LINE
  8
0
 62
     0
 10
88.3447
 20
65.6967
 30
0.0
 11
88.3447
 21
64.6963
 31
0.0
  0
LINE
  8
0
 62
     0
 10
88.3447
 20
64.6963
 30
0.0
 11
102.344
 21
64.6963
 31
0.0
  0
LINE
  8
0
 62
     0
 10
102.344
 20
64.6963
 30
0.0
 11
102.344
 21
65.6967
 31
0.0
  0
LINE
  8
0
 62
     0
 10
102.344
 20
65.6967
 30
0.0
 11
103.145
 21
65.6967
 31
0.0
  0
LINE
  8
0
 62
     0
 10
103.145
 20
65.6967
 30
0.0
 11
103.145
 21
68.7959
 31
0.0
  0
LINE
  8
0
 62
     0
 10
103.145
 20
68.7959
 30
0.0
 11
102.344
 21
68.7959
 31
0.0
  0
LINE
  8
0
 62
     0
 10
102.344
 20
68.7959
 30
0.0
 11
102.344
 21
74.5959
 31
0.0
  0
LINE
  8
0
 62
     0
 10
102.344
 20
74.5959
 30
0.0
 11
103.145
 21
74.5959
 31
0.0
  0
LINE
  8
0
 62
     0
 10
103.145
 20
74.5959
 30
0.0
 11
103.145
 21
77.6965
 31
0.0
  0
LINE
  8
0
 62
     0
 10
103.145
 20
77.6965
 30
0.0
 11
102.344
 21
77.6965
 31
0.0
  0
LINE
  8
0
 62
     0
 10
102.344
 20
77.6965
 30
0.0
 11
102.344
 21
78.6956
 31
0.0
  0
LINE
  8
0
 62
     0
 10
102.344
 20
78.6956
 30
0.0
 11
88.3447
 21
78.6956
 31
0.0
  0
LINE
  8
0
 62
     0
 10
69.2947
 20
78.6956
 30
0.0
 11
69.2947
 21
77.6965
 31
0.0
  0
LINE
  8
0
 62
     0
 10
69.2947
 20
77.6965
 30
0.0
 11
68.4939
 21
77.6965
 31
0.0
  0
LINE
  8
0
 62
     0
 10
68.4939
 20
77.6965
 30
0.0
 11
68.4939
 21
74.5959
 31
0.0
  0
LINE
  8
0
 62
     0
 10
68.4939
 20
74.5959
 30
0.0
 11
69.2947
 21
74.5959
 31
0.0
  0
LINE
  8
0
 62
     0
 10
69.2947
 20
74.5959
 30
0.0
 11
69.2947
 21
68.7959
 31
0.0
  0
LINE
  8
0
 62
     0
 10
69.2947
 20
68.7959
 30
0.0
 11
68.4939
 21
68.7959
 31
0.0
  0
LINE
  8
0
 62
     0
 10
68.4939
 20
68.7959
 30
0.0
 11
68.4939
 21
65.6967
 31
0.0
  0
LINE
  8
0
 62
     0
 10
68.4939
 20
65.6967
 30
0.0
 11
69.2947
 21
65.6967
 31
0.0
  0
LINE
  8
0
 62
     0
 10
69.2947
 20
65.6967
 30
0.0
 11
69.2947
 21
64.6963
 31
0.0
  0
LINE
  8
0
 62
     0
 10
69.2947
 20
64.6963
 30
0.0
 11
83.294
 21
64.6963
 31
0.0
  0
LINE
  8
0
 62
     0
 10
83.294
 20
64.6963
 30
0.0
 11
83.294
 21
65.6967
 31
0.0
  0
LINE
  8
0
 62
     0
 10
83.294
 20
65.6967
 30
0.0
 11
84.0948
 21
65.6967
 31
0.0
  0
LINE
  8
0
 62
     0
 10
84.0948
 20
65.6967
 30
0.0
 11
84.0948
 21
68.7959
 31
0.0
  0
LINE
  8
0
 62
     0
 10
84.0948
 20
68.7959
 30
0.0
 11
83.294
 21
68.7959
 31
0.0
  0
LINE
  8
0
 62
     0
 10
83.294
 20
68.7959
 30
0.0
 11
83.294
 21
74.5959
 31
0.0
  0
LINE
  8
0
 62
     0
 10
83.294
 20
74.5959
 30
0.0
 11
84.0948
 21
74.5959
 31
0.0
  0
LINE
  8
0
 62
     0
 10
84.0948
 20
74.5959
 30
0.0
 11
84.0948
 21
77.6965
 31
0.0
  0
LINE
  8
0
 62
     0
 10
84.0948
 20
77.6965
 30
0.0
 11
83.294
 21
77.6965
 31
0.0
  0
LINE
  8
0
 62
     0
 10
83.294
 20
77.6965
 30
0.0
 11
83.294
 21
78.6956
 31
0.0
  0
LINE
  8
0
 62
     0
 10
83.294
 20
78.6956
 30
0.0
 11
69.2947
 21
78.6956
 31
0.0
  0
LINE
  8
0
 62
     0
 10
50.2447
 20
78.6956
 30
0.0
 11
50.2447
 21
77.6965
 31
0.0
  0
LINE
  8
0
 62
     0
 10
50.2447
 20
77.6965
 30
0.0
 11
49.4439
 21
77.6965
 31
0.0
  0
LINE
  8
0
 62
     0
 10
49.4439
 20
77.6965
 30
0.0
 11
49.4439
 21
74.5959
 31
0.0
  0
LINE
  8
0
 62
     0
 10
49.4439
 20
74.5959
 30
0.0
 11
50.2447
 21
74.5959
 31
0.0
  0
LINE
  8
0
 62
     0
 10
50.2447
 20
74.5959
 30
0.0
 11
50.2447
 21
68.7959
 31
0.0
  0
LINE
  8
0
 62
     0
 10
50.2447
 20
68.7959
 30
0.0
 11
49.4439
 21
68.7959
 31
0.0
  0
LINE
  8
0
 62
     0
 10
49.4439
 20
68.7959
 30
0.0
 11
49.4439
 21
65.6967
 31
0.0
  0
LINE
  8
0
 62
     0
 10
49.4439
 20
65.6967
 30
0.0
 11
50.2447
 21
65.6967
 31
0.0
  0
LINE
  8
0
 62
     0
 10
50.2447
 20
65.6967
 30
0.0
 11
50.2447
 21
64.6963
 31
0.0
  0
LINE
  8
0
 62
     0
 10
50.2447
 20
64.6963
 30
0.0
 11
64.244
 21
64.6963
 31
0.0
  0
LINE
  8
0
 62
     0
 10
64.244
 20
64.6963
 30
0.0
 11
64.244
 21
65.6967
 31
0.0
  0
LINE
  8
0
 62
     0
 10
64.244
 20
65.6967
 30
0.0
 11
65.0448
 21
65.6967
 31
0.0
  0
LINE
  8
0
 62
     0
 10
65.0448
 20
65.6967
 30
0.0
 11
65.0448
 21
68.7959
 31
0.0
  0
LINE
  8
0
 62
     0
 10
65.0448
 20
68.7959
 30
0.0
 11
64.244
 21
68.7959
 31
0.0
  0
LINE
  8
0
 62
     0
 10
64.244
 20
68.7959
 30
0.0
 11
64.244
 21
74.5959
 31
0.0
  0
LINE
  8
0
 62
     0
 10
64.244
 20
74.5959
 30
0.0
 11
65.0448
 21
74.5959
 31
0.0
  0
LINE
  8
0
 62
     0
 10
65.0448
 20
74.5959
 30
0.0
 11
65.0448
 21
77.6965
 31
0.0
  0
LINE
  8
0
 62
     0
 10
65.0448
 20
77.6965
 30
0.0
 11
64.244
 21
77.6965
 31
0.0
  0
LINE
  8
0
 62
     0
 10
64.244
 20
77.6965
 30
0.0
 11
64.244
 21
78.6956
 31
0.0
  0
LINE
  8
0
 62
     0
 10
64.244
 20
78.6956
 30
0.0
 11
50.2447
 21
78.6956
 31
0.0
  0
LINE
  8
0
 62
     0
 10
31.1947
 20
78.6956
 30
0.0
 11
31.1947
 21
77.6965
 31
0.0
  0
LINE
  8
0
 62
     0
 10
31.1947
 20
77.6965
 30
0.0
 11
30.394
 21
77.6965
 31
0.0
  0
LINE
  8
0
 62
     0
 10
30.394
 20
77.6965
 30
0.0
 11
30.394
 21
74.5959
 31
0.0
  0
LINE
  8
0
 62
     0
 10
30.394
 20
74.5959
 30
0.0
 11
31.1947
 21
74.5959
 31
0.0
  0
LINE
  8
0
 62
     0
 10
31.1947
 20
74.5959
 30
0.0
 11
31.1947
 21
68.7959
 31
0.0
  0
LINE
  8
0
 62
     0
 10
31.1947
 20
68.7959
 30
0.0
 11
30.394
 21
68.7959
 31
0.0
  0
LINE
  8
0
 62
     0
 10
30.394
 20
68.7959
 30
0.0
 11
30.394
 21
65.6967
 31
0.0
  0
LINE
  8
0
 62
     0
 10
30.394
 20
65.6967
 30
0.0
 11
31.1947
 21
65.6967
 31
0.0
  0
LINE
  8
0
 62
     0
 10
31.1947
 20
65.6967
 30
0.0
 11
31.1947
 21
64.6963
 31
0.0
  0
LINE
  8
0
 62
     0
 10
31.1947
 20
64.6963
 30
0.0
 11
45.194
 21
64.6963
 31
0.0
  0
LINE
  8
0
 62
     0
 10
45.194
 20
64.6963
 30
0.0
 11
45.194
 21
65.6967
 31
0.0
  0
LINE
  8
0
 62
     0
 10
45.194
 20
65.6967
 30
0.0
 11
45.9948
 21
65.6967
 31
0.0
  0
LINE
  8
0
 62
     0
 10
45.9948
 20
65.6967
 30
0.0
 11
45.9948
 21
68.7959
 31
0.0
  0
LINE
  8
0
 62
     0
 10
45.9948
 20
68.7959
 30
0.0
 11
45.194
 21
68.7959
 31
0.0
  0
LINE
  8
0
 62
     0
 10
45.194
 20
68.7959
 30
0.0
 11
45.194
 21
74.5959
 31
0.0
  0
LINE
  8
0
 62
     0
 10
45.194
 20
74.5959
 30
0.0
 11
45.9948
 21
74.5959
 31
0.0
  0
LINE
  8
0
 62
     0
 10
45.9948
 20
74.5959
 30
0.0
 11
45.9948
 21
77.6965
 31
0.0
  0
LINE
  8
0
 62
     0
 10
45.9948
 20
77.6965
 30
0.0
 11
45.194
 21
77.6965
 31
0.0
  0
LINE
  8
0
 62
     0
 10
45.194
 20
77.6965
 30
0.0
 11
45.194
 21
78.6956
 31
0.0
  0
LINE
  8
0
 62
     0
 10
45.194
 20
78.6956
 30
0.0
 11
31.1947
 21
78.6956
 31
0.0
  0
LINE
  8
0
 62
     0
 10
7.38216
 20
78.6956
 30
0.0
 11
7.38216
 21
77.6965
 31
0.0
  0
LINE
  8
0
 62
     0
 10
7.38216
 20
77.6965
 30
0.0
 11
6.58153
 21
77.6965
 31
0.0
  0
LINE
  8
0
 62
     0
 10
6.58153
 20
77.6965
 30
0.0
 11
6.58153
 21
74.5959
 31
0.0
  0
LINE
  8
0
 62
     0
 10
6.58153
 20
74.5959
 30
0.0
 11
7.38216
 21
74.5959
 31
0.0
  0
LINE
  8
0
 62
     0
 10
7.38216
 20
74.5959
 30
0.0
 11
7.38216
 21
68.7959
 31
0.0
  0
LINE
  8
0
 62
     0
 10
7.38216
 20
68.7959
 30
0.0
 11
6.58153
 21
68.7959
 31
0.0
  0
LINE
  8
0
 62
     0
 10
6.58153
 20
68.7959
 30
0.0
 11
6.58153
 21
65.6967
 31
0.0
  0
LINE
  8
0
 62
     0
 10
6.58153
 20
65.6967
 30
0.0
 11
7.38216
 21
65.6967
 31
0.0
  0
LINE
  8
0
 62
     0
 10
7.38216
 20
65.6967
 30
0.0
 11
7.38216
 21
64.6963
 31
0.0
  0
LINE
  8
0
 62
     0
 10
7.38216
 20
64.6963
 30
0.0
 11
21.3817
 21
64.6963
 31
0.0
  0
LINE
  8
0
 62
     0
 10
21.3817
 20
64.6963
 30
0.0
 11
21.3817
 21
65.6967
 31
0.0
  0
LINE
  8
0
 62
     0
 10
21.3817
 20
65.6967
 30
0.0
 11
22.1809
 21
65.6967
 31
0.0
  0
LINE
  8
0
 62
     0
 10
22.1809
 20
65.6967
 30
0.0
 11
22.1809
 21
68.7959
 31
0.0
  0
LINE
  8
0
 62
     0
 10
22.1809
 20
68.7959
 30
0.0
 11
21.3817
 21
68.7959
 31
0.0
  0
LINE
  8
0
 62
     0
 10
21.3817
 20
68.7959
 30
0.0
 11
21.3817
 21
74.5959
 31
0.0
  0
LINE
  8
0
 62
     0
 10
21.3817
 20
74.5959
 30
0.0
 11
22.1809
 21
74.5959
 31
0.0
  0
LINE
  8
0
 62
     0
 10
22.1809
 20
74.5959
 30
0.0
 11
22.1809
 21
77.6965
 31
0.0
  0
LINE
  8
0
 62
     0
 10
22.1809
 20
77.6965
 30
0.0
 11
21.3817
 21
77.6965
 31
0.0
  0
LINE
  8
0
 62
     0
 10
21.3817
 20
77.6965
 30
0.0
 11
21.3817
 21
78.6956
 31
0.0
  0
LINE
  8
0
 62
     0
 10
21.3817
 20
78.6956
 30
0.0
 11
7.38216
 21
78.6956
 31
0.0
  0
LINE
  8
0
 62
     0
 10
259.795
 20
97.7456
 30
0.0
 11
259.795
 21
96.7465
 31
0.0
  0
LINE
  8
0
 62
     0
 10
259.795
 20
96.7465
 30
0.0
 11
258.994
 21
96.7465
 31
0.0
  0
LINE
  8
0
 62
     0
 10
258.994
 20
96.7465
 30
0.0
 11
258.994
 21
93.6459
 31
0.0
  0
LINE
  8
0
 62
     0
 10
258.994
 20
93.6459
 30
0.0
 11
259.795
 21
93.6459
 31
0.0
  0
LINE
  8
0
 62
     0
 10
259.795
 20
93.6459
 30
0.0
 11
259.795
 21
93.0465
 31
0.0
  0
LINE
  8
0
 62
     0
 10
259.795
 20
93.0465
 30
0.0
 11
258.269
 21
93.0465
 31
0.0
  0
LINE
  8
0
 62
     0
 10
258.269
 20
93.0465
 30
0.0
 11
258.269
 21
96.2766
 31
0.0
  0
LINE
  8
0
 62
     0
 10
258.269
 20
96.2766
 30
0.0
 11
251.52
 21
96.2766
 31
0.0
  0
LINE
  8
0
 62
     0
 10
251.52
 20
96.2766
 30
0.0
 11
251.52
 21
93.0465
 31
0.0
  0
LINE
  8
0
 62
     0
 10
251.52
 20
93.0465
 30
0.0
 11
250.694
 21
93.0465
 31
0.0
  0
LINE
  8
0
 62
     0
 10
250.694
 20
93.0465
 30
0.0
 11
250.694
 21
90.2462
 31
0.0
  0
LINE
  8
0
 62
     0
 10
250.694
 20
90.2462
 30
0.0
 11
251.52
 21
90.2462
 31
0.0
  0
LINE
  8
0
 62
     0
 10
251.52
 20
90.2462
 30
0.0
 11
251.52
 21
83.9763
 31
0.0
  0
LINE
  8
0
 62
     0
 10
251.52
 20
83.9763
 30
0.0
 11
253.243
 21
83.9763
 31
0.0
  0
LINE
  8
0
 62
     0
 10
253.243
 20
83.9763
 30
0.0
 11
253.243
 21
82.7761
 31
0.0
  0
LINE
  8
0
 62
     0
 10
253.243
 20
82.7761
 30
0.0
 11
256.544
 21
82.7761
 31
0.0
  0
LINE
  8
0
 62
     0
 10
256.544
 20
82.7761
 30
0.0
 11
256.544
 21
83.9763
 31
0.0
  0
LINE
  8
0
 62
     0
 10
256.544
 20
83.9763
 30
0.0
 11
258.269
 21
83.9763
 31
0.0
  0
LINE
  8
0
 62
     0
 10
258.269
 20
83.9763
 30
0.0
 11
258.269
 21
88.4467
 31
0.0
  0
LINE
  8
0
 62
     0
 10
258.269
 20
88.4467
 30
0.0
 11
259.795
 21
88.4467
 31
0.0
  0
LINE
  8
0
 62
     0
 10
259.795
 20
88.4467
 30
0.0
 11
259.795
 21
87.8459
 31
0.0
  0
LINE
  8
0
 62
     0
 10
259.795
 20
87.8459
 30
0.0
 11
258.994
 21
87.8459
 31
0.0
  0
LINE
  8
0
 62
     0
 10
258.994
 20
87.8459
 30
0.0
 11
258.994
 21
84.7467
 31
0.0
  0
LINE
  8
0
 62
     0
 10
258.994
 20
84.7467
 30
0.0
 11
259.795
 21
84.7467
 31
0.0
  0
LINE
  8
0
 62
     0
 10
259.795
 20
84.7467
 30
0.0
 11
259.795
 21
83.7463
 31
0.0
  0
LINE
  8
0
 62
     0
 10
259.795
 20
83.7463
 30
0.0
 11
273.794
 21
83.7463
 31
0.0
  0
LINE
  8
0
 62
     0
 10
273.794
 20
83.7463
 30
0.0
 11
273.794
 21
84.7467
 31
0.0
  0
LINE
  8
0
 62
     0
 10
273.794
 20
84.7467
 30
0.0
 11
274.595
 21
84.7467
 31
0.0
  0
LINE
  8
0
 62
     0
 10
274.595
 20
84.7467
 30
0.0
 11
274.595
 21
87.8459
 31
0.0
  0
LINE
  8
0
 62
     0
 10
274.595
 20
87.8459
 30
0.0
 11
273.794
 21
87.8459
 31
0.0
  0
LINE
  8
0
 62
     0
 10
273.794
 20
87.8459
 30
0.0
 11
273.794
 21
88.4467
 31
0.0
  0
LINE
  8
0
 62
     0
 10
273.794
 20
88.4467
 30
0.0
 11
275.32
 21
88.4467
 31
0.0
  0
LINE
  8
0
 62
     0
 10
275.32
 20
88.4467
 30
0.0
 11
275.32
 21
83.9763
 31
0.0
  0
LINE
  8
0
 62
     0
 10
275.32
 20
83.9763
 30
0.0
 11
277.045
 21
83.9763
 31
0.0
  0
LINE
  8
0
 62
     0
 10
277.045
 20
83.9763
 30
0.0
 11
277.045
 21
82.7761
 31
0.0
  0
LINE
  8
0
 62
     0
 10
277.045
 20
82.7761
 30
0.0
 11
280.344
 21
82.7761
 31
0.0
  0
LINE
  8
0
 62
     0
 10
280.344
 20
82.7761
 30
0.0
 11
280.344
 21
83.9763
 31
0.0
  0
LINE
  8
0
 62
     0
 10
280.344
 20
83.9763
 30
0.0
 11
282.069
 21
83.9763
 31
0.0
  0
LINE
  8
0
 62
     0
 10
282.069
 20
83.9763
 30
0.0
 11
282.069
 21
90.2462
 31
0.0
  0
LINE
  8
0
 62
     0
 10
282.069
 20
90.2462
 30
0.0
 11
282.895
 21
90.2462
 31
0.0
  0
LINE
  8
0
 62
     0
 10
282.895
 20
90.2462
 30
0.0
 11
282.895
 21
93.0465
 31
0.0
  0
LINE
  8
0
 62
     0
 10
282.895
 20
93.0465
 30
0.0
 11
282.069
 21
93.0465
 31
0.0
  0
LINE
  8
0
 62
     0
 10
282.069
 20
93.0465
 30
0.0
 11
282.069
 21
96.2766
 31
0.0
  0
LINE
  8
0
 62
     0
 10
282.069
 20
96.2766
 30
0.0
 11
275.32
 21
96.2766
 31
0.0
  0
LINE
  8
0
 62
     0
 10
275.32
 20
96.2766
 30
0.0
 11
275.32
 21
93.0465
 31
0.0
  0
LINE
  8
0
 62
     0
 10
275.32
 20
93.0465
 30
0.0
 11
273.794
 21
93.0465
 31
0.0
  0
LINE
  8
0
 62
     0
 10
273.794
 20
93.0465
 30
0.0
 11
273.794
 21
93.6459
 31
0.0
  0
LINE
  8
0
 62
     0
 10
273.794
 20
93.6459
 30
0.0
 11
274.595
 21
93.6459
 31
0.0
  0
LINE
  8
0
 62
     0
 10
274.595
 20
93.6459
 30
0.0
 11
274.595
 21
96.7465
 31
0.0
  0
LINE
  8
0
 62
     0
 10
274.595
 20
96.7465
 30
0.0
 11
273.794
 21
96.7465
 31
0.0
  0
LINE
  8
0
 62
     0
 10
273.794
 20
96.7465
 30
0.0
 11
273.794
 21
97.7456
 31
0.0
  0
LINE
  8
0
 62
     0
 10
273.794
 20
97.7456
 30
0.0
 11
259.795
 21
97.7456
 31
0.0
  0
LINE
  8
0
 62
     0
 10
293.132
 20
97.7456
 30
0.0
 11
293.132
 21
96.7465
 31
0.0
  0
LINE
  8
0
 62
     0
 10
293.132
 20
96.7465
 30
0.0
 11
292.331
 21
96.7465
 31
0.0
  0
LINE
  8
0
 62
     0
 10
292.331
 20
96.7465
 30
0.0
 11
292.331
 21
93.6459
 31
0.0
  0
LINE
  8
0
 62
     0
 10
292.331
 20
93.6459
 30
0.0
 11
293.132
 21
93.6459
 31
0.0
  0
LINE
  8
0
 62
     0
 10
293.132
 20
93.6459
 30
0.0
 11
293.132
 21
87.8459
 31
0.0
  0
LINE
  8
0
 62
     0
 10
293.132
 20
87.8459
 30
0.0
 11
292.331
 21
87.8459
 31
0.0
  0
LINE
  8
0
 62
     0
 10
292.331
 20
87.8459
 30
0.0
 11
292.331
 21
84.7467
 31
0.0
  0
LINE
  8
0
 62
     0
 10
292.331
 20
84.7467
 30
0.0
 11
293.132
 21
84.7467
 31
0.0
  0
LINE
  8
0
 62
     0
 10
293.132
 20
84.7467
 30
0.0
 11
293.132
 21
83.7463
 31
0.0
  0
LINE
  8
0
 62
     0
 10
293.132
 20
83.7463
 30
0.0
 11
307.132
 21
83.7463
 31
0.0
  0
LINE
  8
0
 62
     0
 10
307.132
 20
83.7463
 30
0.0
 11
307.132
 21
84.7467
 31
0.0
  0
LINE
  8
0
 62
     0
 10
307.132
 20
84.7467
 30
0.0
 11
307.931
 21
84.7467
 31
0.0
  0
LINE
  8
0
 62
     0
 10
307.931
 20
84.7467
 30
0.0
 11
307.931
 21
87.8459
 31
0.0
  0
LINE
  8
0
 62
     0
 10
307.931
 20
87.8459
 30
0.0
 11
307.132
 21
87.8459
 31
0.0
  0
LINE
  8
0
 62
     0
 10
307.132
 20
87.8459
 30
0.0
 11
307.132
 21
93.6459
 31
0.0
  0
LINE
  8
0
 62
     0
 10
307.132
 20
93.6459
 30
0.0
 11
307.931
 21
93.6459
 31
0.0
  0
LINE
  8
0
 62
     0
 10
307.931
 20
93.6459
 30
0.0
 11
307.931
 21
96.7465
 31
0.0
  0
LINE
  8
0
 62
     0
 10
307.931
 20
96.7465
 30
0.0
 11
307.132
 21
96.7465
 31
0.0
  0
LINE
  8
0
 62
     0
 10
307.132
 20
96.7465
 30
0.0
 11
307.132
 21
97.7456
 31
0.0
  0
LINE
  8
0
 62
     0
 10
307.132
 20
97.7456
 30
0.0
 11
293.132
 21
97.7456
 31
0.0
  0
LINE
  8
0
 62
     0
 10
231.22
 20
97.7456
 30
0.0
 11
231.22
 21
96.7465
 31
0.0
  0
LINE
  8
0
 62
     0
 10
231.22
 20
96.7465
 30
0.0
 11
230.419
 21
96.7465
 31
0.0
  0
LINE
  8
0
 62
     0
 10
230.419
 20
96.7465
 30
0.0
 11
230.419
 21
93.6459
 31
0.0
  0
LINE
  8
0
 62
     0
 10
230.419
 20
93.6459
 30
0.0
 11
231.22
 21
93.6459
 31
0.0
  0
LINE
  8
0
 62
     0
 10
231.22
 20
93.6459
 30
0.0
 11
231.22
 21
87.8459
 31
0.0
  0
LINE
  8
0
 62
     0
 10
231.22
 20
87.8459
 30
0.0
 11
230.419
 21
87.8459
 31
0.0
  0
LINE
  8
0
 62
     0
 10
230.419
 20
87.8459
 30
0.0
 11
230.419
 21
84.7467
 31
0.0
  0
LINE
  8
0
 62
     0
 10
230.419
 20
84.7467
 30
0.0
 11
231.22
 21
84.7467
 31
0.0
  0
LINE
  8
0
 62
     0
 10
231.22
 20
84.7467
 30
0.0
 11
231.22
 21
83.7463
 31
0.0
  0
LINE
  8
0
 62
     0
 10
231.22
 20
83.7463
 30
0.0
 11
245.219
 21
83.7463
 31
0.0
  0
LINE
  8
0
 62
     0
 10
245.219
 20
83.7463
 30
0.0
 11
245.219
 21
84.7467
 31
0.0
  0
LINE
  8
0
 62
     0
 10
245.219
 20
84.7467
 30
0.0
 11
246.02
 21
84.7467
 31
0.0
  0
LINE
  8
0
 62
     0
 10
246.02
 20
84.7467
 30
0.0
 11
246.02
 21
87.8459
 31
0.0
  0
LINE
  8
0
 62
     0
 10
246.02
 20
87.8459
 30
0.0
 11
245.219
 21
87.8459
 31
0.0
  0
LINE
  8
0
 62
     0
 10
245.219
 20
87.8459
 30
0.0
 11
245.219
 21
93.6459
 31
0.0
  0
LINE
  8
0
 62
     0
 10
245.219
 20
93.6459
 30
0.0
 11
246.02
 21
93.6459
 31
0.0
  0
LINE
  8
0
 62
     0
 10
246.02
 20
93.6459
 30
0.0
 11
246.02
 21
96.7465
 31
0.0
  0
LINE
  8
0
 62
     0
 10
246.02
 20
96.7465
 30
0.0
 11
245.219
 21
96.7465
 31
0.0
  0
LINE
  8
0
 62
     0
 10
245.219
 20
96.7465
 30
0.0
 11
245.219
 21
97.7456
 31
0.0
  0
LINE
  8
0
 62
     0
 10
245.219
 20
97.7456
 30
0.0
 11
231.22
 21
97.7456
 31
0.0
  0
LINE
  8
0
 62
     0
 10
212.17
 20
97.7456
 30
0.0
 11
212.17
 21
96.7465
 31
0.0
  0
LINE
  8
0
 62
     0
 10
212.17
 20
96.7465
 30
0.0
 11
211.369
 21
96.7465
 31
0.0
  0
LINE
  8
0
 62
     0
 10
211.369
 20
96.7465
 30
0.0
 11
211.369
 21
93.6459
 31
0.0
  0
LINE
  8
0
 62
     0
 10
211.369
 20
93.6459
 30
0.0
 11
212.17
 21
93.6459
 31
0.0
  0
LINE
  8
0
 62
     0
 10
212.17
 20
93.6459
 30
0.0
 11
212.17
 21
87.8459
 31
0.0
  0
LINE
  8
0
 62
     0
 10
212.17
 20
87.8459
 30
0.0
 11
211.369
 21
87.8459
 31
0.0
  0
LINE
  8
0
 62
     0
 10
211.369
 20
87.8459
 30
0.0
 11
211.369
 21
84.7467
 31
0.0
  0
LINE
  8
0
 62
     0
 10
211.369
 20
84.7467
 30
0.0
 11
212.17
 21
84.7467
 31
0.0
  0
LINE
  8
0
 62
     0
 10
212.17
 20
84.7467
 30
0.0
 11
212.17
 21
83.7463
 31
0.0
  0
LINE
  8
0
 62
     0
 10
212.17
 20
83.7463
 30
0.0
 11
226.169
 21
83.7463
 31
0.0
  0
LINE
  8
0
 62
     0
 10
226.169
 20
83.7463
 30
0.0
 11
226.169
 21
84.7467
 31
0.0
  0
LINE
  8
0
 62
     0
 10
226.169
 20
84.7467
 30
0.0
 11
226.97
 21
84.7467
 31
0.0
  0
LINE
  8
0
 62
     0
 10
226.97
 20
84.7467
 30
0.0
 11
226.97
 21
87.8459
 31
0.0
  0
LINE
  8
0
 62
     0
 10
226.97
 20
87.8459
 30
0.0
 11
226.169
 21
87.8459
 31
0.0
  0
LINE
  8
0
 62
     0
 10
226.169
 20
87.8459
 30
0.0
 11
226.169
 21
93.6459
 31
0.0
  0
LINE
  8
0
 62
     0
 10
226.169
 20
93.6459
 30
0.0
 11
226.97
 21
93.6459
 31
0.0
  0
LINE
  8
0
 62
     0
 10
226.97
 20
93.6459
 30
0.0
 11
226.97
 21
96.7465
 31
0.0
  0
LINE
  8
0
 62
     0
 10
226.97
 20
96.7465
 30
0.0
 11
226.169
 21
96.7465
 31
0.0
  0
LINE
  8
0
 62
     0
 10
226.169
 20
96.7465
 30
0.0
 11
226.169
 21
97.7456
 31
0.0
  0
LINE
  8
0
 62
     0
 10
226.169
 20
97.7456
 30
0.0
 11
212.17
 21
97.7456
 31
0.0
  0
LINE
  8
0
 62
     0
 10
193.12
 20
97.7456
 30
0.0
 11
193.12
 21
96.7465
 31
0.0
  0
LINE
  8
0
 62
     0
 10
193.12
 20
96.7465
 30
0.0
 11
192.319
 21
96.7465
 31
0.0
  0
LINE
  8
0
 62
     0
 10
192.319
 20
96.7465
 30
0.0
 11
192.319
 21
93.6459
 31
0.0
  0
LINE
  8
0
 62
     0
 10
192.319
 20
93.6459
 30
0.0
 11
193.12
 21
93.6459
 31
0.0
  0
LINE
  8
0
 62
     0
 10
193.12
 20
93.6459
 30
0.0
 11
193.12
 21
87.8459
 31
0.0
  0
LINE
  8
0
 62
     0
 10
193.12
 20
87.8459
 30
0.0
 11
192.319
 21
87.8459
 31
0.0
  0
LINE
  8
0
 62
     0
 10
192.319
 20
87.8459
 30
0.0
 11
192.319
 21
84.7467
 31
0.0
  0
LINE
  8
0
 62
     0
 10
192.319
 20
84.7467
 30
0.0
 11
193.12
 21
84.7467
 31
0.0
  0
LINE
  8
0
 62
     0
 10
193.12
 20
84.7467
 30
0.0
 11
193.12
 21
83.7463
 31
0.0
  0
LINE
  8
0
 62
     0
 10
193.12
 20
83.7463
 30
0.0
 11
207.119
 21
83.7463
 31
0.0
  0
LINE
  8
0
 62
     0
 10
207.119
 20
83.7463
 30
0.0
 11
207.119
 21
84.7467
 31
0.0
  0
LINE
  8
0
 62
     0
 10
207.119
 20
84.7467
 30
0.0
 11
207.92
 21
84.7467
 31
0.0
  0
LINE
  8
0
 62
     0
 10
207.92
 20
84.7467
 30
0.0
 11
207.92
 21
87.8459
 31
0.0
  0
LINE
  8
0
 62
     0
 10
207.92
 20
87.8459
 30
0.0
 11
207.119
 21
87.8459
 31
0.0
  0
LINE
  8
0
 62
     0
 10
207.119
 20
87.8459
 30
0.0
 11
207.119
 21
93.6459
 31
0.0
  0
LINE
  8
0
 62
     0
 10
207.119
 20
93.6459
 30
0.0
 11
207.92
 21
93.6459
 31
0.0
  0
LINE
  8
0
 62
     0
 10
207.92
 20
93.6459
 30
0.0
 11
207.92
 21
96.7465
 31
0.0
  0
LINE
  8
0
 62
     0
 10
207.92
 20
96.7465
 30
0.0
 11
207.119
 21
96.7465
 31
0.0
  0
LINE
  8
0
 62
     0
 10
207.119
 20
96.7465
 30
0.0
 11
207.119
 21
97.7456
 31
0.0
  0
LINE
  8
0
 62
     0
 10
207.119
 20
97.7456
 30
0.0
 11
193.12
 21
97.7456
 31
0.0
  0
LINE
  8
0
 62
     0
 10
174.07
 20
97.7456
 30
0.0
 11
174.07
 21
96.7465
 31
0.0
  0
LINE
  8
0
 62
     0
 10
174.07
 20
96.7465
 30
0.0
 11
173.269
 21
96.7465
 31
0.0
  0
LINE
  8
0
 62
     0
 10
173.269
 20
96.7465
 30
0.0
 11
173.269
 21
93.6459
 31
0.0
  0
LINE
  8
0
 62
     0
 10
173.269
 20
93.6459
 30
0.0
 11
174.07
 21
93.6459
 31
0.0
  0
LINE
  8
0
 62
     0
 10
174.07
 20
93.6459
 30
0.0
 11
174.07
 21
87.8459
 31
0.0
  0
LINE
  8
0
 62
     0
 10
174.07
 20
87.8459
 30
0.0
 11
173.269
 21
87.8459
 31
0.0
  0
LINE
  8
0
 62
     0
 10
173.269
 20
87.8459
 30
0.0
 11
173.269
 21
84.7467
 31
0.0
  0
LINE
  8
0
 62
     0
 10
173.269
 20
84.7467
 30
0.0
 11
174.07
 21
84.7467
 31
0.0
  0
LINE
  8
0
 62
     0
 10
174.07
 20
84.7467
 30
0.0
 11
174.07
 21
83.7463
 31
0.0
  0
LINE
  8
0
 62
     0
 10
174.07
 20
83.7463
 30
0.0
 11
188.069
 21
83.7463
 31
0.0
  0
LINE
  8
0
 62
     0
 10
188.069
 20
83.7463
 30
0.0
 11
188.069
 21
84.7467
 31
0.0
  0
LINE
  8
0
 62
     0
 10
188.069
 20
84.7467
 30
0.0
 11
188.87
 21
84.7467
 31
0.0
  0
LINE
  8
0
 62
     0
 10
188.87
 20
84.7467
 30
0.0
 11
188.87
 21
87.8459
 31
0.0
  0
LINE
  8
0
 62
     0
 10
188.87
 20
87.8459
 30
0.0
 11
188.069
 21
87.8459
 31
0.0
  0
LINE
  8
0
 62
     0
 10
188.069
 20
87.8459
 30
0.0
 11
188.069
 21
93.6459
 31
0.0
  0
LINE
  8
0
 62
     0
 10
188.069
 20
93.6459
 30
0.0
 11
188.87
 21
93.6459
 31
0.0
  0
LINE
  8
0
 62
     0
 10
188.87
 20
93.6459
 30
0.0
 11
188.87
 21
96.7465
 31
0.0
  0
LINE
  8
0
 62
     0
 10
188.87
 20
96.7465
 30
0.0
 11
188.069
 21
96.7465
 31
0.0
  0
LINE
  8
0
 62
     0
 10
188.069
 20
96.7465
 30
0.0
 11
188.069
 21
97.7456
 31
0.0
  0
LINE
  8
0
 62
     0
 10
188.069
 20
97.7456
 30
0.0
 11
174.07
 21
97.7456
 31
0.0
  0
LINE
  8
0
 62
     0
 10
155.02
 20
97.7456
 30
0.0
 11
155.02
 21
96.7465
 31
0.0
  0
LINE
  8
0
 62
     0
 10
155.02
 20
96.7465
 30
0.0
 11
154.219
 21
96.7465
 31
0.0
  0
LINE
  8
0
 62
     0
 10
154.219
 20
96.7465
 30
0.0
 11
154.219
 21
93.6459
 31
0.0
  0
LINE
  8
0
 62
     0
 10
154.219
 20
93.6459
 30
0.0
 11
155.02
 21
93.6459
 31
0.0
  0
LINE
  8
0
 62
     0
 10
155.02
 20
93.6459
 30
0.0
 11
155.02
 21
87.8459
 31
0.0
  0
LINE
  8
0
 62
     0
 10
155.02
 20
87.8459
 30
0.0
 11
154.219
 21
87.8459
 31
0.0
  0
LINE
  8
0
 62
     0
 10
154.219
 20
87.8459
 30
0.0
 11
154.219
 21
84.7467
 31
0.0
  0
LINE
  8
0
 62
     0
 10
154.219
 20
84.7467
 30
0.0
 11
155.02
 21
84.7467
 31
0.0
  0
LINE
  8
0
 62
     0
 10
155.02
 20
84.7467
 30
0.0
 11
155.02
 21
83.7463
 31
0.0
  0
LINE
  8
0
 62
     0
 10
155.02
 20
83.7463
 30
0.0
 11
169.019
 21
83.7463
 31
0.0
  0
LINE
  8
0
 62
     0
 10
169.019
 20
83.7463
 30
0.0
 11
169.019
 21
84.7467
 31
0.0
  0
LINE
  8
0
 62
     0
 10
169.019
 20
84.7467
 30
0.0
 11
169.82
 21
84.7467
 31
0.0
  0
LINE
  8
0
 62
     0
 10
169.82
 20
84.7467
 30
0.0
 11
169.82
 21
87.8459
 31
0.0
  0
LINE
  8
0
 62
     0
 10
169.82
 20
87.8459
 30
0.0
 11
169.019
 21
87.8459
 31
0.0
  0
LINE
  8
0
 62
     0
 10
169.019
 20
87.8459
 30
0.0
 11
169.019
 21
93.6459
 31
0.0
  0
LINE
  8
0
 62
     0
 10
169.019
 20
93.6459
 30
0.0
 11
169.82
 21
93.6459
 31
0.0
  0
LINE
  8
0
 62
     0
 10
169.82
 20
93.6459
 30
0.0
 11
169.82
 21
96.7465
 31
0.0
  0
LINE
  8
0
 62
     0
 10
169.82
 20
96.7465
 30
0.0
 11
169.019
 21
96.7465
 31
0.0
  0
LINE
  8
0
 62
     0
 10
169.019
 20
96.7465
 30
0.0
 11
169.019
 21
97.7456
 31
0.0
  0
LINE
  8
0
 62
     0
 10
169.019
 20
97.7456
 30
0.0
 11
155.02
 21
97.7456
 31
0.0
  0
LINE
  8
0
 62
     0
 10
135.97
 20
97.7456
 30
0.0
 11
135.97
 21
96.7465
 31
0.0
  0
LINE
  8
0
 62
     0
 10
135.97
 20
96.7465
 30
0.0
 11
135.169
 21
96.7465
 31
0.0
  0
LINE
  8
0
 62
     0
 10
135.169
 20
96.7465
 30
0.0
 11
135.169
 21
93.6459
 31
0.0
  0
LINE
  8
0
 62
     0
 10
135.169
 20
93.6459
 30
0.0
 11
135.97
 21
93.6459
 31
0.0
  0
LINE
  8
0
 62
     0
 10
135.97
 20
93.6459
 30
0.0
 11
135.97
 21
87.8459
 31
0.0
  0
LINE
  8
0
 62
     0
 10
135.97
 20
87.8459
 30
0.0
 11
135.169
 21
87.8459
 31
0.0
  0
LINE
  8
0
 62
     0
 10
135.169
 20
87.8459
 30
0.0
 11
135.169
 21
84.7467
 31
0.0
  0
LINE
  8
0
 62
     0
 10
135.169
 20
84.7467
 30
0.0
 11
135.97
 21
84.7467
 31
0.0
  0
LINE
  8
0
 62
     0
 10
135.97
 20
84.7467
 30
0.0
 11
135.97
 21
83.7463
 31
0.0
  0
LINE
  8
0
 62
     0
 10
135.97
 20
83.7463
 30
0.0
 11
149.969
 21
83.7463
 31
0.0
  0
LINE
  8
0
 62
     0
 10
149.969
 20
83.7463
 30
0.0
 11
149.969
 21
84.7467
 31
0.0
  0
LINE
  8
0
 62
     0
 10
149.969
 20
84.7467
 30
0.0
 11
150.77
 21
84.7467
 31
0.0
  0
LINE
  8
0
 62
     0
 10
150.77
 20
84.7467
 30
0.0
 11
150.77
 21
87.8459
 31
0.0
  0
LINE
  8
0
 62
     0
 10
150.77
 20
87.8459
 30
0.0
 11
149.969
 21
87.8459
 31
0.0
  0
LINE
  8
0
 62
     0
 10
149.969
 20
87.8459
 30
0.0
 11
149.969
 21
93.6459
 31
0.0
  0
LINE
  8
0
 62
     0
 10
149.969
 20
93.6459
 30
0.0
 11
150.77
 21
93.6459
 31
0.0
  0
LINE
  8
0
 62
     0
 10
150.77
 20
93.6459
 30
0.0
 11
150.77
 21
96.7465
 31
0.0
  0
LINE
  8
0
 62
     0
 10
150.77
 20
96.7465
 30
0.0
 11
149.969
 21
96.7465
 31
0.0
  0
LINE
  8
0
 62
     0
 10
149.969
 20
96.7465
 30
0.0
 11
149.969
 21
97.7456
 31
0.0
  0
LINE
  8
0
 62
     0
 10
149.969
 20
97.7456
 30
0.0
 11
135.97
 21
97.7456
 31
0.0
  0
LINE
  8
0
 62
     0
 10
116.918
 20
97.7456
 30
0.0
 11
116.918
 21
96.7465
 31
0.0
  0
LINE
  8
0
 62
     0
 10
116.918
 20
96.7465
 30
0.0
 11
116.119
 21
96.7465
 31
0.0
  0
LINE
  8
0
 62
     0
 10
116.119
 20
96.7465
 30
0.0
 11
116.119
 21
93.6459
 31
0.0
  0
LINE
  8
0
 62
     0
 10
116.119
 20
93.6459
 30
0.0
 11
116.918
 21
93.6459
 31
0.0
  0
LINE
  8
0
 62
     0
 10
116.918
 20
93.6459
 30
0.0
 11
116.918
 21
87.8459
 31
0.0
  0
LINE
  8
0
 62
     0
 10
116.918
 20
87.8459
 30
0.0
 11
116.119
 21
87.8459
 31
0.0
  0
LINE
  8
0
 62
     0
 10
116.119
 20
87.8459
 30
0.0
 11
116.119
 21
84.7467
 31
0.0
  0
LINE
  8
0
 62
     0
 10
116.119
 20
84.7467
 30
0.0
 11
116.918
 21
84.7467
 31
0.0
  0
LINE
  8
0
 62
     0
 10
116.918
 20
84.7467
 30
0.0
 11
116.918
 21
83.7463
 31
0.0
  0
LINE
  8
0
 62
     0
 10
116.918
 20
83.7463
 30
0.0
 11
130.919
 21
83.7463
 31
0.0
  0
LINE
  8
0
 62
     0
 10
130.919
 20
83.7463
 30
0.0
 11
130.919
 21
84.7467
 31
0.0
  0
LINE
  8
0
 62
     0
 10
130.919
 20
84.7467
 30
0.0
 11
131.72
 21
84.7467
 31
0.0
  0
LINE
  8
0
 62
     0
 10
131.72
 20
84.7467
 30
0.0
 11
131.72
 21
87.8459
 31
0.0
  0
LINE
  8
0
 62
     0
 10
131.72
 20
87.8459
 30
0.0
 11
130.919
 21
87.8459
 31
0.0
  0
LINE
  8
0
 62
     0
 10
130.919
 20
87.8459
 30
0.0
 11
130.919
 21
93.6459
 31
0.0
  0
LINE
  8
0
 62
     0
 10
130.919
 20
93.6459
 30
0.0
 11
131.72
 21
93.6459
 31
0.0
  0
LINE
  8
0
 62
     0
 10
131.72
 20
93.6459
 30
0.0
 11
131.72
 21
96.7465
 31
0.0
  0
LINE
  8
0
 62
     0
 10
131.72
 20
96.7465
 30
0.0
 11
130.919
 21
96.7465
 31
0.0
  0
LINE
  8
0
 62
     0
 10
130.919
 20
96.7465
 30
0.0
 11
130.919
 21
97.7456
 31
0.0
  0
LINE
  8
0
 62
     0
 10
130.919
 20
97.7456
 30
0.0
 11
116.918
 21
97.7456
 31
0.0
  0
LINE
  8
0
 62
     0
 10
97.8683
 20
97.7456
 30
0.0
 11
97.8683
 21
96.7465
 31
0.0
  0
LINE
  8
0
 62
     0
 10
97.8683
 20
96.7465
 30
0.0
 11
97.0689
 21
96.7465
 31
0.0
  0
LINE
  8
0
 62
     0
 10
97.0689
 20
96.7465
 30
0.0
 11
97.0689
 21
93.6459
 31
0.0
  0
LINE
  8
0
 62
     0
 10
97.0689
 20
93.6459
 30
0.0
 11
97.8683
 21
93.6459
 31
0.0
  0
LINE
  8
0
 62
     0
 10
97.8683
 20
93.6459
 30
0.0
 11
97.8683
 21
87.8459
 31
0.0
  0
LINE
  8
0
 62
     0
 10
97.8683
 20
87.8459
 30
0.0
 11
97.0689
 21
87.8459
 31
0.0
  0
LINE
  8
0
 62
     0
 10
97.0689
 20
87.8459
 30
0.0
 11
97.0689
 21
84.7467
 31
0.0
  0
LINE
  8
0
 62
     0
 10
97.0689
 20
84.7467
 30
0.0
 11
97.8683
 21
84.7467
 31
0.0
  0
LINE
  8
0
 62
     0
 10
97.8683
 20
84.7467
 30
0.0
 11
97.8683
 21
83.7463
 31
0.0
  0
LINE
  8
0
 62
     0
 10
97.8683
 20
83.7463
 30
0.0
 11
111.869
 21
83.7463
 31
0.0
  0
LINE
  8
0
 62
     0
 10
111.869
 20
83.7463
 30
0.0
 11
111.869
 21
84.7467
 31
0.0
  0
LINE
  8
0
 62
     0
 10
111.869
 20
84.7467
 30
0.0
 11
112.668
 21
84.7467
 31
0.0
  0
LINE
  8
0
 62
     0
 10
112.668
 20
84.7467
 30
0.0
 11
112.668
 21
87.8459
 31
0.0
  0
LINE
  8
0
 62
     0
 10
112.668
 20
87.8459
 30
0.0
 11
111.869
 21
87.8459
 31
0.0
  0
LINE
  8
0
 62
     0
 10
111.869
 20
87.8459
 30
0.0
 11
111.869
 21
93.6459
 31
0.0
  0
LINE
  8
0
 62
     0
 10
111.869
 20
93.6459
 30
0.0
 11
112.668
 21
93.6459
 31
0.0
  0
LINE
  8
0
 62
     0
 10
112.668
 20
93.6459
 30
0.0
 11
112.668
 21
96.7465
 31
0.0
  0
LINE
  8
0
 62
     0
 10
112.668
 20
96.7465
 30
0.0
 11
111.869
 21
96.7465
 31
0.0
  0
LINE
  8
0
 62
     0
 10
111.869
 20
96.7465
 30
0.0
 11
111.869
 21
97.7456
 31
0.0
  0
LINE
  8
0
 62
     0
 10
111.869
 20
97.7456
 30
0.0
 11
97.8683
 21
97.7456
 31
0.0
  0
LINE
  8
0
 62
     0
 10
78.8197
 20
97.7456
 30
0.0
 11
78.8197
 21
96.7465
 31
0.0
  0
LINE
  8
0
 62
     0
 10
78.8197
 20
96.7465
 30
0.0
 11
78.0189
 21
96.7465
 31
0.0
  0
LINE
  8
0
 62
     0
 10
78.0189
 20
96.7465
 30
0.0
 11
78.0189
 21
93.6459
 31
0.0
  0
LINE
  8
0
 62
     0
 10
78.0189
 20
93.6459
 30
0.0
 11
78.8197
 21
93.6459
 31
0.0
  0
LINE
  8
0
 62
     0
 10
78.8197
 20
93.6459
 30
0.0
 11
78.8197
 21
87.8459
 31
0.0
  0
LINE
  8
0
 62
     0
 10
78.8197
 20
87.8459
 30
0.0
 11
78.0189
 21
87.8459
 31
0.0
  0
LINE
  8
0
 62
     0
 10
78.0189
 20
87.8459
 30
0.0
 11
78.0189
 21
84.7467
 31
0.0
  0
LINE
  8
0
 62
     0
 10
78.0189
 20
84.7467
 30
0.0
 11
78.8197
 21
84.7467
 31
0.0
  0
LINE
  8
0
 62
     0
 10
78.8197
 20
84.7467
 30
0.0
 11
78.8197
 21
83.7463
 31
0.0
  0
LINE
  8
0
 62
     0
 10
78.8197
 20
83.7463
 30
0.0
 11
92.819
 21
83.7463
 31
0.0
  0
LINE
  8
0
 62
     0
 10
92.819
 20
83.7463
 30
0.0
 11
92.819
 21
84.7467
 31
0.0
  0
LINE
  8
0
 62
     0
 10
92.819
 20
84.7467
 30
0.0
 11
93.6184
 21
84.7467
 31
0.0
  0
LINE
  8
0
 62
     0
 10
93.6184
 20
84.7467
 30
0.0
 11
93.6184
 21
87.8459
 31
0.0
  0
LINE
  8
0
 62
     0
 10
93.6184
 20
87.8459
 30
0.0
 11
92.819
 21
87.8459
 31
0.0
  0
LINE
  8
0
 62
     0
 10
92.819
 20
87.8459
 30
0.0
 11
92.819
 21
93.6459
 31
0.0
  0
LINE
  8
0
 62
     0
 10
92.819
 20
93.6459
 30
0.0
 11
93.6184
 21
93.6459
 31
0.0
  0
LINE
  8
0
 62
     0
 10
93.6184
 20
93.6459
 30
0.0
 11
93.6184
 21
96.7465
 31
0.0
  0
LINE
  8
0
 62
     0
 10
93.6184
 20
96.7465
 30
0.0
 11
92.819
 21
96.7465
 31
0.0
  0
LINE
  8
0
 62
     0
 10
92.819
 20
96.7465
 30
0.0
 11
92.819
 21
97.7456
 31
0.0
  0
LINE
  8
0
 62
     0
 10
92.819
 20
97.7456
 30
0.0
 11
78.8197
 21
97.7456
 31
0.0
  0
LINE
  8
0
 62
     0
 10
59.7697
 20
97.7456
 30
0.0
 11
59.7697
 21
96.7465
 31
0.0
  0
LINE
  8
0
 62
     0
 10
59.7697
 20
96.7465
 30
0.0
 11
58.9689
 21
96.7465
 31
0.0
  0
LINE
  8
0
 62
     0
 10
58.9689
 20
96.7465
 30
0.0
 11
58.9689
 21
93.6459
 31
0.0
  0
LINE
  8
0
 62
     0
 10
58.9689
 20
93.6459
 30
0.0
 11
59.7697
 21
93.6459
 31
0.0
  0
LINE
  8
0
 62
     0
 10
59.7697
 20
93.6459
 30
0.0
 11
59.7697
 21
87.8459
 31
0.0
  0
LINE
  8
0
 62
     0
 10
59.7697
 20
87.8459
 30
0.0
 11
58.9689
 21
87.8459
 31
0.0
  0
LINE
  8
0
 62
     0
 10
58.9689
 20
87.8459
 30
0.0
 11
58.9689
 21
84.7467
 31
0.0
  0
LINE
  8
0
 62
     0
 10
58.9689
 20
84.7467
 30
0.0
 11
59.7697
 21
84.7467
 31
0.0
  0
LINE
  8
0
 62
     0
 10
59.7697
 20
84.7467
 30
0.0
 11
59.7697
 21
83.7463
 31
0.0
  0
LINE
  8
0
 62
     0
 10
59.7697
 20
83.7463
 30
0.0
 11
73.769
 21
83.7463
 31
0.0
  0
LINE
  8
0
 62
     0
 10
73.769
 20
83.7463
 30
0.0
 11
73.769
 21
84.7467
 31
0.0
  0
LINE
  8
0
 62
     0
 10
73.769
 20
84.7467
 30
0.0
 11
74.5698
 21
84.7467
 31
0.0
  0
LINE
  8
0
 62
     0
 10
74.5698
 20
84.7467
 30
0.0
 11
74.5698
 21
87.8459
 31
0.0
  0
LINE
  8
0
 62
     0
 10
74.5698
 20
87.8459
 30
0.0
 11
73.769
 21
87.8459
 31
0.0
  0
LINE
  8
0
 62
     0
 10
73.769
 20
87.8459
 30
0.0
 11
73.769
 21
93.6459
 31
0.0
  0
LINE
  8
0
 62
     0
 10
73.769
 20
93.6459
 30
0.0
 11
74.5698
 21
93.6459
 31
0.0
  0
LINE
  8
0
 62
     0
 10
74.5698
 20
93.6459
 30
0.0
 11
74.5698
 21
96.7465
 31
0.0
  0
LINE
  8
0
 62
     0
 10
74.5698
 20
96.7465
 30
0.0
 11
73.769
 21
96.7465
 31
0.0
  0
LINE
  8
0
 62
     0
 10
73.769
 20
96.7465
 30
0.0
 11
73.769
 21
97.7456
 31
0.0
  0
LINE
  8
0
 62
     0
 10
73.769
 20
97.7456
 30
0.0
 11
59.7697
 21
97.7456
 31
0.0
  0
LINE
  8
0
 62
     0
 10
40.7197
 20
97.7456
 30
0.0
 11
40.7197
 21
96.7465
 31
0.0
  0
LINE
  8
0
 62
     0
 10
40.7197
 20
96.7465
 30
0.0
 11
39.9189
 21
96.7465
 31
0.0
  0
LINE
  8
0
 62
     0
 10
39.9189
 20
96.7465
 30
0.0
 11
39.9189
 21
93.6459
 31
0.0
  0
LINE
  8
0
 62
     0
 10
39.9189
 20
93.6459
 30
0.0
 11
40.7197
 21
93.6459
 31
0.0
  0
LINE
  8
0
 62
     0
 10
40.7197
 20
93.6459
 30
0.0
 11
40.7197
 21
87.8459
 31
0.0
  0
LINE
  8
0
 62
     0
 10
40.7197
 20
87.8459
 30
0.0
 11
39.9189
 21
87.8459
 31
0.0
  0
LINE
  8
0
 62
     0
 10
39.9189
 20
87.8459
 30
0.0
 11
39.9189
 21
84.7467
 31
0.0
  0
LINE
  8
0
 62
     0
 10
39.9189
 20
84.7467
 30
0.0
 11
40.7197
 21
84.7467
 31
0.0
  0
LINE
  8
0
 62
     0
 10
40.7197
 20
84.7467
 30
0.0
 11
40.7197
 21
83.7463
 31
0.0
  0
LINE
  8
0
 62
     0
 10
40.7197
 20
83.7463
 30
0.0
 11
54.719
 21
83.7463
 31
0.0
  0
LINE
  8
0
 62
     0
 10
54.719
 20
83.7463
 30
0.0
 11
54.719
 21
84.7467
 31
0.0
  0
LINE
  8
0
 62
     0
 10
54.719
 20
84.7467
 30
0.0
 11
55.5198
 21
84.7467
 31
0.0
  0
LINE
  8
0
 62
     0
 10
55.5198
 20
84.7467
 30
0.0
 11
55.5198
 21
87.8459
 31
0.0
  0
LINE
  8
0
 62
     0
 10
55.5198
 20
87.8459
 30
0.0
 11
54.719
 21
87.8459
 31
0.0
  0
LINE
  8
0
 62
     0
 10
54.719
 20
87.8459
 30
0.0
 11
54.719
 21
93.6459
 31
0.0
  0
LINE
  8
0
 62
     0
 10
54.719
 20
93.6459
 30
0.0
 11
55.5198
 21
93.6459
 31
0.0
  0
LINE
  8
0
 62
     0
 10
55.5198
 20
93.6459
 30
0.0
 11
55.5198
 21
96.7465
 31
0.0
  0
LINE
  8
0
 62
     0
 10
55.5198
 20
96.7465
 30
0.0
 11
54.719
 21
96.7465
 31
0.0
  0
LINE
  8
0
 62
     0
 10
54.719
 20
96.7465
 30
0.0
 11
54.719
 21
97.7456
 31
0.0
  0
LINE
  8
0
 62
     0
 10
54.719
 20
97.7456
 30
0.0
 11
40.7197
 21
97.7456
 31
0.0
  0
LINE
  8
0
 62
     0
 10
21.6697
 20
97.7456
 30
0.0
 11
21.6697
 21
96.7465
 31
0.0
  0
LINE
  8
0
 62
     0
 10
21.6697
 20
96.7465
 30
0.0
 11
20.869
 21
96.7465
 31
0.0
  0
LINE
  8
0
 62
     0
 10
20.869
 20
96.7465
 30
0.0
 11
20.869
 21
93.6459
 31
0.0
  0
LINE
  8
0
 62
     0
 10
20.869
 20
93.6459
 30
0.0
 11
21.6697
 21
93.6459
 31
0.0
  0
LINE
  8
0
 62
     0
 10
21.6697
 20
93.6459
 30
0.0
 11
21.6697
 21
87.8459
 31
0.0
  0
LINE
  8
0
 62
     0
 10
21.6697
 20
87.8459
 30
0.0
 11
20.869
 21
87.8459
 31
0.0
  0
LINE
  8
0
 62
     0
 10
20.869
 20
87.8459
 30
0.0
 11
20.869
 21
84.7467
 31
0.0
  0
LINE
  8
0
 62
     0
 10
20.869
 20
84.7467
 30
0.0
 11
21.6697
 21
84.7467
 31
0.0
  0
LINE
  8
0
 62
     0
 10
21.6697
 20
84.7467
 30
0.0
 11
21.6697
 21
83.7463
 31
0.0
  0
LINE
  8
0
 62
     0
 10
21.6697
 20
83.7463
 30
0.0
 11
35.669
 21
83.7463
 31
0.0
  0
LINE
  8
0
 62
     0
 10
35.669
 20
83.7463
 30
0.0
 11
35.669
 21
84.7467
 31
0.0
  0
LINE
  8
0
 62
     0
 10
35.669
 20
84.7467
 30
0.0
 11
36.4698
 21
84.7467
 31
0.0
  0
LINE
  8
0
 62
     0
 10
36.4698
 20
84.7467
 30
0.0
 11
36.4698
 21
87.8459
 31
0.0
  0
LINE
  8
0
 62
     0
 10
36.4698
 20
87.8459
 30
0.0
 11
35.669
 21
87.8459
 31
0.0
  0
LINE
  8
0
 62
     0
 10
35.669
 20
87.8459
 30
0.0
 11
35.669
 21
93.6459
 31
0.0
  0
LINE
  8
0
 62
     0
 10
35.669
 20
93.6459
 30
0.0
 11
36.4698
 21
93.6459
 31
0.0
  0
LINE
  8
0
 62
     0
 10
36.4698
 20
93.6459
 30
0.0
 11
36.4698
 21
96.7465
 31
0.0
  0
LINE
  8
0
 62
     0
 10
36.4698
 20
96.7465
 30
0.0
 11
35.669
 21
96.7465
 31
0.0
  0
LINE
  8
0
 62
     0
 10
35.669
 20
96.7465
 30
0.0
 11
35.669
 21
97.7456
 31
0.0
  0
LINE
  8
0
 62
     0
 10
35.669
 20
97.7456
 30
0.0
 11
21.6697
 21
97.7456
 31
0.0
  0
LINE
  8
0
 62
     0
 10
2.61965
 20
97.7456
 30
0.0
 11
2.61965
 21
96.7465
 31
0.0
  0
LINE
  8
0
 62
     0
 10
2.61965
 20
96.7465
 30
0.0
 11
1.81901
 21
96.7465
 31
0.0
  0
LINE
  8
0
 62
     0
 10
1.81901
 20
96.7465
 30
0.0
 11
1.81901
 21
93.6459
 31
0.0
  0
LINE
  8
0
 62
     0
 10
1.81901
 20
93.6459
 30
0.0
 11
2.61965
 21
93.6459
 31
0.0
  0
LINE
  8
0
 62
     0
 10
2.61965
 20
93.6459
 30
0.0
 11
2.61965
 21
87.8459
 31
0.0
  0
LINE
  8
0
 62
     0
 10
2.61965
 20
87.8459
 30
0.0
 11
1.81901
 21
87.8459
 31
0.0
  0
LINE
  8
0
 62
     0
 10
1.81901
 20
87.8459
 30
0.0
 11
1.81901
 21
84.7467
 31
0.0
  0
LINE
  8
0
 62
     0
 10
1.81901
 20
84.7467
 30
0.0
 11
2.61965
 21
84.7467
 31
0.0
  0
LINE
  8
0
 62
     0
 10
2.61965
 20
84.7467
 30
0.0
 11
2.61965
 21
83.7463
 31
0.0
  0
LINE
  8
0
 62
     0
 10
2.61965
 20
83.7463
 30
0.0
 11
16.6192
 21
83.7463
 31
0.0
  0
LINE
  8
0
 62
     0
 10
16.6192
 20
83.7463
 30
0.0
 11
16.6192
 21
84.7467
 31
0.0
  0
LINE
  8
0
 62
     0
 10
16.6192
 20
84.7467
 30
0.0
 11
17.4198
 21
84.7467
 31
0.0
  0
LINE
  8
0
 62
     0
 10
17.4198
 20
84.7467
 30
0.0
 11
17.4198
 21
87.8459
 31
0.0
  0
LINE
  8
0
 62
     0
 10
17.4198
 20
87.8459
 30
0.0
 11
16.6192
 21
87.8459
 31
0.0
  0
LINE
  8
0
 62
     0
 10
16.6192
 20
87.8459
 30
0.0
 11
16.6192
 21
93.6459
 31
0.0
  0
LINE
  8
0
 62
     0
 10
16.6192
 20
93.6459
 30
0.0
 11
17.4198
 21
93.6459
 31
0.0
  0
LINE
  8
0
 62
     0
 10
17.4198
 20
93.6459
 30
0.0
 11
17.4198
 21
96.7465
 31
0.0
  0
LINE
  8
0
 62
     0
 10
17.4198
 20
96.7465
 30
0.0
 11
16.6192
 21
96.7465
 31
0.0
  0
LINE
  8
0
 62
     0
 10
16.6192
 20
96.7465
 30
0.0
 11
16.6192
 21
97.7456
 31
0.0
  0
LINE
  8
0
 62
     0
 10
16.6192
 20
97.7456
 30
0.0
 11
2.61965
 21
97.7456
 31
0.0
  0
LINE
  8
0
 62
     0
 10
293.132
 20
121.558
 30
0.0
 11
293.132
 21
120.558
 31
0.0
  0
LINE
  8
0
 62
     0
 10
293.132
 20
120.558
 30
0.0
 11
292.331
 21
120.558
 31
0.0
  0
LINE
  8
0
 62
     0
 10
292.331
 20
120.558
 30
0.0
 11
292.331
 21
117.458
 31
0.0
  0
LINE
  8
0
 62
     0
 10
292.331
 20
117.458
 30
0.0
 11
293.132
 21
117.458
 31
0.0
  0
LINE
  8
0
 62
     0
 10
293.132
 20
117.458
 30
0.0
 11
293.132
 21
111.658
 31
0.0
  0
LINE
  8
0
 62
     0
 10
293.132
 20
111.658
 30
0.0
 11
292.331
 21
111.658
 31
0.0
  0
LINE
  8
0
 62
     0
 10
292.331
 20
111.658
 30
0.0
 11
292.331
 21
108.558
 31
0.0
  0
LINE
  8
0
 62
     0
 10
292.331
 20
108.558
 30
0.0
 11
293.132
 21
108.558
 31
0.0
  0
LINE
  8
0
 62
     0
 10
293.132
 20
108.558
 30
0.0
 11
293.132
 21
107.559
 31
0.0
  0
LINE
  8
0
 62
     0
 10
293.132
 20
107.559
 30
0.0
 11
307.132
 21
107.559
 31
0.0
  0
LINE
  8
0
 62
     0
 10
307.132
 20
107.559
 30
0.0
 11
307.132
 21
108.558
 31
0.0
  0
LINE
  8
0
 62
     0
 10
307.132
 20
108.558
 30
0.0
 11
307.931
 21
108.558
 31
0.0
  0
LINE
  8
0
 62
     0
 10
307.931
 20
108.558
 30
0.0
 11
307.931
 21
111.658
 31
0.0
  0
LINE
  8
0
 62
     0
 10
307.931
 20
111.658
 30
0.0
 11
307.132
 21
111.658
 31
0.0
  0
LINE
  8
0
 62
     0
 10
307.132
 20
111.658
 30
0.0
 11
307.132
 21
117.458
 31
0.0
  0
LINE
  8
0
 62
     0
 10
307.132
 20
117.458
 30
0.0
 11
307.931
 21
117.458
 31
0.0
  0
LINE
  8
0
 62
     0
 10
307.931
 20
117.458
 30
0.0
 11
307.931
 21
120.558
 31
0.0
  0
LINE
  8
0
 62
     0
 10
307.931
 20
120.558
 30
0.0
 11
307.132
 21
120.558
 31
0.0
  0
LINE
  8
0
 62
     0
 10
307.132
 20
120.558
 30
0.0
 11
307.132
 21
121.558
 31
0.0
  0
LINE
  8
0
 62
     0
 10
307.132
 20
121.558
 30
0.0
 11
293.132
 21
121.558
 31
0.0
  0
LINE
  8
0
 62
     0
 10
235.982
 20
121.558
 30
0.0
 11
235.982
 21
120.558
 31
0.0
  0
LINE
  8
0
 62
     0
 10
235.982
 20
120.558
 30
0.0
 11
235.181
 21
120.558
 31
0.0
  0
LINE
  8
0
 62
     0
 10
235.181
 20
120.558
 30
0.0
 11
235.181
 21
117.458
 31
0.0
  0
LINE
  8
0
 62
     0
 10
235.181
 20
117.458
 30
0.0
 11
235.982
 21
117.458
 31
0.0
  0
LINE
  8
0
 62
     0
 10
235.982
 20
117.458
 30
0.0
 11
235.982
 21
111.658
 31
0.0
  0
LINE
  8
0
 62
     0
 10
235.982
 20
111.658
 30
0.0
 11
235.181
 21
111.658
 31
0.0
  0
LINE
  8
0
 62
     0
 10
235.181
 20
111.658
 30
0.0
 11
235.181
 21
108.558
 31
0.0
  0
LINE
  8
0
 62
     0
 10
235.181
 20
108.558
 30
0.0
 11
235.982
 21
108.558
 31
0.0
  0
LINE
  8
0
 62
     0
 10
235.982
 20
108.558
 30
0.0
 11
235.982
 21
107.559
 31
0.0
  0
LINE
  8
0
 62
     0
 10
235.982
 20
107.559
 30
0.0
 11
249.982
 21
107.559
 31
0.0
  0
LINE
  8
0
 62
     0
 10
249.982
 20
107.559
 30
0.0
 11
249.982
 21
108.558
 31
0.0
  0
LINE
  8
0
 62
     0
 10
249.982
 20
108.558
 30
0.0
 11
250.781
 21
108.558
 31
0.0
  0
LINE
  8
0
 62
     0
 10
250.781
 20
108.558
 30
0.0
 11
250.781
 21
111.658
 31
0.0
  0
LINE
  8
0
 62
     0
 10
250.781
 20
111.658
 30
0.0
 11
249.982
 21
111.658
 31
0.0
  0
LINE
  8
0
 62
     0
 10
249.982
 20
111.658
 30
0.0
 11
249.982
 21
117.458
 31
0.0
  0
LINE
  8
0
 62
     0
 10
249.982
 20
117.458
 30
0.0
 11
250.781
 21
117.458
 31
0.0
  0
LINE
  8
0
 62
     0
 10
250.781
 20
117.458
 30
0.0
 11
250.781
 21
120.558
 31
0.0
  0
LINE
  8
0
 62
     0
 10
250.781
 20
120.558
 30
0.0
 11
249.982
 21
120.558
 31
0.0
  0
LINE
  8
0
 62
     0
 10
249.982
 20
120.558
 30
0.0
 11
249.982
 21
121.558
 31
0.0
  0
LINE
  8
0
 62
     0
 10
249.982
 20
121.558
 30
0.0
 11
235.982
 21
121.558
 31
0.0
  0
LINE
  8
0
 62
     0
 10
216.932
 20
121.558
 30
0.0
 11
216.932
 21
120.558
 31
0.0
  0
LINE
  8
0
 62
     0
 10
216.932
 20
120.558
 30
0.0
 11
216.131
 21
120.558
 31
0.0
  0
LINE
  8
0
 62
     0
 10
216.131
 20
120.558
 30
0.0
 11
216.131
 21
117.458
 31
0.0
  0
LINE
  8
0
 62
     0
 10
216.131
 20
117.458
 30
0.0
 11
216.932
 21
117.458
 31
0.0
  0
LINE
  8
0
 62
     0
 10
216.932
 20
117.458
 30
0.0
 11
216.932
 21
111.658
 31
0.0
  0
LINE
  8
0
 62
     0
 10
216.932
 20
111.658
 30
0.0
 11
216.131
 21
111.658
 31
0.0
  0
LINE
  8
0
 62
     0
 10
216.131
 20
111.658
 30
0.0
 11
216.131
 21
108.558
 31
0.0
  0
LINE
  8
0
 62
     0
 10
216.131
 20
108.558
 30
0.0
 11
216.932
 21
108.558
 31
0.0
  0
LINE
  8
0
 62
     0
 10
216.932
 20
108.558
 30
0.0
 11
216.932
 21
107.559
 31
0.0
  0
LINE
  8
0
 62
     0
 10
216.932
 20
107.559
 30
0.0
 11
230.932
 21
107.559
 31
0.0
  0
LINE
  8
0
 62
     0
 10
230.932
 20
107.559
 30
0.0
 11
230.932
 21
108.558
 31
0.0
  0
LINE
  8
0
 62
     0
 10
230.932
 20
108.558
 30
0.0
 11
231.731
 21
108.558
 31
0.0
  0
LINE
  8
0
 62
     0
 10
231.731
 20
108.558
 30
0.0
 11
231.731
 21
111.658
 31
0.0
  0
LINE
  8
0
 62
     0
 10
231.731
 20
111.658
 30
0.0
 11
230.932
 21
111.658
 31
0.0
  0
LINE
  8
0
 62
     0
 10
230.932
 20
111.658
 30
0.0
 11
230.932
 21
117.458
 31
0.0
  0
LINE
  8
0
 62
     0
 10
230.932
 20
117.458
 30
0.0
 11
231.731
 21
117.458
 31
0.0
  0
LINE
  8
0
 62
     0
 10
231.731
 20
117.458
 30
0.0
 11
231.731
 21
120.558
 31
0.0
  0
LINE
  8
0
 62
     0
 10
231.731
 20
120.558
 30
0.0
 11
230.932
 21
120.558
 31
0.0
  0
LINE
  8
0
 62
     0
 10
230.932
 20
120.558
 30
0.0
 11
230.932
 21
121.558
 31
0.0
  0
LINE
  8
0
 62
     0
 10
230.932
 20
121.558
 30
0.0
 11
216.932
 21
121.558
 31
0.0
  0
LINE
  8
0
 62
     0
 10
197.882
 20
121.558
 30
0.0
 11
197.882
 21
120.558
 31
0.0
  0
LINE
  8
0
 62
     0
 10
197.882
 20
120.558
 30
0.0
 11
197.081
 21
120.558
 31
0.0
  0
LINE
  8
0
 62
     0
 10
197.081
 20
120.558
 30
0.0
 11
197.081
 21
117.458
 31
0.0
  0
LINE
  8
0
 62
     0
 10
197.081
 20
117.458
 30
0.0
 11
197.882
 21
117.458
 31
0.0
  0
LINE
  8
0
 62
     0
 10
197.882
 20
117.458
 30
0.0
 11
197.882
 21
111.658
 31
0.0
  0
LINE
  8
0
 62
     0
 10
197.882
 20
111.658
 30
0.0
 11
197.081
 21
111.658
 31
0.0
  0
LINE
  8
0
 62
     0
 10
197.081
 20
111.658
 30
0.0
 11
197.081
 21
108.558
 31
0.0
  0
LINE
  8
0
 62
     0
 10
197.081
 20
108.558
 30
0.0
 11
197.882
 21
108.558
 31
0.0
  0
LINE
  8
0
 62
     0
 10
197.882
 20
108.558
 30
0.0
 11
197.882
 21
107.559
 31
0.0
  0
LINE
  8
0
 62
     0
 10
197.882
 20
107.559
 30
0.0
 11
211.882
 21
107.559
 31
0.0
  0
LINE
  8
0
 62
     0
 10
211.882
 20
107.559
 30
0.0
 11
211.882
 21
108.558
 31
0.0
  0
LINE
  8
0
 62
     0
 10
211.882
 20
108.558
 30
0.0
 11
212.681
 21
108.558
 31
0.0
  0
LINE
  8
0
 62
     0
 10
212.681
 20
108.558
 30
0.0
 11
212.681
 21
111.658
 31
0.0
  0
LINE
  8
0
 62
     0
 10
212.681
 20
111.658
 30
0.0
 11
211.882
 21
111.658
 31
0.0
  0
LINE
  8
0
 62
     0
 10
211.882
 20
111.658
 30
0.0
 11
211.882
 21
117.458
 31
0.0
  0
LINE
  8
0
 62
     0
 10
211.882
 20
117.458
 30
0.0
 11
212.681
 21
117.458
 31
0.0
  0
LINE
  8
0
 62
     0
 10
212.681
 20
117.458
 30
0.0
 11
212.681
 21
120.558
 31
0.0
  0
LINE
  8
0
 62
     0
 10
212.681
 20
120.558
 30
0.0
 11
211.882
 21
120.558
 31
0.0
  0
LINE
  8
0
 62
     0
 10
211.882
 20
120.558
 30
0.0
 11
211.882
 21
121.558
 31
0.0
  0
LINE
  8
0
 62
     0
 10
211.882
 20
121.558
 30
0.0
 11
197.882
 21
121.558
 31
0.0
  0
LINE
  8
0
 62
     0
 10
178.832
 20
121.558
 30
0.0
 11
178.832
 21
120.558
 31
0.0
  0
LINE
  8
0
 62
     0
 10
178.832
 20
120.558
 30
0.0
 11
178.031
 21
120.558
 31
0.0
  0
LINE
  8
0
 62
     0
 10
178.031
 20
120.558
 30
0.0
 11
178.031
 21
117.458
 31
0.0
  0
LINE
  8
0
 62
     0
 10
178.031
 20
117.458
 30
0.0
 11
178.832
 21
117.458
 31
0.0
  0
LINE
  8
0
 62
     0
 10
178.832
 20
117.458
 30
0.0
 11
178.832
 21
111.658
 31
0.0
  0
LINE
  8
0
 62
     0
 10
178.832
 20
111.658
 30
0.0
 11
178.031
 21
111.658
 31
0.0
  0
LINE
  8
0
 62
     0
 10
178.031
 20
111.658
 30
0.0
 11
178.031
 21
108.558
 31
0.0
  0
LINE
  8
0
 62
     0
 10
178.031
 20
108.558
 30
0.0
 11
178.832
 21
108.558
 31
0.0
  0
LINE
  8
0
 62
     0
 10
178.832
 20
108.558
 30
0.0
 11
178.832
 21
107.559
 31
0.0
  0
LINE
  8
0
 62
     0
 10
178.832
 20
107.559
 30
0.0
 11
192.832
 21
107.559
 31
0.0
  0
LINE
  8
0
 62
     0
 10
192.832
 20
107.559
 30
0.0
 11
192.832
 21
108.558
 31
0.0
  0
LINE
  8
0
 62
     0
 10
192.832
 20
108.558
 30
0.0
 11
193.631
 21
108.558
 31
0.0
  0
LINE
  8
0
 62
     0
 10
193.631
 20
108.558
 30
0.0
 11
193.631
 21
111.658
 31
0.0
  0
LINE
  8
0
 62
     0
 10
193.631
 20
111.658
 30
0.0
 11
192.832
 21
111.658
 31
0.0
  0
LINE
  8
0
 62
     0
 10
192.832
 20
111.658
 30
0.0
 11
192.832
 21
117.458
 31
0.0
  0
LINE
  8
0
 62
     0
 10
192.832
 20
117.458
 30
0.0
 11
193.631
 21
117.458
 31
0.0
  0
LINE
  8
0
 62
     0
 10
193.631
 20
117.458
 30
0.0
 11
193.631
 21
120.558
 31
0.0
  0
LINE
  8
0
 62
     0
 10
193.631
 20
120.558
 30
0.0
 11
192.832
 21
120.558
 31
0.0
  0
LINE
  8
0
 62
     0
 10
192.832
 20
120.558
 30
0.0
 11
192.832
 21
121.558
 31
0.0
  0
LINE
  8
0
 62
     0
 10
192.832
 20
121.558
 30
0.0
 11
178.832
 21
121.558
 31
0.0
  0
LINE
  8
0
 62
     0
 10
159.782
 20
121.558
 30
0.0
 11
159.782
 21
120.558
 31
0.0
  0
LINE
  8
0
 62
     0
 10
159.782
 20
120.558
 30
0.0
 11
158.981
 21
120.558
 31
0.0
  0
LINE
  8
0
 62
     0
 10
158.981
 20
120.558
 30
0.0
 11
158.981
 21
117.458
 31
0.0
  0
LINE
  8
0
 62
     0
 10
158.981
 20
117.458
 30
0.0
 11
159.782
 21
117.458
 31
0.0
  0
LINE
  8
0
 62
     0
 10
159.782
 20
117.458
 30
0.0
 11
159.782
 21
111.658
 31
0.0
  0
LINE
  8
0
 62
     0
 10
159.782
 20
111.658
 30
0.0
 11
158.981
 21
111.658
 31
0.0
  0
LINE
  8
0
 62
     0
 10
158.981
 20
111.658
 30
0.0
 11
158.981
 21
108.558
 31
0.0
  0
LINE
  8
0
 62
     0
 10
158.981
 20
108.558
 30
0.0
 11
159.782
 21
108.558
 31
0.0
  0
LINE
  8
0
 62
     0
 10
159.782
 20
108.558
 30
0.0
 11
159.782
 21
107.559
 31
0.0
  0
LINE
  8
0
 62
     0
 10
159.782
 20
107.559
 30
0.0
 11
173.782
 21
107.559
 31
0.0
  0
LINE
  8
0
 62
     0
 10
173.782
 20
107.559
 30
0.0
 11
173.782
 21
108.558
 31
0.0
  0
LINE
  8
0
 62
     0
 10
173.782
 20
108.558
 30
0.0
 11
174.581
 21
108.558
 31
0.0
  0
LINE
  8
0
 62
     0
 10
174.581
 20
108.558
 30
0.0
 11
174.581
 21
111.658
 31
0.0
  0
LINE
  8
0
 62
     0
 10
174.581
 20
111.658
 30
0.0
 11
173.782
 21
111.658
 31
0.0
  0
LINE
  8
0
 62
     0
 10
173.782
 20
111.658
 30
0.0
 11
173.782
 21
117.458
 31
0.0
  0
LINE
  8
0
 62
     0
 10
173.782
 20
117.458
 30
0.0
 11
174.581
 21
117.458
 31
0.0
  0
LINE
  8
0
 62
     0
 10
174.581
 20
117.458
 30
0.0
 11
174.581
 21
120.558
 31
0.0
  0
LINE
  8
0
 62
     0
 10
174.581
 20
120.558
 30
0.0
 11
173.782
 21
120.558
 31
0.0
  0
LINE
  8
0
 62
     0
 10
173.782
 20
120.558
 30
0.0
 11
173.782
 21
121.558
 31
0.0
  0
LINE
  8
0
 62
     0
 10
173.782
 20
121.558
 30
0.0
 11
159.782
 21
121.558
 31
0.0
  0
LINE
  8
0
 62
     0
 10
140.732
 20
121.558
 30
0.0
 11
140.732
 21
120.558
 31
0.0
  0
LINE
  8
0
 62
     0
 10
140.732
 20
120.558
 30
0.0
 11
139.931
 21
120.558
 31
0.0
  0
LINE
  8
0
 62
     0
 10
139.931
 20
120.558
 30
0.0
 11
139.931
 21
117.458
 31
0.0
  0
LINE
  8
0
 62
     0
 10
139.931
 20
117.458
 30
0.0
 11
140.732
 21
117.458
 31
0.0
  0
LINE
  8
0
 62
     0
 10
140.732
 20
117.458
 30
0.0
 11
140.732
 21
111.658
 31
0.0
  0
LINE
  8
0
 62
     0
 10
140.732
 20
111.658
 30
0.0
 11
139.931
 21
111.658
 31
0.0
  0
LINE
  8
0
 62
     0
 10
139.931
 20
111.658
 30
0.0
 11
139.931
 21
108.558
 31
0.0
  0
LINE
  8
0
 62
     0
 10
139.931
 20
108.558
 30
0.0
 11
140.732
 21
108.558
 31
0.0
  0
LINE
  8
0
 62
     0
 10
140.732
 20
108.558
 30
0.0
 11
140.732
 21
107.559
 31
0.0
  0
LINE
  8
0
 62
     0
 10
140.732
 20
107.559
 30
0.0
 11
154.732
 21
107.559
 31
0.0
  0
LINE
  8
0
 62
     0
 10
154.732
 20
107.559
 30
0.0
 11
154.732
 21
108.558
 31
0.0
  0
LINE
  8
0
 62
     0
 10
154.732
 20
108.558
 30
0.0
 11
155.531
 21
108.558
 31
0.0
  0
LINE
  8
0
 62
     0
 10
155.531
 20
108.558
 30
0.0
 11
155.531
 21
111.658
 31
0.0
  0
LINE
  8
0
 62
     0
 10
155.531
 20
111.658
 30
0.0
 11
154.732
 21
111.658
 31
0.0
  0
LINE
  8
0
 62
     0
 10
154.732
 20
111.658
 30
0.0
 11
154.732
 21
117.458
 31
0.0
  0
LINE
  8
0
 62
     0
 10
154.732
 20
117.458
 30
0.0
 11
155.531
 21
117.458
 31
0.0
  0
LINE
  8
0
 62
     0
 10
155.531
 20
117.458
 30
0.0
 11
155.531
 21
120.558
 31
0.0
  0
LINE
  8
0
 62
     0
 10
155.531
 20
120.558
 30
0.0
 11
154.732
 21
120.558
 31
0.0
  0
LINE
  8
0
 62
     0
 10
154.732
 20
120.558
 30
0.0
 11
154.732
 21
121.558
 31
0.0
  0
LINE
  8
0
 62
     0
 10
154.732
 20
121.558
 30
0.0
 11
140.732
 21
121.558
 31
0.0
  0
LINE
  8
0
 62
     0
 10
121.682
 20
121.558
 30
0.0
 11
121.682
 21
120.558
 31
0.0
  0
LINE
  8
0
 62
     0
 10
121.682
 20
120.558
 30
0.0
 11
120.881
 21
120.558
 31
0.0
  0
LINE
  8
0
 62
     0
 10
120.881
 20
120.558
 30
0.0
 11
120.881
 21
117.458
 31
0.0
  0
LINE
  8
0
 62
     0
 10
120.881
 20
117.458
 30
0.0
 11
121.682
 21
117.458
 31
0.0
  0
LINE
  8
0
 62
     0
 10
121.682
 20
117.458
 30
0.0
 11
121.682
 21
111.658
 31
0.0
  0
LINE
  8
0
 62
     0
 10
121.682
 20
111.658
 30
0.0
 11
120.881
 21
111.658
 31
0.0
  0
LINE
  8
0
 62
     0
 10
120.881
 20
111.658
 30
0.0
 11
120.881
 21
108.558
 31
0.0
  0
LINE
  8
0
 62
     0
 10
120.881
 20
108.558
 30
0.0
 11
121.682
 21
108.558
 31
0.0
  0
LINE
  8
0
 62
     0
 10
121.682
 20
108.558
 30
0.0
 11
121.682
 21
107.559
 31
0.0
  0
LINE
  8
0
 62
     0
 10
121.682
 20
107.559
 30
0.0
 11
135.682
 21
107.559
 31
0.0
  0
LINE
  8
0
 62
     0
 10
135.682
 20
107.559
 30
0.0
 11
135.682
 21
108.558
 31
0.0
  0
LINE
  8
0
 62
     0
 10
135.682
 20
108.558
 30
0.0
 11
136.481
 21
108.558
 31
0.0
  0
LINE
  8
0
 62
     0
 10
136.481
 20
108.558
 30
0.0
 11
136.481
 21
111.658
 31
0.0
  0
LINE
  8
0
 62
     0
 10
136.481
 20
111.658
 30
0.0
 11
135.682
 21
111.658
 31
0.0
  0
LINE
  8
0
 62
     0
 10
135.682
 20
111.658
 30
0.0
 11
135.682
 21
117.458
 31
0.0
  0
LINE
  8
0
 62
     0
 10
135.682
 20
117.458
 30
0.0
 11
136.481
 21
117.458
 31
0.0
  0
LINE
  8
0
 62
     0
 10
136.481
 20
117.458
 30
0.0
 11
136.481
 21
120.558
 31
0.0
  0
LINE
  8
0
 62
     0
 10
136.481
 20
120.558
 30
0.0
 11
135.682
 21
120.558
 31
0.0
  0
LINE
  8
0
 62
     0
 10
135.682
 20
120.558
 30
0.0
 11
135.682
 21
121.558
 31
0.0
  0
LINE
  8
0
 62
     0
 10
135.682
 20
121.558
 30
0.0
 11
121.682
 21
121.558
 31
0.0
  0
LINE
  8
0
 62
     0
 10
102.632
 20
121.558
 30
0.0
 11
102.632
 21
120.558
 31
0.0
  0
LINE
  8
0
 62
     0
 10
102.632
 20
120.558
 30
0.0
 11
101.831
 21
120.558
 31
0.0
  0
LINE
  8
0
 62
     0
 10
101.831
 20
120.558
 30
0.0
 11
101.831
 21
117.458
 31
0.0
  0
LINE
  8
0
 62
     0
 10
101.831
 20
117.458
 30
0.0
 11
102.632
 21
117.458
 31
0.0
  0
LINE
  8
0
 62
     0
 10
102.632
 20
117.458
 30
0.0
 11
102.632
 21
111.658
 31
0.0
  0
LINE
  8
0
 62
     0
 10
102.632
 20
111.658
 30
0.0
 11
101.831
 21
111.658
 31
0.0
  0
LINE
  8
0
 62
     0
 10
101.831
 20
111.658
 30
0.0
 11
101.831
 21
108.558
 31
0.0
  0
LINE
  8
0
 62
     0
 10
101.831
 20
108.558
 30
0.0
 11
102.632
 21
108.558
 31
0.0
  0
LINE
  8
0
 62
     0
 10
102.632
 20
108.558
 30
0.0
 11
102.632
 21
107.559
 31
0.0
  0
LINE
  8
0
 62
     0
 10
102.632
 20
107.559
 30
0.0
 11
116.632
 21
107.559
 31
0.0
  0
LINE
  8
0
 62
     0
 10
116.632
 20
107.559
 30
0.0
 11
116.632
 21
108.558
 31
0.0
  0
LINE
  8
0
 62
     0
 10
116.632
 20
108.558
 30
0.0
 11
117.431
 21
108.558
 31
0.0
  0
LINE
  8
0
 62
     0
 10
117.431
 20
108.558
 30
0.0
 11
117.431
 21
111.658
 31
0.0
  0
LINE
  8
0
 62
     0
 10
117.431
 20
111.658
 30
0.0
 11
116.632
 21
111.658
 31
0.0
  0
LINE
  8
0
 62
     0
 10
116.632
 20
111.658
 30
0.0
 11
116.632
 21
117.458
 31
0.0
  0
LINE
  8
0
 62
     0
 10
116.632
 20
117.458
 30
0.0
 11
117.431
 21
117.458
 31
0.0
  0
LINE
  8
0
 62
     0
 10
117.431
 20
117.458
 30
0.0
 11
117.431
 21
120.558
 31
0.0
  0
LINE
  8
0
 62
     0
 10
117.431
 20
120.558
 30
0.0
 11
116.632
 21
120.558
 31
0.0
  0
LINE
  8
0
 62
     0
 10
116.632
 20
120.558
 30
0.0
 11
116.632
 21
121.558
 31
0.0
  0
LINE
  8
0
 62
     0
 10
116.632
 20
121.558
 30
0.0
 11
102.632
 21
121.558
 31
0.0
  0
LINE
  8
0
 62
     0
 10
83.5822
 20
121.558
 30
0.0
 11
83.5822
 21
120.558
 31
0.0
  0
LINE
  8
0
 62
     0
 10
83.5822
 20
120.558
 30
0.0
 11
82.7814
 21
120.558
 31
0.0
  0
LINE
  8
0
 62
     0
 10
82.7814
 20
120.558
 30
0.0
 11
82.7814
 21
117.458
 31
0.0
  0
LINE
  8
0
 62
     0
 10
82.7814
 20
117.458
 30
0.0
 11
83.5822
 21
117.458
 31
0.0
  0
LINE
  8
0
 62
     0
 10
83.5822
 20
117.458
 30
0.0
 11
83.5822
 21
111.658
 31
0.0
  0
LINE
  8
0
 62
     0
 10
83.5822
 20
111.658
 30
0.0
 11
82.7814
 21
111.658
 31
0.0
  0
LINE
  8
0
 62
     0
 10
82.7814
 20
111.658
 30
0.0
 11
82.7814
 21
108.558
 31
0.0
  0
LINE
  8
0
 62
     0
 10
82.7814
 20
108.558
 30
0.0
 11
83.5822
 21
108.558
 31
0.0
  0
LINE
  8
0
 62
     0
 10
83.5822
 20
108.558
 30
0.0
 11
83.5822
 21
107.559
 31
0.0
  0
LINE
  8
0
 62
     0
 10
83.5822
 20
107.559
 30
0.0
 11
97.5815
 21
107.559
 31
0.0
  0
LINE
  8
0
 62
     0
 10
97.5815
 20
107.559
 30
0.0
 11
97.5815
 21
108.558
 31
0.0
  0
LINE
  8
0
 62
     0
 10
97.5815
 20
108.558
 30
0.0
 11
98.3809
 21
108.558
 31
0.0
  0
LINE
  8
0
 62
     0
 10
98.3809
 20
108.558
 30
0.0
 11
98.3809
 21
111.658
 31
0.0
  0
LINE
  8
0
 62
     0
 10
98.3809
 20
111.658
 30
0.0
 11
97.5815
 21
111.658
 31
0.0
  0
LINE
  8
0
 62
     0
 10
97.5815
 20
111.658
 30
0.0
 11
97.5815
 21
117.458
 31
0.0
  0
LINE
  8
0
 62
     0
 10
97.5815
 20
117.458
 30
0.0
 11
98.3809
 21
117.458
 31
0.0
  0
LINE
  8
0
 62
     0
 10
98.3809
 20
117.458
 30
0.0
 11
98.3809
 21
120.558
 31
0.0
  0
LINE
  8
0
 62
     0
 10
98.3809
 20
120.558
 30
0.0
 11
97.5815
 21
120.558
 31
0.0
  0
LINE
  8
0
 62
     0
 10
97.5815
 20
120.558
 30
0.0
 11
97.5815
 21
121.558
 31
0.0
  0
LINE
  8
0
 62
     0
 10
97.5815
 20
121.558
 30
0.0
 11
83.5822
 21
121.558
 31
0.0
  0
LINE
  8
0
 62
     0
 10
64.5322
 20
121.558
 30
0.0
 11
64.5322
 21
120.558
 31
0.0
  0
LINE
  8
0
 62
     0
 10
64.5322
 20
120.558
 30
0.0
 11
63.7314
 21
120.558
 31
0.0
  0
LINE
  8
0
 62
     0
 10
63.7314
 20
120.558
 30
0.0
 11
63.7314
 21
117.458
 31
0.0
  0
LINE
  8
0
 62
     0
 10
63.7314
 20
117.458
 30
0.0
 11
64.5322
 21
117.458
 31
0.0
  0
LINE
  8
0
 62
     0
 10
64.5322
 20
117.458
 30
0.0
 11
64.5322
 21
111.658
 31
0.0
  0
LINE
  8
0
 62
     0
 10
64.5322
 20
111.658
 30
0.0
 11
63.7314
 21
111.658
 31
0.0
  0
LINE
  8
0
 62
     0
 10
63.7314
 20
111.658
 30
0.0
 11
63.7314
 21
108.558
 31
0.0
  0
LINE
  8
0
 62
     0
 10
63.7314
 20
108.558
 30
0.0
 11
64.5322
 21
108.558
 31
0.0
  0
LINE
  8
0
 62
     0
 10
64.5322
 20
108.558
 30
0.0
 11
64.5322
 21
107.559
 31
0.0
  0
LINE
  8
0
 62
     0
 10
64.5322
 20
107.559
 30
0.0
 11
78.5315
 21
107.559
 31
0.0
  0
LINE
  8
0
 62
     0
 10
78.5315
 20
107.559
 30
0.0
 11
78.5315
 21
108.558
 31
0.0
  0
LINE
  8
0
 62
     0
 10
78.5315
 20
108.558
 30
0.0
 11
79.3309
 21
108.558
 31
0.0
  0
LINE
  8
0
 62
     0
 10
79.3309
 20
108.558
 30
0.0
 11
79.3309
 21
111.658
 31
0.0
  0
LINE
  8
0
 62
     0
 10
79.3309
 20
111.658
 30
0.0
 11
78.5315
 21
111.658
 31
0.0
  0
LINE
  8
0
 62
     0
 10
78.5315
 20
111.658
 30
0.0
 11
78.5315
 21
117.458
 31
0.0
  0
LINE
  8
0
 62
     0
 10
78.5315
 20
117.458
 30
0.0
 11
79.3309
 21
117.458
 31
0.0
  0
LINE
  8
0
 62
     0
 10
79.3309
 20
117.458
 30
0.0
 11
79.3309
 21
120.558
 31
0.0
  0
LINE
  8
0
 62
     0
 10
79.3309
 20
120.558
 30
0.0
 11
78.5315
 21
120.558
 31
0.0
  0
LINE
  8
0
 62
     0
 10
78.5315
 20
120.558
 30
0.0
 11
78.5315
 21
121.558
 31
0.0
  0
LINE
  8
0
 62
     0
 10
78.5315
 20
121.558
 30
0.0
 11
64.5322
 21
121.558
 31
0.0
  0
LINE
  8
0
 62
     0
 10
45.4822
 20
121.558
 30
0.0
 11
45.4822
 21
120.558
 31
0.0
  0
LINE
  8
0
 62
     0
 10
45.4822
 20
120.558
 30
0.0
 11
44.6814
 21
120.558
 31
0.0
  0
LINE
  8
0
 62
     0
 10
44.6814
 20
120.558
 30
0.0
 11
44.6814
 21
117.458
 31
0.0
  0
LINE
  8
0
 62
     0
 10
44.6814
 20
117.458
 30
0.0
 11
45.4822
 21
117.458
 31
0.0
  0
LINE
  8
0
 62
     0
 10
45.4822
 20
117.458
 30
0.0
 11
45.4822
 21
111.658
 31
0.0
  0
LINE
  8
0
 62
     0
 10
45.4822
 20
111.658
 30
0.0
 11
44.6814
 21
111.658
 31
0.0
  0
LINE
  8
0
 62
     0
 10
44.6814
 20
111.658
 30
0.0
 11
44.6814
 21
108.558
 31
0.0
  0
LINE
  8
0
 62
     0
 10
44.6814
 20
108.558
 30
0.0
 11
45.4822
 21
108.558
 31
0.0
  0
LINE
  8
0
 62
     0
 10
45.4822
 20
108.558
 30
0.0
 11
45.4822
 21
107.559
 31
0.0
  0
LINE
  8
0
 62
     0
 10
45.4822
 20
107.559
 30
0.0
 11
59.4815
 21
107.559
 31
0.0
  0
LINE
  8
0
 62
     0
 10
59.4815
 20
107.559
 30
0.0
 11
59.4815
 21
108.558
 31
0.0
  0
LINE
  8
0
 62
     0
 10
59.4815
 20
108.558
 30
0.0
 11
60.2809
 21
108.558
 31
0.0
  0
LINE
  8
0
 62
     0
 10
60.2809
 20
108.558
 30
0.0
 11
60.2809
 21
111.658
 31
0.0
  0
LINE
  8
0
 62
     0
 10
60.2809
 20
111.658
 30
0.0
 11
59.4815
 21
111.658
 31
0.0
  0
LINE
  8
0
 62
     0
 10
59.4815
 20
111.658
 30
0.0
 11
59.4815
 21
117.458
 31
0.0
  0
LINE
  8
0
 62
     0
 10
59.4815
 20
117.458
 30
0.0
 11
60.2809
 21
117.458
 31
0.0
  0
LINE
  8
0
 62
     0
 10
60.2809
 20
117.458
 30
0.0
 11
60.2809
 21
120.558
 31
0.0
  0
LINE
  8
0
 62
     0
 10
60.2809
 20
120.558
 30
0.0
 11
59.4815
 21
120.558
 31
0.0
  0
LINE
  8
0
 62
     0
 10
59.4815
 20
120.558
 30
0.0
 11
59.4815
 21
121.558
 31
0.0
  0
LINE
  8
0
 62
     0
 10
59.4815
 20
121.558
 30
0.0
 11
45.4822
 21
121.558
 31
0.0
  0
LINE
  8
0
 62
     0
 10
26.4322
 20
121.558
 30
0.0
 11
26.4322
 21
120.558
 31
0.0
  0
LINE
  8
0
 62
     0
 10
26.4322
 20
120.558
 30
0.0
 11
25.6315
 21
120.558
 31
0.0
  0
LINE
  8
0
 62
     0
 10
25.6315
 20
120.558
 30
0.0
 11
25.6315
 21
117.458
 31
0.0
  0
LINE
  8
0
 62
     0
 10
25.6315
 20
117.458
 30
0.0
 11
26.4322
 21
117.458
 31
0.0
  0
LINE
  8
0
 62
     0
 10
26.4322
 20
117.458
 30
0.0
 11
26.4322
 21
111.658
 31
0.0
  0
LINE
  8
0
 62
     0
 10
26.4322
 20
111.658
 30
0.0
 11
25.6315
 21
111.658
 31
0.0
  0
LINE
  8
0
 62
     0
 10
25.6315
 20
111.658
 30
0.0
 11
25.6315
 21
108.558
 31
0.0
  0
LINE
  8
0
 62
     0
 10
25.6315
 20
108.558
 30
0.0
 11
26.4322
 21
108.558
 31
0.0
  0
LINE
  8
0
 62
     0
 10
26.4322
 20
108.558
 30
0.0
 11
26.4322
 21
107.559
 31
0.0
  0
LINE
  8
0
 62
     0
 10
26.4322
 20
107.559
 30
0.0
 11
40.4315
 21
107.559
 31
0.0
  0
LINE
  8
0
 62
     0
 10
40.4315
 20
107.559
 30
0.0
 11
40.4315
 21
108.558
 31
0.0
  0
LINE
  8
0
 62
     0
 10
40.4315
 20
108.558
 30
0.0
 11
41.2309
 21
108.558
 31
0.0
  0
LINE
  8
0
 62
     0
 10
41.2309
 20
108.558
 30
0.0
 11
41.2309
 21
111.658
 31
0.0
  0
LINE
  8
0
 62
     0
 10
41.2309
 20
111.658
 30
0.0
 11
40.4315
 21
111.658
 31
0.0
  0
LINE
  8
0
 62
     0
 10
40.4315
 20
111.658
 30
0.0
 11
40.4315
 21
117.458
 31
0.0
  0
LINE
  8
0
 62
     0
 10
40.4315
 20
117.458
 30
0.0
 11
41.2309
 21
117.458
 31
0.0
  0
LINE
  8
0
 62
     0
 10
41.2309
 20
117.458
 30
0.0
 11
41.2309
 21
120.558
 31
0.0
  0
LINE
  8
0
 62
     0
 10
41.2309
 20
120.558
 30
0.0
 11
40.4315
 21
120.558
 31
0.0
  0
LINE
  8
0
 62
     0
 10
40.4315
 20
120.558
 30
0.0
 11
40.4315
 21
121.558
 31
0.0
  0
LINE
  8
0
 62
     0
 10
40.4315
 20
121.558
 30
0.0
 11
26.4322
 21
121.558
 31
0.0
  0
LINE
  8
0
 62
     0
 10
2.61965
 20
121.558
 30
0.0
 11
2.61965
 21
120.558
 31
0.0
  0
LINE
  8
0
 62
     0
 10
2.61965
 20
120.558
 30
0.0
 11
1.81901
 21
120.558
 31
0.0
  0
LINE
  8
0
 62
     0
 10
1.81901
 20
120.558
 30
0.0
 11
1.81901
 21
117.458
 31
0.0
  0
LINE
  8
0
 62
     0
 10
1.81901
 20
117.458
 30
0.0
 11
2.61965
 21
117.458
 31
0.0
  0
LINE
  8
0
 62
     0
 10
2.61965
 20
117.458
 30
0.0
 11
2.61965
 21
111.658
 31
0.0
  0
LINE
  8
0
 62
     0
 10
2.61965
 20
111.658
 30
0.0
 11
1.81901
 21
111.658
 31
0.0
  0
LINE
  8
0
 62
     0
 10
1.81901
 20
111.658
 30
0.0
 11
1.81901
 21
108.558
 31
0.0
  0
LINE
  8
0
 62
     0
 10
1.81901
 20
108.558
 30
0.0
 11
2.61965
 21
108.558
 31
0.0
  0
LINE
  8
0
 62
     0
 10
2.61965
 20
108.558
 30
0.0
 11
2.61965
 21
107.559
 31
0.0
  0
LINE
  8
0
 62
     0
 10
2.61965
 20
107.559
 30
0.0
 11
16.6192
 21
107.559
 31
0.0
  0
LINE
  8
0
 62
     0
 10
16.6192
 20
107.559
 30
0.0
 11
16.6192
 21
108.558
 31
0.0
  0
LINE
  8
0
 62
     0
 10
16.6192
 20
108.558
 30
0.0
 11
17.4198
 21
108.558
 31
0.0
  0
LINE
  8
0
 62
     0
 10
17.4198
 20
108.558
 30
0.0
 11
17.4198
 21
111.658
 31
0.0
  0
LINE
  8
0
 62
     0
 10
17.4198
 20
111.658
 30
0.0
 11
16.6192
 21
111.658
 31
0.0
  0
LINE
  8
0
 62
     0
 10
16.6192
 20
111.658
 30
0.0
 11
16.6192
 21
117.458
 31
0.0
  0
LINE
  8
0
 62
     0
 10
16.6192
 20
117.458
 30
0.0
 11
17.4198
 21
117.458
 31
0.0
  0
LINE
  8
0
 62
     0
 10
17.4198
 20
117.458
 30
0.0
 11
17.4198
 21
120.558
 31
0.0
  0
LINE
  8
0
 62
     0
 10
17.4198
 20
120.558
 30
0.0
 11
16.6192
 21
120.558
 31
0.0
  0
LINE
  8
0
 62
     0
 10
16.6192
 20
120.558
 30
0.0
 11
16.6192
 21
121.558
 31
0.0
  0
LINE
  8
0
 62
     0
 10
16.6192
 20
121.558
 30
0.0
 11
2.61965
 21
121.558
 31
0.0
  0
ENDSEC
  0
EOF
